<svg width="1080" height="1753" viewBox="0 0 1080 1753" fill="none" xmlns="http://www.w3.org/2000/svg">
<g clip-path="url(#clip0_1_1960)">
<rect width="1920" height="1080" transform="translate(0.00012207 1920) rotate(-90)" fill="white"/>
<rect width="1080" height="1920" fill="url(#paint0_linear_1_1960)"/>
<path fill-rule="evenodd" clip-rule="evenodd" d="M329.372 356.647C323.241 353.684 317.109 347.301 313.476 340.121C309.047 331.231 307.571 322.113 309.956 315.389C312.34 309.576 316.882 304.903 324.035 300.8C336.866 293.392 346.29 294.304 355.942 303.877C359.689 307.183 363.095 312.083 365.253 316.984C369.454 325.874 370.249 335.448 367.523 342.172C364.798 347.871 360.029 352.202 351.968 356.077C343.452 360.18 335.731 360.066 329.372 356.647ZM242.169 395.968C234.902 404.63 220.595 411.81 196.75 422.979C254.659 402.92 257.724 402.464 282.25 452.954C278.39 441.215 272.372 418.192 277.595 405.655C280.547 398.703 286.224 392.776 293.832 389.699C301.326 386.622 309.501 386.85 316.541 389.813C323.468 392.776 329.486 398.475 332.551 406.111C335.617 413.747 335.276 421.953 332.324 429.02C329.372 435.972 323.468 441.443 316.087 444.976C299.623 453.068 289.517 457.969 286.111 459.451C341.748 440.303 349.015 444.292 374.904 500.367C390.233 545.272 395.342 562.596 369 573.766C342.089 585.163 333.8 567.725 313.362 523.503C334.254 584.707 332.778 588.354 274.416 615.708C320.402 599.751 339.251 593.711 349.243 621.406C358.78 647.62 344.701 657.08 303.711 676.797C324.262 736.519 322.332 740.166 264.196 767.406C324.717 746.435 324.717 745.865 351.513 803.649C407.832 784.274 412.488 786.325 438.603 842.514C495.376 823.138 503.552 828.267 530.008 885.596C514.339 839.551 508.321 821.543 535.458 810.715C562.482 799.774 570.771 816.756 591.209 860.863C575.426 815.046 569.068 796.697 596.205 786.211C622.889 775.84 628.112 788.832 648.096 832.028C704.301 812.653 709.297 816.414 734.959 870.893C777.993 856.191 797.409 855.393 808.991 880.923C821.254 907.82 804.222 917.508 759.485 938.479C806.152 922.181 823.865 917.736 834.879 945.203C846.007 972.671 830.11 981.903 785.373 1002.76C832.041 986.69 849.64 982.017 860.768 1009.48C871.895 1036.95 856.112 1046.07 811.262 1067.04C857.702 1050.97 875.302 1046.18 886.656 1073.42C898.011 1100.89 882.228 1110.46 837.264 1131.44C896.535 1110.92 898.806 1110.81 924.694 1164.94C967.615 1150.24 986.69 1148.87 998.272 1174.29C1010.54 1201.3 993.503 1210.76 948.653 1231.85C995.206 1215.78 1012.81 1210.87 1024.05 1238.34C1028.02 1247.8 1028.48 1253.39 1025.75 1259.88C1030.75 1255.89 1035.52 1251.79 1040.4 1247.57C1035.74 1244.38 1032.56 1241.65 1030.18 1236.06C1024.05 1220.68 1031.43 1203.35 1046.64 1197.08C1060.72 1191.39 1075.82 1195.37 1083.2 1208.25L1089 1202.44C1088.2 1196.86 1089.56 1193.21 1091.61 1188.19C1094.56 1181.24 1100.24 1175.31 1107.84 1172.24C1112.5 1170.41 1114.66 1169.5 1119.54 1169.96C1128.28 1160.16 1136.8 1149.9 1144.97 1139.76C1144.97 1139.76 1144.18 1139.41 1142.93 1138.84C1136 1135.65 1129.99 1130.18 1127.03 1122.55C1123.97 1114.91 1124.19 1106.7 1127.15 1099.64C1130.1 1092.57 1135.78 1086.64 1143.38 1083.68C1150.99 1080.49 1159.17 1080.83 1166.21 1083.68C1172 1086.07 1174.95 1089.15 1178.58 1094.74C1180.4 1092.11 1183.58 1087.33 1185.4 1084.59C1184.6 1070.92 1186.76 1068.41 1201.63 1059.18C1203.11 1056.67 1205.49 1052.91 1206.97 1050.4C1195.96 1052.79 1186.53 1053.59 1178.58 1050.17C1171.54 1047.21 1165.64 1041.51 1162.57 1033.87C1159.51 1026.24 1159.85 1018.03 1162.69 1011.08C1165.64 1004.01 1171.32 998.087 1178.92 995.01C1186.53 992.046 1194.71 992.274 1201.75 995.238C1208.79 998.201 1214.12 1004.13 1217.76 1011.54L1222.98 1022.36L1225.14 1018.6C1216.51 987.488 1221.84 977.458 1252.84 961.274C1219.69 971.759 1207.99 970.62 1198.57 947.369C1188.69 922.865 1199.25 911.354 1234.79 893.346C1222.87 897.107 1200.5 902.919 1188.23 897.791C1181.2 894.827 1175.29 889.129 1172.34 881.493C1169.27 873.97 1169.61 865.764 1172.45 858.584C1175.52 851.632 1181.08 845.705 1188.69 842.628C1196.3 839.664 1204.47 839.893 1211.4 842.856C1218.44 845.819 1223.77 851.632 1227.29 859.154L1240.35 886.165C1221.39 830.091 1226.5 827.355 1283.27 800.8C1236.49 816.984 1218.78 821.543 1207.76 793.961C1196.75 766.494 1212.65 757.376 1257.5 736.405C1210.72 752.589 1191.75 757.604 1181.88 729.681C1173.02 704.379 1184.94 694.463 1222.41 675.999C1212.08 679.532 1185.96 687.283 1172.57 681.584C1165.64 678.507 1159.62 672.922 1156.67 665.172C1153.6 657.65 1153.94 649.443 1156.9 642.377C1159.85 635.425 1165.53 629.384 1173.13 626.421C1180.74 623.344 1188.92 623.686 1195.84 626.649C1202.77 629.612 1208.22 635.539 1211.74 642.947C1220.6 661.183 1225.59 671.782 1227.41 673.606C1208.22 617.417 1210.15 612.174 1262.27 585.847C1259.43 586.986 1224.57 599.865 1208.11 592.913C1201.07 589.95 1195.16 584.251 1192.21 576.615C1189.14 568.979 1189.37 560.773 1192.21 553.82C1195.27 546.868 1200.95 540.827 1208.45 537.75C1216.05 534.787 1224.23 535.015 1231.27 537.978C1238.2 540.941 1243.65 546.868 1247.17 554.276C1255 570.346 1259.77 580.49 1261.59 584.137C1246.82 541.055 1242.74 524.187 1268.63 513.132C1290.54 503.786 1298.03 513.816 1312 541.625C1309.05 519.058 1305.19 496.834 1300.42 474.723C1288.84 469.138 1283.16 458.425 1276.91 445.204C1279.07 452.27 1281.46 461.844 1282.25 470.848C1283.5 477.116 1282.82 483.385 1280.43 488.97C1277.48 495.922 1271.8 501.963 1264.2 504.926C1256.59 508.003 1248.41 507.661 1241.49 504.698C1236.04 502.418 1231.38 498.429 1227.98 493.301C1224.8 489.425 1221.84 484.981 1219.35 480.65C1220.37 485.322 1221.28 490.337 1221.73 495.238C1222.98 501.393 1222.3 507.775 1219.91 513.36C1216.96 520.312 1211.28 526.353 1203.68 529.316C1196.07 532.393 1187.89 532.165 1180.85 529.088C1175.52 526.809 1170.75 522.82 1167.46 517.805C1163.82 513.36 1160.42 508.117 1157.58 503.216C1159.05 508.915 1160.3 515.411 1160.87 521.566C1162.01 527.606 1161.32 533.647 1159.05 539.118C1155.99 546.07 1150.42 551.997 1142.82 555.188C1135.21 558.265 1127.03 557.923 1119.99 555.074C1114.43 552.567 1109.55 548.577 1106.14 543.221C1102.96 539.118 1099.9 534.559 1097.28 530.228C1099.78 541.397 1101.26 554.276 1097.85 562.482C1094.9 569.434 1089.22 575.361 1081.61 578.438C1074.01 581.516 1065.83 581.288 1058.91 578.21C1051.98 575.247 1045.96 569.548 1043.01 561.912C1039.94 554.276 1040.17 546.07 1043.12 539.118C1046.08 532.051 1051.98 526.695 1059.36 523.047L1086.95 509.713C1082.98 510.396 1065.95 516.551 1050.73 517.919C1044.71 519.172 1038.69 518.375 1033.36 516.209C1026.43 513.36 1020.53 507.775 1017.58 500.253C1014.51 492.731 1014.85 484.753 1017.92 477.8C1020.3 472.33 1024.39 467.429 1029.72 464.123C1043.12 453.41 1061.97 445.318 1061.97 445.318L1066.29 443.608C1066.29 443.608 1081.73 437.568 1097.17 435.174C1104.1 433.123 1111.25 433.579 1117.5 436.314C1123.06 438.707 1127.94 442.697 1131.35 448.167C1134.98 452.726 1138.16 457.741 1141 462.528C1139.64 456.829 1138.27 450.561 1137.71 444.406C1136.46 438.252 1137.25 431.983 1139.52 426.398C1142.48 419.332 1148.04 413.519 1155.76 410.328C1163.25 407.251 1171.43 407.593 1178.47 410.556C1183.92 412.836 1188.58 416.825 1191.87 421.953C1195.05 425.828 1198 430.159 1200.61 434.49C1199.59 429.818 1198.68 424.803 1198.23 420.016C1196.86 413.861 1197.66 407.479 1200.04 401.894C1203 394.942 1208.56 388.901 1216.28 385.938C1223.89 382.861 1232.06 383.089 1238.99 386.166C1244.44 388.445 1249.1 392.32 1252.5 397.449C1258.41 404.63 1263.4 413.633 1266.81 420.358C1260.79 401.894 1258.07 386.28 1270.1 370.894C1268.4 365.879 1266.47 360.864 1264.42 355.849C1249.66 357.673 1240.69 350.15 1235.58 335.676C1230.13 320.631 1232.06 310.146 1241.49 302.396C1239.67 298.521 1237.74 294.76 1235.81 290.884C1231.95 290.657 1229.91 289.289 1227.07 288.149C1220.03 285.186 1214.12 279.487 1211.06 271.851C1207.99 264.215 1208.67 256.237 1211.17 248.942C1211.63 247.689 1211.97 246.663 1211.97 246.663C1207.76 239.369 1203.34 231.846 1198.79 224.78C1191.87 221.475 1188.01 216.346 1185.17 209.28C1183.92 206.089 1183.69 204.721 1183.58 201.416C1174.84 188.537 1164.96 174.404 1155.42 162.095C1155.08 165.4 1154.74 166.654 1153.49 169.617C1150.54 176.57 1144.86 182.496 1137.25 185.573C1129.65 188.765 1121.58 188.423 1114.54 185.573C1105.69 181.812 1097.28 169.959 1091.15 159.474C1093.99 171.213 1096.15 185.687 1092.4 194.463C1089.45 201.53 1083.77 207.456 1076.16 210.534C1068.56 213.497 1060.38 213.269 1053.46 210.306C1046.42 207.342 1040.51 201.644 1037.45 194.007C1034.38 186.371 1034.72 178.165 1037.67 171.099C1040.62 164.147 1046.53 158.676 1053.91 155.143C1068.1 148.19 1100.12 135.197 1115.11 130.297C1120.22 128.587 1123.51 127.789 1128.51 128.359C1124.88 124.028 1121.92 120.951 1118.18 116.62C1108.75 126.763 1095.13 133.488 1081.16 138.161C1047.21 149.786 1024.96 155.713 999.748 104.653C1003.04 114.568 1011.33 141.58 1005.54 155.371C1002.59 162.323 996.91 168.364 989.302 171.441C981.808 174.518 973.633 174.176 966.593 171.213C959.667 168.25 953.762 162.551 950.696 154.915C947.631 147.279 947.971 139.186 950.923 132.006C953.876 125.054 959.78 119.583 967.161 116.05C985.669 107.046 996.115 102.145 997.704 100.094C944.792 118.329 934.459 117.304 910.842 71.0306C923.218 108.072 925.262 122.888 902.439 132.576C879.162 142.492 868.603 128.473 850.549 93.7112C862.812 130.752 864.288 147.62 841.351 157.308C818.074 167.11 808.65 159.474 790.596 124.712C802.973 162.095 802.859 172.353 779.809 182.382C756.419 192.412 748.471 186.941 730.19 151.609C742.453 188.537 741.09 197.313 718.154 207.114C694.99 216.916 687.724 213.383 669.783 178.735C686.02 227.971 659.678 233.898 628.112 247.119C603.813 257.262 580.082 262.391 559.757 243.7C556.124 239.711 552.49 234.582 549.651 228.769C543.179 215.434 541.703 201.986 545.677 194.691C548.175 190.132 552.604 186.485 559.076 183.066C581.558 171.555 593.14 184.776 613.464 218.17C598.703 182.04 595.978 165.4 618.233 154.003C640.716 142.606 649.231 145.227 669.67 178.735C654.682 142.378 655.59 136.337 677.959 124.826C700.554 113.087 709.524 117.873 730.076 151.723C715.315 115.822 715.542 107.16 737.684 95.8767C760.052 84.4794 770.272 91.5457 790.483 124.826C770.839 76.8432 794.23 64.99 824.66 49.7176C855.658 34.2173 884.045 26.5811 910.728 71.0306C890.971 23.0479 912.772 6.97777 943.429 -8.4086C950.81 -12.1697 956.941 -14.9051 964.095 -16.9566C938.774 -33.7106 913.453 -48.4131 886.429 -62.2038C884.045 -59.5825 881.887 -58.1008 878.481 -56.5052C863.72 -49.3249 845.893 -55.4794 838.626 -70.2959C836.015 -75.6527 834.652 -80.4395 835.447 -85.9102C823.979 -90.6971 812.624 -95.256 800.929 -99.473C797.863 -96.9656 795.819 -95.142 792.413 -93.4324C777.652 -86.2522 759.825 -92.4067 752.558 -107.223C751.082 -110.3 749.72 -112.922 749.493 -116.227C735.072 -120.444 719.744 -124.433 704.983 -127.738C704.983 -127.738 703.62 -126.827 702.598 -126.371C689.2 -119.76 673.644 -123.749 665.469 -135.716C662.63 -136.172 659.791 -136.628 657.066 -137.084C664.333 -121.926 657.974 -104.488 643.327 -97.3075C628.453 -90.0133 610.739 -96.1678 603.472 -111.098C598.136 -122.154 600.066 -134.805 607.674 -143.581C594.616 -144.834 581.785 -145.746 568.614 -146.43C566.002 -139.478 561.006 -133.551 553.853 -130.132C539.092 -122.951 521.265 -129.106 513.998 -143.809C513.544 -144.948 512.408 -147 512.408 -147H504.347C504.347 -147 507.072 -143.125 508.207 -140.959C515.361 -126.143 509.229 -108.249 494.468 -100.955C479.821 -93.7744 461.88 -99.9289 454.727 -114.631C450.072 -124.319 451.093 -135.261 456.317 -143.695C440.193 -142.099 424.069 -140.161 408.287 -137.654C395.456 -126.485 378.197 -117.253 378.197 -117.253L374.109 -115.201C374.109 -115.201 359.121 -108.135 343.792 -104.716C337.093 -102.094 329.94 -102.094 323.468 -104.374C317.79 -106.311 312.567 -110.414 308.82 -115.543L302.007 -113.492L302.802 -111.326C304.505 -105.286 304.051 -98.7892 302.121 -93.0905C299.736 -85.7963 294.513 -79.5277 287.133 -75.9946C279.752 -72.3475 271.577 -72.1195 264.424 -74.6269C258.86 -76.5645 254.545 -80.0976 250.344 -84.8845C248.187 -87.7338 246.029 -90.6971 244.099 -93.5464L241.828 -92.6346C242.623 -89.4434 243.304 -86.3661 243.985 -82.605C245.348 -75.5387 245.461 -70.182 243.531 -64.4833C241.033 -57.303 235.924 -50.9205 228.43 -47.3874C221.163 -43.7402 212.987 -43.5123 205.72 -46.0197C200.157 -47.9572 195.274 -51.2624 191.413 -56.1633C188.802 -59.5825 185.736 -63.3436 183.692 -66.8767L179.945 -65.0532C185.396 -41.9167 177.901 -20.2618 136.684 2.64677C182.216 -16.8426 200.724 -23.2251 212.533 4.12845C222.752 27.4929 212.874 38.4343 180.74 57.6957C192.776 53.1368 212.76 46.9823 224.342 50.8574C231.495 53.3648 237.854 58.6075 241.374 66.1298C245.007 73.424 245.234 81.6301 242.85 88.8104C240.352 95.9907 235.129 102.373 227.748 105.906C220.368 109.553 212.306 109.781 205.039 107.388C197.886 104.881 191.981 99.2959 188.007 92.1156C178.81 76.1594 173.36 66.3577 171.202 63.1665C188.915 105.336 194.706 122.774 169.613 135.083C144.519 147.279 134.527 132.12 111.818 91.7737C69.9191 109.439 50.9569 114.34 37.672 89.7222C31.0863 77.5271 28.4748 72.2843 28.5883 72.2843C28.7019 72.2843 32.3354 79.0087 37.672 89.7222C47.5505 110.009 35.6282 125.054 7.24165 141.808L8.37712 144.087C38.6939 132.12 54.931 132.576 64.696 152.635C74.4609 172.694 64.696 185.801 36.7636 202.441L37.7856 204.721C68.443 192.64 84.9072 193.78 94.6721 214.067C104.551 234.468 95.3535 248.031 66.9669 264.899L68.1024 267.178C98.6463 255.097 115.11 256.009 124.875 276.296C134.413 296.355 125.784 310.146 98.3057 326.444L99.8953 328.724C139.864 313.337 142.021 318.466 168.704 366.79C192.435 356.761 207.878 351.86 220.141 353.912C227.18 355.165 234.902 361.206 239.784 370.21C244.553 379.214 245.234 388.901 242.169 395.512M413.51 1246.09C413.51 1246.09 377.743 1263.64 360.143 1257.95C352.99 1255.55 346.631 1250.54 342.884 1243.13C339.137 1235.83 338.796 1227.63 341.181 1220.33C343.565 1213.15 348.675 1206.66 355.942 1203.01C363.209 1199.25 371.384 1198.79 378.651 1201.07C385.918 1203.47 391.822 1208.94 396.023 1216C407.832 1235.83 413.623 1246.09 413.623 1246.09M309.388 1337.5C316.768 1352.2 311.091 1370.09 296.33 1377.62C281.683 1385.14 263.742 1379.21 256.248 1364.51C248.868 1349.81 254.659 1331.8 269.306 1324.39C283.84 1316.87 301.894 1322.68 309.274 1337.5M368.205 1307.41C375.585 1322 369.794 1340.12 355.147 1347.53C340.5 1355.05 322.559 1349.12 315.179 1334.42C307.798 1319.83 313.476 1301.82 328.237 1294.19C342.77 1286.78 360.824 1292.71 368.318 1307.3M188.348 1244.95C195.842 1259.54 190.051 1277.55 175.403 1285.07C160.756 1292.59 142.816 1286.78 135.322 1272.08C127.941 1257.38 133.732 1239.37 148.379 1231.85C163.027 1224.44 180.967 1230.25 188.348 1244.95ZM247.278 1214.75C254.659 1229.45 248.868 1247.46 234.22 1254.98C219.686 1262.5 201.633 1256.69 194.139 1241.88C186.758 1227.17 192.549 1209.28 207.196 1201.64C221.844 1194.23 239.784 1200.05 247.278 1214.75ZM306.095 1184.66C313.476 1199.25 307.685 1217.37 293.037 1224.89C278.39 1232.3 260.449 1226.49 252.955 1211.79C245.575 1197.08 251.366 1179.08 266.013 1171.55C280.661 1164.15 298.601 1169.96 306.095 1184.66ZM98.4192 1213.72C105.8 1228.31 100.009 1246.32 85.3614 1253.84C70.7139 1261.25 52.7737 1255.44 45.2796 1240.85C37.8991 1226.15 43.69 1208.03 58.3374 1200.62C72.9849 1193.21 90.9251 1198.91 98.4192 1213.72ZM157.236 1183.64C164.617 1198.34 158.826 1216.35 144.178 1223.75C129.531 1231.28 111.591 1225.35 104.21 1210.76C96.716 1196.06 102.507 1178.05 117.154 1170.53C131.688 1163.01 149.742 1168.93 157.122 1183.64M215.939 1153.43C223.433 1168.25 217.643 1186.14 202.882 1193.66C188.348 1201.19 170.294 1195.26 162.913 1180.56C155.419 1165.97 161.324 1147.85 175.858 1140.44C190.505 1132.92 208.559 1138.84 215.939 1153.43ZM219.346 1306.16C226.84 1320.86 221.049 1338.87 206.288 1346.39C191.754 1353.8 173.814 1347.98 166.32 1333.28C158.826 1318.47 164.617 1300.57 179.264 1293.05C193.911 1285.53 211.852 1291.45 219.346 1306.16ZM278.276 1276.07C285.657 1290.77 279.866 1308.78 265.218 1316.19C250.571 1323.59 232.631 1317.9 225.137 1303.19C217.756 1288.49 223.547 1270.48 238.194 1262.96C252.842 1255.55 270.782 1261.36 278.276 1276.07ZM337.093 1245.98C344.587 1260.68 338.796 1278.69 324.035 1286.21C309.501 1293.62 291.561 1287.69 284.067 1273.1C276.573 1258.4 282.477 1240.39 297.125 1232.87C311.772 1225.35 329.713 1231.28 337.207 1245.98M355.147 1123.69C355.147 1123.69 372.519 1159.7 366.842 1177.37C364.458 1184.66 359.348 1191.04 352.081 1194.69C344.814 1198.45 336.639 1198.91 329.485 1196.51C322.219 1194.23 315.86 1189.11 312.113 1181.7C308.366 1174.4 307.912 1166.2 310.296 1158.9C312.681 1151.72 318.017 1145.8 325.171 1141.58C344.928 1129.73 355.26 1123.8 355.26 1123.8M265.105 1092.68C265.105 1092.68 282.591 1128.7 276.914 1146.37C274.643 1153.55 269.533 1160.04 262.153 1163.69C254.886 1167.45 246.71 1167.91 239.443 1165.51C232.29 1163.12 225.931 1157.99 222.184 1150.58C218.437 1143.29 217.983 1135.08 220.368 1127.9C222.752 1120.61 228.089 1114.68 235.129 1110.46C254.886 1098.61 265.105 1092.68 265.105 1092.68ZM57.429 1121.63C57.429 1121.63 75.0287 1157.65 69.2379 1175.32C66.8534 1182.5 61.8574 1188.99 54.4769 1192.75C47.2099 1196.51 39.0346 1196.86 31.7676 1194.58C24.6142 1192.18 18.2556 1187.05 14.5086 1179.76C10.7616 1172.47 10.421 1164.15 12.6919 1156.97C15.0764 1149.67 20.413 1143.74 27.4529 1139.53C47.2099 1127.67 57.429 1121.63 57.429 1121.63ZM657.974 18.0331C665.128 32.7357 658.996 50.7434 644.349 57.9237C629.588 65.104 611.761 58.9495 604.494 44.2469C597.341 29.4305 603.472 11.5367 618.12 4.3564C632.881 -2.8239 650.708 3.21664 657.974 18.0331ZM717.359 -11.03C724.512 3.78653 718.495 21.6803 703.734 28.8606C688.973 36.0409 671.146 29.8863 663.879 15.1838C656.725 0.367325 662.857 -17.5264 677.504 -24.7067C692.265 -31.887 710.092 -25.7325 717.245 -10.916M628.793 -42.9424C636.06 -28.2399 629.929 -10.3461 615.168 -3.05186C600.407 4.12843 582.58 -1.91212 575.426 -16.7286C568.159 -31.5451 574.291 -49.4389 589.052 -56.6192C603.813 -63.7995 621.64 -57.6449 628.793 -42.8284M688.178 -71.8915C695.331 -57.0751 689.2 -39.1813 674.552 -32.001C659.791 -24.8207 641.964 -30.9752 634.698 -45.7917C627.544 -60.6082 633.676 -78.502 648.437 -85.6823C663.198 -92.9766 681.024 -86.822 688.178 -71.8915ZM747.562 -100.955C754.829 -86.1382 748.698 -68.2444 733.823 -61.0641C719.176 -53.8838 701.349 -60.0384 694.082 -74.8549C686.929 -89.6713 693.06 -107.451 707.821 -114.745C722.582 -121.926 740.409 -115.885 747.562 -101.069M805.584 22.706C812.738 37.5225 806.606 55.3023 791.845 62.5966C777.084 69.7769 759.258 63.6223 752.104 48.8059C744.837 33.9894 750.969 16.0956 765.73 8.91531C780.491 1.73502 798.318 7.88954 805.584 22.706ZM864.969 -6.35707C872.122 8.45941 865.991 26.3532 851.23 33.6474C836.469 40.8277 818.642 34.6732 811.375 19.8567C804.222 5.04022 810.353 -12.8535 825.114 -20.0338C839.875 -27.2141 857.702 -21.0596 864.969 -6.35707ZM923.559 -35.1923C930.826 -20.2618 924.694 -2.48199 909.933 4.81227C895.172 11.9926 877.346 5.83804 870.079 -8.97845C862.925 -23.7949 869.057 -41.6887 883.818 -48.869C898.465 -56.0493 916.405 -50.0087 923.559 -35.1923ZM773.792 -38.4975C780.945 -23.681 774.813 -5.7872 760.166 1.3931C745.405 8.57339 727.578 2.41884 720.311 -12.3977C713.271 -27.1002 719.289 -45.1079 734.05 -52.2882C748.811 -59.4685 766.638 -53.314 773.905 -38.4975M833.29 -67.5606C840.443 -52.7441 834.425 -34.8503 819.551 -27.5561C804.79 -20.2618 787.076 -26.5303 779.809 -41.3468C772.656 -56.0493 778.788 -73.9431 793.435 -81.2373C808.196 -88.5316 826.023 -82.2631 833.29 -67.4466M169.726 367.018C169.726 367.018 152.808 330.661 158.826 313.109C161.324 305.929 166.433 299.66 173.927 296.013C181.308 292.366 189.483 292.138 196.637 294.646C203.79 297.153 210.149 302.282 213.668 309.804C217.302 317.212 217.643 325.418 215.031 332.599C212.533 339.779 207.083 345.592 199.929 349.581C179.945 361.206 169.613 366.904 169.613 366.904M330.962 -53.8838C338.115 -39.0673 331.984 -21.1736 317.223 -13.8793C302.462 -6.69899 284.635 -12.8535 277.481 -27.5561C270.328 -42.3726 276.46 -60.2663 291.107 -67.5606C305.868 -74.7409 323.695 -68.5863 330.962 -53.8838ZM271.577 -24.8207C278.73 -10.0042 272.599 7.88954 257.952 15.0698C243.19 22.3641 225.25 16.0956 218.097 1.3931C210.943 -13.4234 217.075 -31.3172 231.836 -38.6114C246.597 -45.7917 264.424 -39.6372 271.577 -24.8207ZM598.363 -108.249C605.516 -93.4325 599.498 -75.5387 584.737 -68.3584C569.976 -61.1781 552.15 -67.3326 544.883 -82.1491C537.729 -96.9656 543.861 -114.745 558.508 -122.04C573.269 -129.334 591.096 -123.065 598.249 -108.363M538.865 -79.2998C546.132 -64.5973 540 -46.5895 525.239 -39.4092C510.478 -32.229 492.651 -38.2695 485.384 -53.086C478.231 -67.9025 484.362 -85.7963 499.01 -93.0905C513.771 -100.271 531.598 -94.1163 538.751 -79.2998M479.48 -50.2367C486.633 -35.4202 480.502 -17.6404 465.854 -10.3461C451.093 -3.16583 433.267 -9.32037 426.113 -24.0229C418.846 -38.8394 424.978 -56.7331 439.739 -63.9134C454.5 -71.0937 472.327 -64.9392 479.594 -50.2367M420.209 -21.1736C427.476 -6.2431 421.231 11.5367 406.583 18.8309C391.822 26.0112 373.996 19.8567 366.729 5.04022C359.575 -9.77626 365.707 -27.67 380.354 -34.9643C395.115 -42.1446 412.942 -35.9901 420.209 -21.2875M360.824 7.77557C367.978 22.5921 361.846 40.4858 347.199 47.6661C332.438 54.8464 314.611 48.6919 307.458 33.8754C300.304 19.0589 306.436 1.16513 321.083 -6.01517C335.844 -13.3094 353.671 -7.15489 360.824 7.66161M301.44 36.6107C308.593 51.4272 302.462 69.321 287.701 76.6152C272.94 83.7955 255.113 77.755 247.959 62.8245C240.806 48.122 246.938 30.1143 261.699 22.934C276.46 15.7537 294.286 21.9082 301.44 36.6107ZM123.399 123.8C130.553 138.617 124.308 156.51 109.66 163.805C94.8993 170.985 77.1861 164.83 69.9191 150.014C62.7657 135.197 68.8972 117.304 83.5446 110.009C98.3056 102.829 116.132 108.984 123.399 123.686M568.841 -17.8683C575.994 -3.05186 569.976 14.9559 555.215 22.1362C540.454 29.3165 522.628 23.1619 515.474 8.34543C508.321 -6.47105 514.452 -24.3648 529.1 -31.6591C543.861 -38.8394 561.687 -32.6848 568.841 -17.9823M509.456 11.0808C516.61 25.8973 510.478 43.905 495.831 51.0853C481.07 58.2656 463.243 52.1111 456.089 37.4086C448.936 22.5921 455.068 4.6983 469.715 -2.59596C484.476 -9.77626 502.303 -3.62173 509.456 11.1947M450.072 40.2579C457.225 55.0744 451.207 72.9681 436.446 80.1484C421.685 87.3287 403.972 81.2881 396.705 66.4717C389.438 51.6552 395.569 33.7614 410.33 26.4671C425.091 19.2868 442.918 25.4414 450.072 40.2579ZM390.8 69.321C397.954 84.1375 391.822 102.031 377.175 109.326C362.414 116.506 344.587 110.351 337.32 95.6487C330.167 80.8323 336.298 62.9385 350.946 55.6442C365.707 48.4639 383.647 54.6185 390.8 69.435M331.416 98.4981C338.569 113.315 332.438 131.208 317.79 138.503C303.029 145.683 285.203 139.528 278.049 124.712C270.896 109.895 276.914 91.8876 291.675 84.7074C306.436 77.5271 324.262 83.6816 331.416 98.3841M272.031 127.447C279.185 142.264 273.053 160.157 258.292 167.452C243.645 174.632 225.704 168.591 218.551 153.775C211.398 138.958 217.529 121.065 232.29 113.77C246.938 106.59 264.878 112.745 272.031 127.447ZM212.647 156.51C219.8 171.327 213.668 189.335 199.021 196.515C184.26 203.695 166.433 197.541 159.166 182.724C152.013 167.908 158.145 150.014 172.905 142.72C187.553 135.653 205.493 141.694 212.647 156.51ZM153.262 185.573C160.415 200.39 154.397 218.284 139.636 225.464C124.875 232.758 107.049 226.604 99.7817 211.787C92.6283 196.971 98.6463 179.077 113.407 171.783C128.168 164.602 145.995 170.757 153.148 185.573M598.703 43.905C605.857 58.7215 599.725 76.6153 584.964 83.9095C570.203 91.0898 552.49 84.9353 545.223 70.1188C538.07 55.3023 544.088 37.2946 558.849 30.1143C573.61 22.934 591.436 29.0885 598.59 43.791M539.205 72.8541C546.472 87.6706 540.341 105.564 525.58 112.745C510.932 119.925 493.105 113.77 485.839 99.0679C478.685 84.2515 484.817 66.3577 499.464 59.0634C514.225 51.8831 532.052 58.0377 539.205 72.8541ZM479.821 101.917C487.088 116.734 480.843 134.628 466.195 141.808C451.434 148.988 433.494 142.834 426.34 128.131C419.187 113.315 425.318 95.3068 439.966 88.1265C454.727 80.8323 472.554 87.1008 479.707 101.917M301.667 188.993C308.82 203.809 302.689 221.703 287.928 228.997C273.167 236.177 255.34 230.023 248.187 215.32C241.033 200.504 247.051 182.61 261.812 175.316C276.573 168.136 294.4 174.29 301.667 189.107M242.282 218.17C249.435 232.986 243.304 250.88 228.657 258.174C213.896 265.355 196.069 259.2 188.802 244.497C181.648 229.681 187.78 211.787 202.541 204.607C217.302 197.313 235.129 203.467 242.282 218.284M182.898 247.347C190.164 262.163 184.033 280.057 169.272 287.237C154.511 294.418 136.684 288.263 129.417 273.447C122.264 258.63 128.395 240.736 143.043 233.556C157.804 226.262 175.631 232.53 182.784 247.347M747.108 47.6661C754.262 62.4826 748.13 80.3764 733.369 87.5567C718.608 94.737 700.781 88.5824 693.514 73.7659C686.361 58.9494 692.492 41.0557 707.14 33.8754C721.901 26.5811 739.728 32.8496 746.995 47.6661M687.61 76.7292C694.65 91.5457 688.632 109.439 673.871 116.62C659.11 123.8 641.283 117.76 634.13 102.943C626.976 88.1265 633.108 70.2328 647.755 62.9385C662.516 55.7582 680.343 61.7988 687.61 76.6152M628.225 105.678C635.379 120.381 629.247 138.275 614.486 145.569C599.839 152.863 582.012 146.595 574.745 131.892C567.592 117.076 573.723 99.1819 588.371 91.8876C603.132 84.7073 620.958 90.8619 628.225 105.678ZM568.841 134.628C576.108 149.444 569.976 167.338 555.215 174.632C540.454 181.926 522.627 175.658 515.361 160.955C508.207 146.139 514.339 128.245 528.986 120.951C543.747 113.77 561.574 119.925 568.841 134.741M331.416 250.994C338.569 265.81 332.438 283.704 317.677 290.998C303.029 298.179 285.089 292.024 277.936 277.208C270.782 262.505 276.914 244.611 291.675 237.317C306.322 230.137 324.262 236.291 331.529 251.108M272.145 280.171C279.298 294.988 273.167 312.995 258.406 320.176C243.758 327.356 225.818 321.201 218.665 306.499C211.511 291.682 217.529 273.789 232.29 266.608C247.051 259.314 264.878 265.469 272.145 280.285M349.697 -96.8516C363.322 -104.716 372.519 -110.073 376.948 -112.466L380.014 -114.176C384.783 -115.999 394.434 -119.988 408.968 -126.029C416.575 -129.22 424.524 -129.904 431.677 -127.396C438.831 -125.003 445.189 -119.646 448.709 -112.238C452.342 -104.83 452.683 -96.6237 450.072 -89.4434C447.573 -82.2631 442.35 -75.9946 434.97 -72.3474C427.589 -68.8143 419.414 -68.4724 412.261 -70.9798C403.177 -74.057 393.866 -85.2264 387.167 -95.37C390.8 -83.7447 393.866 -69.6121 390.8 -60.4942C388.302 -53.2 383.079 -46.9315 375.699 -43.2843C368.318 -39.6372 360.143 -39.4092 352.99 -41.9166C345.836 -44.4241 339.478 -49.6668 335.958 -57.189C332.324 -64.4833 332.097 -72.6894 334.595 -79.9836C337.093 -87.1639 342.543 -92.9766 349.697 -96.9656M406.47 171.213C392.844 179.077 383.647 184.206 379.332 186.713L376.267 188.423C371.498 190.132 361.846 194.235 347.199 200.276C339.591 203.353 331.756 204.151 324.49 201.644C317.336 199.136 311.091 193.893 307.458 186.485C303.824 179.077 303.597 170.871 306.095 163.577C308.593 156.396 313.703 150.014 321.197 146.481C328.577 142.834 336.753 142.606 343.906 144.999C353.103 148.19 362.3 159.36 369.113 169.503C365.366 157.878 362.3 143.631 365.48 134.514C367.978 127.333 373.201 120.951 380.468 117.418C387.848 113.77 396.024 113.543 403.177 116.05C410.33 118.557 416.689 123.686 420.322 131.208C423.956 138.503 424.183 146.709 421.685 153.889C419.187 161.069 413.85 166.996 406.583 171.099M660.7 494.896C654.568 479.624 661.835 462.186 677.164 456.031C692.379 449.877 709.752 457.171 715.883 472.443C722.014 487.83 714.747 505.154 699.419 511.422C684.204 517.691 666.945 510.169 660.7 494.896ZM891.652 1068.75C885.407 1053.36 892.788 1036.04 908.003 1029.89C923.218 1023.62 940.591 1031.03 946.836 1046.41C952.967 1061.68 945.587 1079.12 930.372 1085.28C915.156 1091.43 897.784 1084.02 891.652 1068.75ZM303.824 676.113C303.824 676.113 340.954 661.753 358.099 669.047C365.025 672.01 371.043 677.709 373.996 685.345C377.061 692.981 376.721 701.187 373.768 708.14C370.816 715.092 365.139 721.133 357.531 724.096C349.924 727.287 341.748 726.945 334.822 723.982C327.782 721.019 322.446 715.092 318.812 707.798C308.82 687.055 303.824 676.227 303.824 676.227M955.919 1149.22C935.254 1159.24 924.467 1164.26 924.467 1164.26C924.467 1164.26 910.16 1126.76 917.427 1109.78C920.38 1102.71 926.057 1096.79 933.664 1093.71C941.158 1090.63 949.334 1090.86 956.374 1093.94C963.3 1097.02 969.318 1102.6 972.27 1110.24C975.336 1117.99 975.109 1126.08 972.043 1133.15C969.091 1140.21 963.186 1145.57 955.806 1149.22M1092.17 426.284C1078.1 433.123 1068.56 437.682 1063.9 439.961L1060.72 441.443C1055.84 442.924 1045.96 446.23 1030.86 451.131C1023.14 453.638 1015.08 453.866 1008.15 450.903C1001.22 447.939 995.32 442.241 992.254 434.604C989.188 426.968 989.529 418.762 992.368 411.696C995.32 404.744 1001 398.817 1008.6 395.74C1016.21 392.662 1024.27 393.004 1031.31 395.854C1040.17 399.729 1048.69 411.468 1054.7 421.953C1051.87 410.1 1049.71 395.74 1053.57 386.85C1056.52 379.897 1062.2 373.971 1069.81 370.894C1077.41 367.816 1085.59 368.158 1092.52 371.008C1099.56 373.971 1105.46 379.669 1108.41 387.306C1111.59 394.942 1111.25 403.148 1108.41 410.1C1105.46 417.167 1099.56 422.523 1092.17 426.17M889.495 179.419C883.364 164.147 890.744 146.709 905.846 140.554C921.061 134.286 938.547 141.694 944.565 157.08C950.81 172.353 943.429 189.79 928.214 195.945C912.999 202.214 895.626 194.805 889.495 179.419ZM828.294 204.265C822.049 188.993 829.429 171.555 844.758 165.4C859.973 159.246 877.232 166.54 883.477 181.926C889.609 197.199 882.342 214.637 867.013 220.791C851.911 226.946 834.539 219.651 828.407 204.265M767.206 228.997C760.961 213.725 768.341 196.401 783.556 190.132C798.772 183.978 816.144 191.386 822.276 206.658C828.407 221.931 821.14 239.369 805.812 245.637C790.596 251.792 773.224 244.384 767.092 228.997M705.891 253.957C699.759 238.571 707.026 221.247 722.242 215.092C737.457 208.824 754.829 216.232 760.961 231.619C767.092 246.891 759.825 264.329 744.497 270.483C729.281 276.638 711.909 269.23 705.777 253.957M976.358 218.398C970.226 203.125 977.493 185.687 992.822 179.533C1008.04 173.264 1025.41 180.673 1031.54 196.059C1037.79 211.331 1030.41 228.769 1015.08 234.924C999.862 241.078 982.603 233.784 976.358 218.398ZM915.156 243.244C909.025 227.971 916.405 210.647 931.621 204.379C946.836 198.224 964.208 205.633 970.34 220.905C976.471 236.177 969.204 253.615 953.876 259.77C938.547 265.924 921.288 258.516 915.156 243.244ZM853.955 268.09C847.71 252.818 855.091 235.38 870.306 229.225C885.521 222.957 902.893 230.479 909.025 245.751C915.27 261.024 907.889 278.461 892.561 284.616C877.346 290.771 859.973 283.362 853.842 268.09M1124.42 232.53C1118.29 217.258 1125.67 199.82 1140.89 193.666C1156.1 187.511 1173.47 194.919 1179.61 210.192C1185.74 225.464 1178.36 242.902 1163.14 249.056C1147.93 255.325 1130.55 247.917 1124.31 232.644M1063.11 257.49C1056.98 242.218 1064.36 224.78 1079.57 218.626C1094.79 212.471 1112.16 219.879 1118.29 235.152C1124.42 250.424 1117.04 267.862 1101.83 274.016C1086.61 280.285 1069.24 272.763 1063.11 257.49ZM1001.91 282.337C995.774 267.064 1003.04 249.626 1018.37 243.358C1033.58 237.203 1050.96 244.611 1057.09 259.884C1063.22 275.156 1055.84 292.48 1040.62 298.749C1025.41 304.903 1008.04 297.495 1001.91 282.223M940.704 307.069C934.459 291.796 941.84 274.358 957.168 268.204C972.384 261.935 989.756 269.344 995.888 284.73C1002.02 300.002 994.639 317.44 979.423 323.595C964.208 329.749 946.836 322.341 940.704 307.069ZM879.503 331.915C873.371 316.642 880.638 299.205 895.854 293.05C911.069 286.781 928.555 294.19 934.686 309.576C940.818 324.848 933.551 342.286 918.222 348.441C903.007 354.709 885.634 347.301 879.503 332.029M634.584 431.413C628.339 416.027 635.719 398.703 650.935 392.434C666.15 386.28 683.522 393.574 689.654 408.961C695.785 424.233 688.518 441.785 673.303 447.825C658.088 453.98 640.715 446.572 634.584 431.413ZM573.383 456.145C567.251 440.873 574.632 423.435 589.847 417.281C605.062 411.012 622.435 418.534 628.566 433.807C634.698 449.079 627.317 466.517 612.102 472.557C596.887 478.826 579.514 471.418 573.383 456.145ZM512.181 480.991C506.05 465.719 513.317 448.281 528.532 442.127C543.747 435.972 561.12 443.266 567.251 458.653C573.383 473.925 566.002 491.363 550.787 497.518C535.572 503.672 518.199 496.264 512.068 480.991M450.753 505.952C444.621 490.679 452.002 473.127 467.217 467.087C482.546 460.932 499.805 468.34 505.936 483.499C512.181 498.771 504.801 516.209 489.586 522.364C474.37 528.518 456.998 521.224 450.753 505.952ZM389.551 530.798C383.42 515.525 390.8 498.087 406.016 491.819C421.231 485.664 438.603 493.073 444.735 508.345C450.866 523.617 443.599 541.055 428.271 547.21C413.055 553.478 395.683 546.07 389.551 530.798ZM1150.08 296.583C1143.95 281.311 1151.33 263.873 1166.55 257.718C1181.76 251.564 1199.14 258.972 1205.27 274.244C1211.51 289.631 1204.13 306.955 1188.92 313.223C1173.7 319.378 1156.33 311.97 1150.2 296.697M1089 321.543C1082.86 306.271 1090.24 288.833 1105.46 282.678C1120.67 276.41 1137.93 283.818 1144.18 299.205C1150.31 314.477 1143.04 331.915 1127.71 338.069C1112.5 344.224 1095.13 336.93 1089 321.543ZM1027.79 346.389C1021.66 331.117 1028.93 313.679 1044.26 307.525C1059.47 301.37 1076.85 308.778 1082.98 324.051C1089.22 339.323 1081.73 356.761 1066.51 362.915C1051.3 369.184 1033.93 361.662 1027.79 346.389ZM966.479 371.235C960.348 355.963 967.728 338.525 982.943 332.371C998.159 326.102 1015.53 333.51 1021.66 348.783C1027.79 364.055 1020.41 381.493 1005.2 387.648C989.983 393.802 972.611 386.508 966.479 371.235ZM905.278 396.082C899.146 380.809 906.413 363.371 921.742 357.103C936.957 350.948 954.33 358.357 960.461 373.743C966.593 389.015 959.326 406.339 943.997 412.494C928.896 418.762 911.409 411.354 905.278 396.082ZM844.077 420.928C837.832 405.655 845.212 388.217 860.541 382.063C875.756 375.794 893.129 383.203 899.26 398.475C905.391 413.747 898.011 431.185 882.796 437.34C867.581 443.494 850.208 436.2 844.077 420.814M782.875 445.66C776.63 430.387 784.011 412.95 799.226 406.795C814.441 400.641 831.814 408.049 837.945 423.321C844.077 438.594 836.696 455.917 821.481 462.186C806.266 468.454 788.893 461.046 782.762 445.66M721.447 470.506C715.315 455.234 722.696 437.91 737.911 431.755C753.126 425.487 770.499 432.895 776.63 448.167C782.762 463.44 775.495 480.878 760.166 487.032C744.951 493.301 727.578 485.778 721.447 470.506ZM599.044 520.198C592.799 504.926 600.179 487.488 615.508 481.333C630.723 475.065 648.096 482.587 654.227 497.859C660.359 513.132 652.978 530.57 637.763 536.724C622.548 542.879 605.176 535.471 599.044 520.198ZM537.843 544.93C531.598 529.772 538.978 512.22 554.193 506.065C569.409 499.911 586.781 507.319 592.913 522.592C599.044 537.864 591.664 555.302 576.448 561.456C561.233 567.725 543.861 560.317 537.729 544.93M476.528 569.776C470.396 554.504 477.663 537.066 492.878 530.912C508.094 524.757 525.466 532.165 531.598 547.438C537.729 562.71 530.462 580.148 515.247 586.302C500.032 592.571 482.546 585.049 476.528 569.776ZM415.326 594.623C409.195 579.35 416.575 561.912 431.791 555.758C447.006 549.489 464.265 556.898 470.396 572.17C476.641 587.442 469.261 604.88 454.046 611.035C438.831 617.189 421.458 609.895 415.326 594.509M354.125 619.355C347.994 603.968 355.26 586.644 370.589 580.376C385.804 574.107 403.177 581.63 409.308 596.902C415.554 612.174 408.173 629.612 392.844 635.767C377.629 641.921 360.257 634.513 354.125 619.355ZM956.601 523.389C950.469 508.117 957.736 490.679 972.951 484.525C988.167 478.256 1005.65 485.664 1011.78 501.051C1017.92 516.323 1010.65 533.647 995.32 539.916C980.218 546.07 962.846 538.776 956.601 523.389ZM895.399 548.235C889.154 532.963 896.535 515.639 911.75 509.371C926.965 503.102 944.338 510.624 950.469 525.897C956.714 541.169 949.334 558.607 934.005 564.762C918.79 570.916 901.417 563.508 895.286 548.235M834.084 573.082C827.953 557.809 835.22 540.371 850.549 534.217C865.764 527.948 883.023 535.357 889.154 550.629C895.399 565.901 888.019 583.453 872.804 589.494C857.589 595.762 840.216 588.354 834.084 573.082ZM772.883 597.928C766.752 582.655 774.132 565.331 789.347 559.063C804.562 553.022 821.935 560.317 828.067 575.589C834.312 590.975 826.818 608.299 811.602 614.454C796.387 620.722 779.015 613.2 772.883 597.928ZM711.682 622.774C705.55 607.501 712.931 590.064 728.146 583.909C743.475 577.755 760.734 585.049 766.865 600.435C772.997 615.708 765.73 633.145 750.401 639.3C735.186 645.455 717.927 638.16 711.682 622.774ZM650.48 647.62C644.349 632.348 651.616 614.91 666.831 608.755C682.046 602.601 699.532 610.009 705.664 625.281C711.795 640.554 704.415 657.992 689.2 664.146C673.984 670.301 656.612 663.006 650.48 647.62ZM589.279 672.466C583.034 657.194 590.414 639.756 605.743 633.601C620.958 627.333 638.331 634.741 644.462 650.127C650.594 665.4 643.214 682.838 627.998 688.992C612.897 695.261 595.524 687.852 589.279 672.58M528.078 697.426C521.833 682.154 529.213 664.716 544.428 658.561C559.644 652.407 577.016 659.701 583.148 674.973C589.279 690.246 582.012 707.684 566.797 713.838C551.582 720.107 534.209 712.699 528.078 697.312M466.876 722.158C460.745 706.886 468.012 689.448 483.341 683.294C498.556 677.139 515.928 684.433 522.06 699.82C528.191 715.092 520.811 732.53 505.596 738.685C490.38 744.839 473.008 737.431 466.876 722.158ZM405.675 747.004C399.544 731.732 406.924 714.294 422.139 708.14C437.354 701.985 454.727 709.393 460.858 724.552C466.99 739.824 459.723 757.376 444.394 763.417C429.179 769.685 411.807 762.277 405.675 747.004ZM982.489 587.328C976.244 572.056 983.625 554.618 998.953 548.464C1014.17 542.195 1031.54 549.717 1037.67 564.99C1043.8 580.262 1036.42 597.586 1021.21 603.854C1006.11 610.009 988.621 602.601 982.489 587.328ZM921.288 612.174C915.043 596.902 922.423 579.464 937.639 573.31C952.854 567.041 970.226 574.449 976.358 589.836C982.603 605.108 975.222 622.546 959.894 628.815C944.678 634.969 927.306 627.561 921.174 612.288M859.859 637.135C853.728 621.862 861.108 604.424 876.324 598.27C891.539 592.115 908.911 599.523 915.043 614.796C921.288 630.068 914.475 648.19 899.26 654.23C884.045 660.385 865.991 652.407 859.859 637.135ZM799.226 662.664C792.981 647.392 799.794 629.27 815.009 623.116C830.224 616.847 847.596 624.37 853.728 639.642C859.859 654.914 853.16 672.922 837.945 679.076C822.73 685.231 805.357 677.937 799.226 662.664ZM738.024 687.511C731.893 672.238 739.273 654.8 754.375 648.532C769.59 642.263 786.963 649.672 793.208 665.058C799.339 680.33 791.959 697.768 776.744 703.923C761.529 710.077 744.156 702.669 738.024 687.397M676.255 711.559C670.124 696.286 677.391 678.849 692.72 672.58C707.935 666.426 725.875 674.404 732.007 689.676C738.138 705.062 730.19 721.816 714.975 727.971C699.759 734.24 682.387 726.717 676.255 711.559ZM615.054 736.291C608.809 721.133 616.189 703.695 631.405 697.426C646.62 691.272 663.992 698.566 670.124 713.952C676.369 729.225 668.988 746.662 653.773 752.817C638.558 758.972 621.185 751.563 615.054 736.291ZM553.853 761.251C547.608 745.979 554.988 728.541 570.203 722.272C585.419 716.118 602.791 723.526 608.923 738.798C615.168 754.185 607.787 771.509 592.572 777.663C577.357 783.932 559.984 776.523 553.853 761.251ZM492.651 786.097C486.406 770.825 493.787 753.387 509.002 747.232C524.217 741.078 541.59 748.372 547.835 763.644C553.966 778.917 546.586 796.469 531.371 802.623C516.155 808.778 498.783 801.483 492.651 786.097ZM1130.67 601.575C1124.54 586.302 1131.8 568.865 1147.13 562.71C1162.35 556.556 1179.72 563.85 1185.85 579.122C1191.98 594.395 1184.6 611.832 1169.39 617.987C1154.17 624.255 1136.8 616.847 1130.67 601.575ZM1069.47 626.421C1063.22 611.149 1070.6 593.597 1085.93 587.556C1101.14 581.288 1118.52 588.696 1124.65 603.968C1130.78 619.241 1123.4 636.679 1108.18 642.947C1092.97 649.102 1075.6 641.693 1069.47 626.421ZM1008.72 651.837C1002.59 636.565 1009.29 618.557 1024.61 612.288C1039.83 606.134 1057.2 613.428 1063.33 628.815C1069.58 644.087 1062.77 662.095 1047.55 668.249C1032.34 674.518 1014.96 667.109 1008.83 651.837M947.631 676.683C941.385 661.411 948.198 643.289 963.413 637.135C978.629 630.866 996.569 638.844 1002.7 654.23C1008.95 669.503 1001.57 686.941 986.35 693.095C971.135 699.25 953.762 691.842 947.631 676.683ZM886.429 701.415C880.298 686.143 887.565 668.705 902.893 662.55C918.109 656.282 935.368 663.69 941.613 678.963C947.744 694.235 940.477 711.673 925.148 717.941C909.933 724.096 892.561 716.688 886.429 701.415ZM825.228 726.261C818.983 710.989 826.363 693.437 841.578 687.397C856.794 681.128 874.166 688.422 880.298 703.809C886.429 719.081 879.049 736.519 863.834 742.673C848.618 748.828 831.246 741.42 825.114 726.147M763.913 750.993C757.781 735.721 765.048 718.283 780.377 712.129C795.592 705.974 812.851 713.382 819.096 728.655C825.341 743.927 817.961 761.365 802.632 767.52C787.417 773.788 770.044 766.38 763.913 750.993ZM702.144 775.27C695.899 759.997 703.847 743.129 719.062 736.975C734.391 730.706 751.65 738.228 757.895 753.501C764.026 768.659 756.646 786.097 741.431 792.366C726.216 798.52 708.275 790.542 702.144 775.27ZM1095.92 690.588C1089.68 675.315 1097.06 657.992 1112.27 651.723C1127.49 645.568 1144.29 652.407 1150.42 667.565C1156.56 682.838 1149.74 700.959 1134.53 707.114C1119.31 713.268 1101.94 705.974 1095.92 690.588ZM1034.72 715.434C1028.59 700.161 1035.86 682.724 1051.07 676.569C1066.29 670.301 1083.66 677.709 1089.79 692.981C1096.04 708.254 1088.65 725.691 1073.44 731.96C1058.22 738.115 1040.85 730.706 1034.72 715.434ZM912.204 765.126C906.073 749.854 913.34 732.416 928.668 726.261C943.77 720.107 961.256 727.515 967.388 742.788C973.519 758.06 966.252 775.498 950.923 781.652C935.708 787.921 918.336 780.512 912.204 765.24M851.003 790.086C844.871 774.928 852.138 757.376 867.354 751.221C882.569 744.953 900.055 752.361 906.073 767.634C912.204 782.906 904.937 800.344 889.609 806.498C874.393 812.653 857.021 805.359 850.889 789.972M789.688 814.818C783.443 799.546 790.937 782.108 806.039 775.954C821.254 769.799 838.74 777.207 844.758 792.366C851.003 807.638 843.622 825.076 828.407 831.231C813.192 837.499 795.819 829.977 789.688 814.818ZM1120.9 753.729C1114.77 738.456 1122.15 721.019 1137.37 714.864C1152.58 708.595 1169.95 716.004 1176.09 731.39C1182.33 746.663 1174.95 764.1 1159.62 770.255C1144.41 776.409 1127.15 769.001 1120.9 753.729ZM1060.27 779.259C1054.14 763.986 1061.4 746.549 1076.73 740.28C1091.83 734.126 1109.32 741.534 1115.45 756.806C1121.7 772.079 1114.32 789.516 1098.99 795.671C1083.89 801.94 1066.51 794.531 1060.27 779.259ZM999.067 804.105C992.936 788.833 1000.2 771.395 1015.53 765.126C1030.75 758.972 1048.12 766.38 1054.25 781.652C1060.38 796.925 1053 814.362 1037.79 820.631C1022.57 826.785 1005.2 819.377 999.067 804.105ZM937.866 828.951C931.621 813.679 939.001 796.241 954.33 789.972C969.545 783.818 986.917 791.112 993.049 806.384C999.181 821.771 991.232 838.525 976.017 844.793C960.802 850.948 943.997 844.109 937.866 828.951ZM875.983 853.113C869.852 837.841 877.8 821.087 893.015 814.932C908.344 808.664 925.603 816.186 931.848 831.344C937.979 846.731 930.031 863.485 914.702 869.753C899.487 875.908 882.228 868.5 875.983 853.113ZM814.782 877.959C808.65 862.687 815.917 845.249 831.132 838.981C846.348 832.94 863.72 840.348 869.965 855.621C876.097 870.893 868.716 888.331 853.501 894.486C838.286 900.64 820.913 893.232 814.782 877.959ZM1146.68 817.554C1140.43 802.281 1147.81 784.844 1163.14 778.689C1178.24 772.42 1195.73 779.943 1201.86 795.215C1207.99 810.487 1200.61 827.925 1185.4 834.08C1170.18 840.348 1152.81 832.94 1146.68 817.554ZM1085.48 842.286C1079.34 827.013 1087.29 810.259 1102.51 803.991C1117.72 797.836 1135.1 805.245 1141.23 820.517C1147.36 835.789 1139.41 852.543 1124.19 858.812C1108.98 864.966 1091.61 857.558 1085.36 842.172M1024.16 867.132C1018.03 851.746 1025.98 834.992 1041.19 828.837C1056.41 822.682 1073.21 829.407 1079.34 844.679C1085.59 859.952 1078.21 877.389 1062.88 883.658C1047.66 889.812 1030.29 882.518 1024.16 867.132ZM962.959 891.978C956.828 876.706 964.208 859.268 979.423 853.113C994.639 846.959 1012.01 854.367 1018.14 869.639C1024.27 884.798 1016.89 902.236 1001.68 908.504C986.463 914.659 969.091 907.365 962.959 891.978ZM901.758 916.824C895.626 901.552 903.007 884.114 918.222 877.959C933.437 871.691 950.81 879.099 956.941 894.371C963.073 909.644 955.806 927.082 940.477 933.236C925.376 939.505 907.889 932.097 901.758 916.824ZM840.557 941.67C834.425 926.398 841.806 909.074 857.021 902.806C872.349 896.537 889.609 903.945 895.854 919.332C901.985 934.604 894.605 952.042 879.389 958.196C864.174 964.351 846.802 956.943 840.67 941.67M1111.36 906.225C1105.23 890.952 1112.61 873.515 1127.83 867.246C1143.04 861.091 1160.42 868.5 1166.55 883.772C1172.68 899.044 1165.41 916.482 1150.08 922.637C1134.87 928.791 1117.5 921.497 1111.36 906.111M1050.16 930.957C1044.03 915.684 1051.41 898.247 1066.63 892.092C1081.84 885.823 1099.21 893.346 1105.35 908.618C1111.48 923.891 1104.21 941.328 1089 947.483C1073.78 953.637 1056.29 946.229 1050.16 930.957ZM988.961 955.803C982.83 940.531 990.097 922.979 1005.43 916.938C1020.64 910.67 1038.01 918.078 1044.26 933.464C1050.39 948.737 1043.01 966.175 1027.79 972.329C1012.58 978.484 995.206 971.189 989.075 955.917M927.874 980.649C921.629 965.377 929.009 947.939 944.224 941.784C959.439 935.63 976.812 942.924 982.943 958.31C989.075 973.469 981.808 991.021 966.479 997.175C951.264 1003.33 933.891 995.922 927.76 980.649M866.559 1005.5C860.314 990.223 867.694 972.785 882.909 966.63C898.125 960.362 915.497 967.77 921.629 983.042C927.874 998.315 920.493 1015.75 905.278 1021.91C890.063 1028.06 872.69 1020.77 866.559 1005.38M1137.14 969.822C1131.01 954.549 1138.39 936.997 1153.6 930.957C1168.82 924.688 1186.19 932.097 1192.32 947.369C1198.45 962.641 1191.19 980.079 1175.86 986.234C1160.64 992.502 1143.27 985.094 1137.14 969.822ZM1075.94 994.668C1069.81 979.395 1077.19 961.957 1092.4 955.803C1107.62 949.648 1124.99 957.057 1131.12 972.443C1137.25 987.601 1129.99 1005.04 1114.66 1011.19C1099.44 1017.35 1082.18 1010.05 1075.94 994.668ZM1014.74 1019.51C1008.6 1004.24 1015.87 986.804 1031.2 980.649C1046.42 974.381 1063.79 981.789 1069.92 997.061C1076.05 1012.45 1068.67 1029.77 1053.46 1035.93C1038.24 1042.08 1020.87 1034.79 1014.74 1019.4M953.535 1044.25C947.404 1028.97 954.784 1011.65 969.999 1005.38C985.214 999.113 1002.59 1006.52 1008.72 1021.91C1014.96 1037.07 1007.58 1054.5 992.254 1060.77C977.039 1066.93 959.667 1059.52 953.535 1044.25ZM1101.71 1058.38C1095.47 1042.99 1102.85 1025.67 1118.06 1019.63C1133.28 1013.36 1150.65 1020.77 1156.9 1035.93C1163.03 1051.2 1155.65 1068.75 1140.43 1074.9C1125.22 1081.17 1107.84 1073.65 1101.71 1058.38ZM1040.51 1083.22C1034.38 1067.95 1041.65 1050.51 1056.98 1044.25C1072.19 1038.09 1089.56 1045.5 1095.69 1060.77C1101.83 1076.04 1094.56 1093.48 1079.23 1099.64C1064.02 1105.79 1046.64 1098.38 1040.51 1083.11M979.31 1107.96C973.178 1092.57 980.559 1075.25 995.774 1068.98C1010.99 1062.82 1028.36 1070.23 1034.61 1085.5C1040.74 1100.78 1033.36 1118.21 1018.14 1124.37C1002.93 1130.52 985.555 1123.23 979.423 1107.96M1066.29 1146.94C1060.15 1131.66 1067.54 1114.23 1082.75 1108.07C1098.08 1101.8 1115.34 1109.21 1121.58 1124.6C1127.71 1139.76 1120.33 1157.19 1105.12 1163.58C1089.9 1169.62 1072.42 1162.32 1066.29 1147.05M1005.08 1171.9C998.953 1156.51 1006.22 1139.07 1021.55 1133.03C1036.76 1126.76 1054.14 1134.28 1060.27 1149.56C1066.4 1164.83 1059.02 1182.27 1043.8 1188.42C1028.59 1194.58 1011.22 1187.17 1005.08 1171.9ZM1177.11 360.408C1170.98 345.136 1178.24 327.698 1193.46 321.543C1208.67 315.389 1226.16 322.683 1232.18 338.069C1238.42 353.342 1231.04 370.78 1215.83 376.934C1200.61 383.203 1183.24 375.794 1177.11 360.522M1115.91 385.368C1109.77 370.096 1117.15 352.658 1132.37 346.503C1147.59 340.235 1164.96 347.757 1171.09 363.029C1177.33 378.302 1169.95 395.74 1154.63 401.894C1139.41 408.049 1122.04 400.641 1115.91 385.368ZM932.188 459.906C926.057 444.634 933.437 427.196 948.653 421.042C963.868 414.887 981.24 422.295 987.372 437.568C993.617 452.84 986.236 470.278 971.021 476.433C955.806 482.701 938.433 475.179 932.302 459.906M871.1 484.753C864.969 469.48 872.349 452.042 887.565 445.888C902.78 439.733 920.152 447.141 926.284 462.414C932.415 477.686 925.149 495.124 909.82 501.393C894.605 507.547 877.232 500.139 871.1 484.867M809.899 509.713C803.768 494.44 811.148 477.116 826.363 470.848C841.578 464.579 858.951 471.988 865.083 487.374C871.214 502.646 863.947 519.97 848.618 526.239C833.403 532.393 816.031 524.985 809.899 509.713ZM748.698 534.559C742.566 519.286 749.947 501.849 765.162 495.694C780.377 489.425 797.75 496.834 803.881 512.22C810.013 527.492 802.746 544.93 787.531 551.085C772.315 557.353 754.943 549.945 748.811 534.559M687.61 559.405C681.365 544.133 688.745 526.695 703.961 520.54C719.176 514.272 736.548 521.794 742.68 537.066C748.925 552.339 741.544 569.776 726.216 575.931C711.114 582.199 693.742 574.791 687.61 559.405ZM626.409 584.251C620.277 568.979 627.544 551.541 642.759 545.386C658.088 539.232 675.347 546.526 681.479 561.912C687.724 577.185 680.343 594.623 665.128 600.777C649.913 607.046 632.54 599.637 626.409 584.365M565.207 609.211C559.076 593.939 566.456 576.501 581.672 570.346C596.887 564.192 614.259 571.486 620.391 586.758C626.636 602.031 619.255 619.469 604.04 625.623C588.825 631.778 571.452 624.483 565.321 609.097M504.12 633.943C497.874 618.671 505.255 601.233 520.47 595.078C535.685 588.924 553.058 596.332 559.189 611.604C565.321 626.877 558.054 644.315 542.725 650.469C527.51 656.624 510.137 649.216 504.006 633.943M442.805 658.789C436.673 643.517 443.94 625.965 459.269 619.924C474.484 613.656 491.857 621.064 497.988 636.337C504.119 651.609 496.739 669.047 481.524 675.201C466.309 681.47 448.936 673.948 442.805 658.789ZM381.603 683.635C375.358 668.363 382.739 650.925 398.067 644.771C413.283 638.616 430.542 645.91 436.787 661.297C443.032 676.569 435.651 694.007 420.436 700.162C405.221 706.316 387.848 698.908 381.717 683.635M353.217 803.877C353.217 803.877 339.137 766.494 346.29 749.398C349.243 742.445 354.92 736.405 362.527 733.328C370.135 730.25 378.31 730.592 385.237 733.556C392.277 736.519 398.181 742.218 401.133 749.854C404.199 757.49 403.972 765.696 401.02 772.648C398.067 779.715 392.163 785.071 384.782 788.719C364.117 798.748 353.217 803.763 353.217 803.763M440.307 842.742C440.307 842.742 426 805.245 433.153 788.263C436.219 781.31 441.783 775.384 449.39 772.306C456.998 769.229 465.173 769.457 472.099 772.42C479.139 775.384 485.044 781.082 488.109 788.719C491.175 796.355 490.835 804.561 487.882 811.627C484.93 818.579 479.026 824.05 471.645 827.583C450.98 837.613 440.193 842.742 440.193 842.742M649.572 832.028C649.572 832.028 635.265 794.645 642.532 777.549C645.484 770.483 651.048 764.67 658.769 761.479C666.377 758.402 674.552 758.744 681.479 761.707C688.518 764.67 694.423 770.369 697.375 778.005C700.441 785.641 700.1 793.847 697.261 800.914C694.309 807.98 688.405 813.337 681.024 816.87C660.359 827.014 649.686 832.028 649.686 832.028M736.548 870.893C736.548 870.893 722.809 834.08 729.963 817.098C733.028 810.031 738.592 804.105 746.2 801.028C753.807 797.95 761.983 798.292 769.023 801.256C775.949 804.219 781.967 809.918 784.919 817.554C787.985 825.076 787.076 832.712 784.124 839.665C781.172 846.731 775.268 852.087 767.887 855.735C747.222 865.764 736.435 870.779 736.435 870.779M688.405 304.333C696.012 301.256 704.074 301.598 711.114 304.561C719.516 308.094 727.578 318.808 733.596 328.838C732.574 324.051 731.552 318.922 731.212 313.907C729.849 307.753 730.53 301.37 732.915 295.785C735.64 289.403 740.295 284.046 746.768 280.855C759.598 271.851 774.813 265.355 774.813 265.355L779.128 263.645C779.128 263.645 798.204 256.237 815.236 254.641C821.481 253.273 827.726 254.071 833.29 256.237C840.216 259.086 846.12 264.671 849.073 272.193C852.138 279.601 851.684 287.807 848.732 294.646C846.461 300.116 842.487 304.675 837.377 307.98C825.568 317.668 809.104 325.076 805.357 326.786C809.672 325.988 820.118 322.455 836.696 316.984C844.531 314.477 852.479 314.249 859.405 317.098C866.332 320.062 872.349 325.874 875.415 333.396C878.481 340.919 878.14 349.125 875.188 356.191C872.236 363.257 866.559 369.07 858.951 372.261C851.344 375.339 843.282 374.997 836.242 372.033C826.136 367.702 816.598 353 810.467 341.83C812.284 348.555 814.214 356.761 814.895 364.625C816.258 370.894 815.463 377.162 813.192 382.747C810.24 389.699 804.562 395.74 796.955 398.703C789.347 401.78 781.172 401.552 774.132 398.703C768.795 396.31 764.026 392.434 760.734 387.192C757.327 383.089 754.262 378.416 751.536 373.857C754.034 385.14 755.511 397.905 751.991 406.111C749.038 413.064 743.361 419.104 735.754 422.067C728.146 425.145 719.971 424.803 712.931 421.953C706.004 418.99 699.987 413.292 697.034 405.655C693.969 398.019 694.196 389.813 697.148 382.747C700.214 375.794 706.004 370.324 713.385 366.79L740.522 351.746L710.546 359.496C702.939 362.573 694.877 362.232 687.837 359.268C678.98 355.507 670.465 343.768 664.447 333.168C665.696 338.639 666.831 344.338 667.285 349.809C668.534 356.077 667.853 362.346 665.469 367.93C662.516 374.997 656.839 380.923 649.231 384C641.737 387.078 633.562 386.736 626.522 383.886C621.185 381.607 616.417 377.618 613.124 372.489C609.263 367.816 605.857 362.574 603.018 357.559C604.381 363.257 605.63 369.64 606.197 375.68C607.333 381.721 606.652 387.648 604.494 393.118C601.429 400.185 595.751 406.111 588.144 409.188C580.65 412.266 572.474 411.924 565.434 408.961C559.871 406.567 554.988 402.578 551.695 397.107C548.062 392.662 544.769 387.534 542.044 382.747C543.293 388.331 544.655 394.6 545.11 400.413C546.359 406.453 545.564 412.494 543.293 417.964C540.341 425.031 534.663 430.957 527.169 433.921C519.562 436.998 511.386 436.77 504.347 433.807C498.783 431.413 493.9 427.424 490.494 421.953C486.52 417.053 483 411.354 480.048 406.225C481.637 412.152 483 419.104 483.568 425.487C484.703 431.527 484.022 437.568 481.751 442.924C478.799 449.991 473.235 455.917 465.627 458.995C458.02 462.072 449.844 461.616 442.805 458.767C437.241 456.373 432.358 452.384 429.065 446.914C422.366 438.594 416.689 428.108 413.51 421.384L421.117 444.748C423.615 452.612 423.956 460.59 421.004 467.543C418.052 474.609 412.374 480.536 404.767 483.613C397.159 486.69 388.984 486.462 382.057 483.499C375.018 480.422 369.113 474.837 366.047 467.201C362.982 459.565 363.322 451.359 366.274 444.292C372.86 428.906 402.95 412.836 408.627 410.328L379.105 419.902C371.271 422.409 363.436 422.637 356.396 419.674C349.47 416.825 343.452 411.126 340.386 403.49C337.32 395.854 337.661 387.648 340.613 380.695C343.565 373.629 349.243 367.702 356.85 364.625C364.344 361.548 372.52 361.89 379.559 364.739C388.075 368.5 396.364 379.669 402.382 389.927C401.247 384.798 400.225 379.328 399.771 373.971C398.408 367.816 399.203 361.434 401.587 355.849C404.54 348.897 410.217 342.856 417.824 339.779C425.432 336.702 433.494 337.044 440.534 340.007C445.984 342.286 450.639 346.161 453.932 351.29C458.133 356.419 461.767 362.232 464.833 367.588C463.356 361.776 462.107 355.165 461.54 348.897C460.177 342.628 460.972 336.36 463.243 330.775C464.151 328.61 465.287 326.558 466.649 324.734C467.898 323.025 469.374 321.429 470.964 319.948C471.986 319.036 473.235 318.124 474.484 317.326C487.769 307.297 506.845 299.319 506.845 299.319L511.046 297.609C511.046 297.609 528.759 290.771 544.883 288.605C547.381 288.035 549.879 287.693 552.263 287.693C553.853 287.693 555.442 287.807 557.146 288.149C559.416 288.491 561.574 289.175 563.731 290.087C566.57 291.34 569.181 292.936 571.452 294.988C574.291 297.267 576.789 300.116 578.606 303.422C581.785 307.639 584.737 312.197 587.122 316.528C585.759 310.944 584.51 304.789 584.056 298.863C582.693 292.708 583.488 286.44 585.759 280.741C588.484 274.472 593.253 269.002 599.612 265.81C612.443 256.693 627.658 250.31 627.658 250.31L631.859 248.6C631.859 248.6 651.048 241.192 668.08 239.597C674.212 238.229 680.457 239.027 686.02 241.192C692.947 244.042 698.851 249.626 701.803 257.148C704.869 264.671 704.528 272.763 701.576 279.715C699.192 285.072 695.331 289.745 690.222 293.05C678.299 302.624 662.289 311.286 658.542 312.881L688.745 304.105L688.405 304.333ZM974.2 740.508C967.955 725.349 975.336 707.798 990.551 701.643C1005.77 695.603 1023.14 702.897 1029.27 718.283C1035.4 733.556 1028.13 750.994 1012.81 757.148C997.591 763.417 980.218 756.008 974.087 740.622M367.637 291.112C366.842 297.267 369.567 306.727 375.245 315.845C380.808 324.734 387.621 331.231 393.639 333.396C399.43 335.106 405.789 334.308 413.51 331.003C436.446 321.201 434.629 304.447 422.366 267.634C445.984 314.021 474.37 310.146 506.39 296.811C522.741 289.973 536.253 282.45 543.179 269.913C547.608 260.34 546.699 246.207 539.773 233.1C531.257 217.03 516.042 207.342 504.12 209.394C494.582 210.989 482.773 215.434 466.99 222.159C468.466 219.993 478.685 214.295 496.398 204.037C503.438 199.934 509.002 194.121 511.5 186.941C513.998 179.761 513.657 171.555 510.137 164.147C506.617 156.738 500.259 151.496 493.105 148.988C485.952 146.481 477.777 146.709 470.396 150.356C463.016 154.003 457.679 160.271 455.295 167.452C450.412 181.698 460.518 208.14 464.492 217.714C435.878 168.591 413.964 176.114 380.922 190.018C354.92 200.96 327.328 223.185 338.91 249.056C351.059 276.182 369.227 269.799 414.759 250.424C383.193 267.976 369.454 276.182 367.751 290.998M269.647 381.949C263.515 379.1 257.384 373.059 253.75 366.221C249.208 357.787 247.846 349.125 250.23 342.628C252.615 337.044 257.157 332.599 264.31 328.61C277.141 321.657 286.565 322.569 296.216 331.687C300.077 334.878 303.37 339.551 305.527 344.11C309.729 352.658 310.523 361.662 307.798 368.158C305.073 373.629 300.304 377.732 292.242 381.379C283.84 385.254 276.119 385.254 269.647 381.949ZM-215.309 897.107C-221.554 878.529 -227.118 859.61 -232 840.462C-213.946 866.106 -202.819 861.661 -157.06 841.146C-200.094 866.106 -214.968 876.82 -201.229 903.261C-187.603 929.475 -170.572 923.093 -125.607 903.147C-168.528 927.766 -183.516 938.365 -170.004 964.693C-156.605 991.135 -139.346 984.98 -94.2686 964.807C-137.075 989.539 -152.177 1000.02 -138.665 1026.47C-125.153 1052.91 -108.008 1046.75 -63.0434 1026.47C-105.85 1051.31 -121.86 1062.37 -107.326 1088.13C-93.5873 1112.52 -74.0573 1110.01 -32.7266 1091.54C-36.36 1093.6 -47.4876 1100.32 -62.7027 1109.44C-69.7426 1113.77 -75.0793 1119.58 -77.4637 1126.88C-79.5076 1133.37 -79.394 1140.21 -76.7825 1146.94C-88.1371 1133.03 -99.0375 1119.01 -109.484 1104.31C-109.484 1099.86 -110.619 1095.65 -112.777 1091.32C-116.069 1084.71 -121.633 1079.81 -127.992 1077.3C-133.101 1069.66 -137.757 1062.03 -142.526 1054.16C-139.687 1046.64 -139.914 1037.98 -143.888 1030.11C-148.317 1021.57 -156.492 1015.98 -165.121 1014.39C-168.414 1008 -171.707 1001.85 -174.773 995.58C-171.026 987.374 -170.572 977.572 -174.773 968.91C-178.747 961.16 -185.673 955.803 -193.621 953.638C-197.141 945.432 -200.548 937.453 -203.841 928.905C-202.364 922.181 -202.592 914.431 -205.884 907.706C-208.155 903.375 -211.562 899.956 -215.309 897.221M-31.8182 1090.86C-31.8182 1090.86 -14.2186 1126.88 -20.0094 1144.54C-22.2803 1151.84 -27.3899 1158.22 -34.7704 1161.98C-41.9238 1165.74 -50.0991 1166.54 -57.3661 1164.15C-59.5234 1163.35 -63.7247 1161.64 -65.5414 1160.61C-58.9557 1168.13 -51.6888 1176.45 -44.876 1183.75C-42.1509 1178.16 -36.4736 1173.04 -30.5692 1169.96C-15.9218 1162.44 2.01854 1168.36 9.39905 1182.95C16.8931 1197.65 10.0803 1216.46 -4.45358 1223.87C-2.18265 1226.15 0.315353 1228.43 2.69981 1230.71C16.7795 1225.24 33.5844 1230.59 40.5107 1244.27C43.69 1250.65 44.1442 1258.29 42.7816 1264.67C53.0008 1272.76 63.3334 1280.63 73.8932 1288.26C74.3474 1278 80.5924 1267.52 90.4709 1262.5C105.118 1254.98 123.059 1260.79 130.553 1275.5C138.047 1290.2 131.461 1308.66 116.927 1316.19L116.132 1316.64C119.198 1318.58 122.718 1320.52 125.784 1322.57C139.409 1318.12 154.965 1323.71 161.778 1336.93C162.8 1339.21 163.595 1342.06 164.162 1344.34C176.652 1351.06 189.143 1357.1 201.973 1363.14C204.471 1359.95 207.878 1356.87 211.625 1355.05C226.272 1347.64 244.212 1353.45 251.706 1368.16C254.432 1373.4 255.226 1379.67 254.772 1385.14C266.354 1389.58 277.936 1393.57 289.744 1397.45C292.356 1392.89 296.557 1388.79 301.667 1386.17C316.314 1378.64 334.254 1384.57 341.635 1399.27C343.906 1403.6 344.928 1408.39 344.928 1413.06C347.766 1413.75 350.605 1414.43 353.444 1415C339.137 1381.61 336.412 1366.79 358.894 1354.82C384.782 1341.15 394.434 1357.9 418.733 1400.07C392.504 1340.8 393.639 1337.16 449.504 1304.79C404.994 1324.85 386.826 1332.37 374.45 1305.7C362.641 1280.4 375.812 1269.8 414.986 1246.55C389.324 1188.88 390.914 1185 446.438 1152.75C387.962 1178.96 387.962 1179.53 356.396 1124.26C302.007 1148.42 297.238 1146.82 266.24 1093.14C211.511 1117.42 202.882 1113.09 171.429 1058.26C191.186 1102.83 198.567 1120.04 172.565 1133.49C146.449 1146.82 136.911 1130.52 112.612 1088.24C132.256 1132.58 140.204 1150.24 114.089 1163.23C88.4272 1175.77 82.0685 1163.23 58.451 1122.09C4.06238 1146.25 -0.933655 1142.95 -31.4776 1090.86" fill="white" fill-opacity="0.1"/>
<path d="M-161.726 938.577H-150.794V946.95H-161.726V964.395H-150.794V972.767H-161.726V990.204H-150.794V998.577H-161.726V1016.01H-150.794V1024.39H-161.726V1041.82H-150.794V1050.2H-161.726V1067.64H-150.794V1076.01H-161.726V1093.45H-150.794V1101.82H-161.726V1119.26H-150.794V1139.33H-161.726V1156.77H-150.794V1165.14H-161.726V1182.58H-150.794V1190.95H-161.726V1208.39H-150.794V1216.76H-161.726V1234.21H-150.794V1242.57H-161.726V1260.02H-150.794V1268.39H-161.726V1285.83H-150.794V1294.2H-161.726V1311.64H-150.794V1320.01H-161.726V1337.45H-150.794V1345.82H-161.726V1363.26H-150.794V1371.64H-161.726V1389.07H-150.794V1397.45H-161.726V1414.88H-150.794V1423.26H-161.726V1440.69H-150.794V1449.07H-161.726V1466.51H-150.794V1474.88H-161.726V1492.32H-150.794V1500.69H-161.726V1518.13H-150.794V1526.5H-161.726V1543.94H-150.794V1552.31H-161.726V1569.76H-150.794V1578.13H-161.726V1595.57H-150.794V1604.09H-161.726V1621.53H6.44022V1604.09H-4.49255V1595.57H6.44022V1578.13H-4.49255V1569.76H6.44022V1552.31H-4.49255V1543.94H6.44022V1526.5H-4.49255V1518.13H6.44022V1500.69H-4.49255V1492.32H6.44022V1474.88H-4.49255V1466.51H6.44022V1449.07H-4.49255V1440.69H6.44022V1423.26H-4.49255V1414.88H6.44022V1397.45H-4.49255V1389.07H6.44022V1371.64H-4.49255V1363.26H6.44022V1345.82H-4.49255V1337.45H6.44022V1320.01H-4.49255V1311.64H6.44022V1294.2H-4.49255V1285.83H6.44022V1268.39H-4.49255V1260.02H6.44022V1242.57H-4.49255V1234.21H6.44022V1216.76H-4.49255V1208.39H6.44022V1190.95H-4.49255V1182.58H6.44022V1165.14H-4.49255V1156.77H6.44022V1139.33H-4.49255V1119.26H6.44022V1101.82H-4.49255V1093.45H6.44022V1076.01H-4.49255V1067.64H6.44022V1050.2H-4.49255V1041.82H6.44022V1024.39H-4.49255V1016.01H6.44022V998.577H-4.49255V990.204H6.44022V972.767H-4.49255V964.395H6.44022V946.95H-4.49255V938.577H6.44022V921.14H-161.726V938.577Z" fill="#C1C1C1" fill-opacity="0.4"/>
<path d="M201.263 1094.54V1089.93V1045.62H184.456V1089.93H113.547V1045.62H96.7476V1089.93V1094.54V1154.42H36.6864V1621.53H96.7476H122.534H175.468H201.263H261.316V1154.42H201.263V1094.54Z" fill="#C1C1C1" fill-opacity="0.4"/>
<path d="M75.6353 1461.14V1459.57H74.5205L28.6443 1395.37H-188.582V1283.38V1278.76V1234.08H-186.144V1226.12H-174.743L-218.858 1202.13H-221.065V1166.8H-225.678V1202.13H-227.884L-271.992 1226.12H-260.59V1234.08H-258.153V1278.76V1283.38V1395.37H-475.379L-516.865 1453.43V1209.67H-702V1621.6H-516.865V1471.12H-510.053V1553.48H-510.568V1603.98V1608.59V1621.6H-270.009H-252.71H-194.025H-176.734H63.8261V1608.59V1603.98V1553.48H63.3109V1471.12H75.6353V1464.18H77.8112L75.6353 1461.14Z" fill="#C1C1C1"/>
<path d="M1246.48 1306.42L1245.93 1306.28L1163.43 1326.74V1244H1173.61V1233.51H1184.68V1219.12H1155.18V1143.66H1159.78V1133.86H1168.75V1120.12H1155.12C1153.86 1090.84 1128.74 1067.4 1098.01 1067.4C1067.29 1067.4 1042.17 1090.84 1040.9 1120.12H1027.28V1133.86H1036.25V1143.66H1040.84V1219.12H1011.35V1233.51H1022.41V1244H1032.59V1339.9C1026.88 1326.74 1015.96 1315.48 1000.2 1306.72C979.244 1295.06 951.128 1288.64 921.043 1288.64C890.959 1288.64 862.843 1295.06 841.884 1306.72C826.131 1315.47 815.206 1326.73 809.493 1339.9V1243.99H819.673V1233.5H830.736V1219.11H801.244V1143.65H805.841V1133.85H814.814V1120.11H801.19C799.929 1090.84 774.804 1067.39 744.081 1067.39C713.359 1067.39 688.233 1090.84 686.972 1120.11H673.341V1133.85H682.313V1143.65H686.911V1219.11H657.418V1233.5H668.482V1243.99H678.661V1260.38H647.293V1254.47H613.064V1260.38H582.972V1201.5H586.494V1184.59H593.09V1168.18H579.29C578.275 1103.13 534.605 1048.54 475.782 1032.62V977.972H481.533V961.35H475.782V950.556H467.886C466.702 937.247 456.007 926.614 442.699 925.499V850H438.086V925.499C424.777 926.614 414.083 937.247 412.899 950.556H405.003V961.35H399.252V977.972H405.003V1032.62C346.18 1048.54 302.51 1103.13 301.495 1168.18H287.695V1184.59H294.291V1201.5H297.813V1260.38H267.72V1254.47H233.492V1260.38H199.24V1254.47H165.012V1266.83H170.079V1283.16H165.012V1290.9H153.149V1304.59H159.461V1313.37H163.89V1469.88H135.081V1482.62H140.394V1499.99H135.081V1508.11H129.138V1525.8H135.081V1621.6H1420.22V1597.14H1406.62V1509.93H1414.83V1499.19H1421.66V1484.47H1406.62V1419.81H1414.83V1409.07H1421.66V1394.35H1406.62V1370.27H1414.83V1359.53H1421.66V1344.81H1401.52L1246.51 1306.41L1246.48 1306.42Z" fill="#C1C1C1"/>
</g>
<defs>
<linearGradient id="paint0_linear_1_1960" x1="540" y1="0" x2="540" y2="1920" gradientUnits="userSpaceOnUse">
<stop offset="0.644699" stop-color="#D9D9D9"/>
<stop offset="1" stop-color="#B0B0B0"/>
</linearGradient>
<clipPath id="clip0_1_1960">
<rect width="1920" height="1080" fill="white" transform="translate(0.00012207 1920) rotate(-90)"/>
</clipPath>
</defs>
</svg>
