<svg width="711" height="172" viewBox="0 0 711 172" fill="none" xmlns="http://www.w3.org/2000/svg">
<g clip-path="url(#clip0_7_19)">
<g filter="url(#filter0_d_7_19)">
<mask id="mask0_7_19" style="mask-type:luminance" maskUnits="userSpaceOnUse" x="0" y="0" width="711" height="172">
<path d="M711 0H0V172H711V0Z" fill="white"/>
</mask>
<g mask="url(#mask0_7_19)">
<path fill-rule="evenodd" clip-rule="evenodd" d="M397.65 0.256056C385.387 0.256056 376.024 4.60901 368.46 12.3955C357.565 23.6387 357.855 37.5006 357.855 56.6816C357.855 75.8625 357.565 89.7594 368.46 100.968C376.024 108.777 385.387 113.142 397.65 113.142C409.914 113.142 419.126 108.777 426.691 100.968C437.573 89.7594 437.422 75.8741 437.422 56.6816C437.422 37.489 437.573 23.6503 426.691 12.3955C419.126 4.60901 409.902 0.256056 397.65 0.256056ZM411.109 87.8739C408.081 91.4587 403.394 93.7864 397.65 93.7864C391.907 93.7864 387.069 91.4587 384.03 87.8739C379.934 83.2067 378.878 78.0506 378.878 56.6816C378.878 35.3125 379.934 30.1914 384.03 25.5009C387.058 21.9161 391.896 19.5767 397.65 19.5767C403.405 19.5767 408.081 21.9161 411.109 25.5009C415.204 30.1797 416.399 35.3125 416.399 56.6816C416.399 78.0506 415.193 83.2067 411.109 87.8739ZM710.652 110.989C710.652 110.989 701.312 85.1969 691.915 59.2538C682.528 33.3106 673.084 7.22777 672.887 6.6691C671.437 2.6304 666.877 0.686696 662.376 0.686696C657.874 0.686696 653.326 2.60712 651.539 6.85533C651.052 8.0425 614.065 110.977 614.065 110.989L613.716 111.966H626.931C632.616 111.838 636.062 106.869 638.104 101.107L646.597 77.9691H670.729L664.302 62.5476H652.027L661.842 32.7287L685.151 99.3033C688.202 108.498 690.58 111.966 700.744 111.966H711L710.64 110.989H710.652ZM323.722 15.922V72.7433L278.741 0.186223H275.62C266.106 0.0581946 257.973 3.53823 257.648 13.2335V112.455C267.545 112.292 278.578 108.219 278.741 96.8126V40.1659L323.722 112.525V112.548H326.843C336.357 112.688 344.49 109.196 344.815 99.5011V0.267695C334.918 0.43064 323.896 4.50426 323.722 15.922ZM495.247 46.9398L482.601 45.0775C478.215 44.4607 474.758 42.7498 472.646 40.7362C470.384 38.5481 469.479 35.5918 469.479 32.7985C469.479 27.2351 472.38 22.37 478.285 20.1237C478.285 20.1237 478.355 20.0888 478.459 20.0539C480.165 19.4254 482.137 19.0064 484.376 18.8783C491.407 18.1102 503.636 18.727 515.795 28.7481C520.064 21.8113 521.874 13.024 514.6 7.33252V7.3558C514.6 7.3558 514.542 7.30924 514.518 7.28597C506.849 2.17648 497.962 0 486.673 0C463.481 0 449.303 13.8503 449.303 33.5783C449.303 42.9127 451.867 50.059 456.995 55.3314C461.81 60.1732 468.597 63.1179 477.798 64.5262L490.757 66.3768C495.735 67.1449 498.136 68.2506 500.248 70.2642C502.499 72.4407 503.554 75.7112 503.554 79.6102C503.554 88.4675 496.941 93.2743 484.562 93.2743C474.63 93.2743 465.442 90.9349 458.654 83.9515H458.608L445.091 97.9299C455.638 108.987 467.994 112.548 484.272 112.548C506.745 112.548 524.067 100.421 524.067 78.9701C524.067 69.1701 521.503 61.0927 515.771 55.5177C511.247 51.1531 505.063 48.3597 495.271 46.9514M582.75 46.9514L570.093 45.0892C565.73 44.4723 562.261 42.7614 560.161 40.7479C557.899 38.5597 556.994 35.6035 556.994 32.8101C556.994 27.2467 559.883 22.3816 565.788 20.1353H565.777L565.939 20.0655C567.668 19.437 569.64 19.018 571.856 18.89C578.922 18.1218 591.127 18.7387 603.286 28.7598C607.556 21.823 609.354 13.0356 602.103 7.34416L602.08 7.36744C602.08 7.36744 602.033 7.32088 602.01 7.2976C594.353 2.18812 585.442 0 574.176 0C550.984 0 536.795 13.8503 536.795 33.5783C536.795 42.9127 539.347 50.059 544.475 55.3314C549.302 60.1732 556.077 63.1179 565.278 64.5262L578.249 66.3768C583.226 67.1449 585.628 68.2506 587.739 70.2642C590.002 72.4407 591.046 75.7112 591.046 79.6102C591.046 88.4675 584.421 93.2743 572.065 93.2743C562.11 93.2743 552.921 90.9349 546.146 83.9515H546.111L532.571 97.9299C543.129 108.987 555.497 112.548 571.763 112.548C594.225 112.548 611.558 100.421 611.558 78.9701C611.558 69.1701 609.006 61.0927 603.263 55.5177C598.727 51.1531 592.554 48.3597 582.762 46.9514" fill="#9DC11E"/>
<path d="M282.186 166.716C279.843 170.51 275.364 172 271.245 172C264.377 172 258.866 169.009 257.462 161.176L261.79 160.431C262.335 163.678 263.576 165.622 265.92 166.669C267.51 167.368 269.006 167.67 271.245 167.67C274.076 167.67 277.07 166.728 278.462 164.481C279.112 163.48 279.355 162.479 279.355 161.443C279.355 159.092 278.207 157.754 276.026 156.695C275.376 156.404 273.74 155.752 269.61 154.798C264.296 153.541 262.451 152.4 261.36 151.399C259.713 149.851 258.878 147.803 258.878 145.463C258.878 142.868 260.015 140.575 262.057 138.829C264.052 137.13 266.79 136.385 270.271 136.385C275.097 136.385 279.518 137.933 281.954 142.321C282.209 142.716 282.36 143.124 282.952 144.264L278.972 146.115C277.882 143.822 277.232 142.763 275.689 141.867C274.494 141.215 272.812 140.726 270.271 140.726C267.73 140.726 265.943 141.227 264.899 142.076C263.797 143.031 263.252 144.171 263.252 145.475C263.252 146.778 263.75 147.873 264.748 148.571C266.036 149.467 269.122 150.27 270.665 150.619C274.134 151.469 276.582 152.167 277.975 152.819C281.548 154.565 283.741 157.358 283.741 161.455C283.741 163.352 283.242 165.04 282.198 166.739" fill="#00305C"/>
<path d="M329.871 171.453V136.629H352.449V140.924H334.199V151.19H350.163V155.484H334.199V167.158H352.449V171.453H329.871Z" fill="#00305C"/>
<path d="M423.419 171.453H419.486V167.763C417.304 170.51 414.52 171.907 411.179 171.907C406.457 171.907 402.732 169.858 400.133 165.913C398.091 162.829 397.349 159.43 397.349 154.041C397.349 148.652 398.091 145.265 400.133 142.169C402.616 138.329 406.654 136.175 411.376 136.175C416.098 136.175 418.836 137.723 422.815 142.46L419.474 145.207C416.191 141.366 414.45 140.517 411.364 140.517C408.081 140.517 405.494 141.867 403.8 144.509C402.315 146.755 401.711 149.304 401.711 154.041C401.711 158.778 402.315 161.327 403.8 163.573C405.54 166.274 407.976 167.566 411.155 167.566C413.592 167.566 415.738 166.367 417.223 163.969C418.465 162.025 418.917 159.581 419.022 156.683H410.413V152.4H423.442L423.396 171.453H423.419Z" fill="#00305C"/>
<path d="M493.786 166.413C491.651 169.905 487.718 171.849 483.088 171.907C478.471 171.907 474.538 169.951 472.449 166.413C470.558 163.329 470.314 159.476 470.314 156.334V136.629H474.688V156.334C474.688 159.127 474.886 162.072 476.174 164.214C477.415 166.262 479.898 167.566 483.088 167.566C486.279 167.566 488.762 166.262 490.003 164.214C491.303 162.072 491.488 159.127 491.488 156.334V136.629H495.874V156.334C495.874 159.476 495.619 163.317 493.786 166.413Z" fill="#00305C"/>
<path d="M563.711 171.453C563.711 171.453 559.836 165.075 556.251 159.232C555.648 158.243 555.103 157.242 554.256 156.59C553.652 156.136 552.968 155.845 552.017 155.845H547.643V171.453H543.269V136.629H555.451C557.678 136.629 560.474 136.769 562.76 138.224C565.394 139.818 566.786 142.81 566.832 146.255C566.832 149.653 565.394 152.644 562.76 154.239C561.611 154.984 560.324 155.333 559.082 155.589C559.43 156.09 559.732 156.532 559.976 156.986C564.048 163.666 568.782 171.453 568.782 171.453H563.711ZM560.428 141.867C559.187 141.075 557.295 140.924 555.404 140.924H547.643V151.55H555.451C557.284 151.55 559.175 151.399 560.416 150.608C561.669 149.863 562.458 148.373 562.458 146.266C562.458 144.16 561.669 142.623 560.416 141.878" fill="#00305C"/>
<path d="M637.06 165.913C634.577 169.754 630.493 171.907 625.771 171.907C621.049 171.907 617.011 169.765 614.482 165.913C612.44 162.829 611.709 159.43 611.709 154.041C611.709 148.652 612.452 145.265 614.482 142.169C617.023 138.329 621.049 136.175 625.771 136.175C630.493 136.175 634.577 138.317 637.06 142.169C639.102 145.265 639.844 148.652 639.844 154.041C639.844 159.43 639.09 162.829 637.06 165.913ZM633.382 144.509C631.7 141.867 629.054 140.517 625.771 140.517C622.488 140.517 619.854 141.867 618.16 144.509C616.663 146.755 616.072 149.304 616.072 154.041C616.072 158.778 616.675 161.327 618.16 163.573C619.854 166.215 622.476 167.566 625.771 167.566C629.066 167.566 631.688 166.215 633.382 163.573C634.879 161.327 635.47 158.79 635.47 154.041C635.47 149.292 634.867 146.755 633.382 144.509Z" fill="#00305C"/>
<path d="M709.225 166.716C706.893 170.51 702.403 172 698.284 172C691.416 172 685.893 169.009 684.501 161.176L688.828 160.431C689.374 163.678 690.615 165.622 692.959 166.669C694.548 167.368 696.045 167.67 698.284 167.67C701.115 167.67 704.097 166.728 705.489 164.481C706.139 163.48 706.382 162.479 706.382 161.443C706.382 159.092 705.245 157.754 703.052 156.695C702.403 156.404 700.767 155.752 696.637 154.798C691.311 153.541 689.478 152.4 688.376 151.399C686.74 149.851 685.881 147.803 685.881 145.463C685.881 142.868 687.03 140.575 689.072 138.829C691.068 137.13 693.794 136.385 697.275 136.385C702.101 136.385 706.522 137.933 708.97 142.321C709.213 142.716 709.364 143.124 709.956 144.264L705.976 146.115C704.874 143.822 704.236 142.763 702.693 141.867C701.498 141.215 699.816 140.726 697.275 140.726C694.734 140.726 692.947 141.227 691.903 142.076C690.812 143.031 690.255 144.171 690.255 145.475C690.255 146.778 690.754 147.873 691.752 148.571C693.051 149.467 696.126 150.27 697.669 150.619C701.15 151.469 703.586 152.167 704.978 152.819C708.552 154.565 710.745 157.358 710.745 161.455C710.745 163.352 710.246 165.04 709.202 166.739" fill="#00305C"/>
<path d="M217.481 0.279297H214.186V171.395H217.481V0.279297Z" fill="#00305C"/>
<path fill-rule="evenodd" clip-rule="evenodd" d="M172.813 0.314209H20.3153C9.09605 0.314209 0 9.43912 0 20.6823V170.976H152.498C163.717 170.976 172.813 161.851 172.813 150.596V0.314209Z" fill="#1A3357"/>
</g>
</g>
<g filter="url(#filter1_d_7_19)">
<mask id="mask1_7_19" style="mask-type:luminance" maskUnits="userSpaceOnUse" x="0" y="0" width="173" height="171">
<path d="M20.3269 0.314209C9.10764 0.314209 0.0115967 9.43912 0.0115967 20.694V170.976H152.51C163.729 170.976 172.825 161.851 172.825 150.596V0.314209H20.3269Z" fill="white"/>
</mask>
<g mask="url(#mask1_7_19)">
<path d="M172.813 0.314209H0V170.976H172.813V0.314209Z" fill="url(#paint0_radial_7_19)"/>
</g>
</g>
<g filter="url(#filter2_d_7_19)">
<mask id="mask2_7_19" style="mask-type:luminance" maskUnits="userSpaceOnUse" x="5" y="4" width="162" height="163">
<path d="M5.85901 85.6392C5.85901 130.263 41.9299 166.437 86.4008 166.437C130.872 166.437 166.943 130.263 166.943 85.6392C166.943 41.0155 130.872 4.85339 86.4008 4.85339C41.9299 4.85339 5.85901 41.0155 5.85901 85.6392Z" fill="white"/>
</mask>
<g mask="url(#mask2_7_19)">
<path d="M166.943 4.85339H5.85901V166.437H166.943V4.85339Z" fill="url(#paint1_radial_7_19)"/>
</g>
</g>
<g filter="url(#filter3_d_7_19)">
<mask id="mask3_7_19" style="mask-type:luminance" maskUnits="userSpaceOnUse" x="0" y="0" width="711" height="172">
<path d="M711 0H0V172H711V0Z" fill="white"/>
</mask>
<g mask="url(#mask3_7_19)">
<path fill-rule="evenodd" clip-rule="evenodd" d="M66.0507 56.4837C65.4242 56.1811 64.7977 55.5293 64.4264 54.796C63.974 53.8882 63.8231 52.9571 64.0668 52.2704C64.3104 51.6768 64.7745 51.1996 65.5054 50.7806C66.8165 50.0241 67.7794 50.1172 68.7656 51.0948C69.1485 51.4324 69.4966 51.9328 69.717 52.4333C70.1463 53.3412 70.2275 54.3188 69.949 55.0055C69.6706 55.5875 69.1833 56.0298 68.3596 56.4255C67.4894 56.8445 66.7005 56.8328 66.0507 56.4837ZM57.1403 60.4991C56.3978 61.3837 54.9359 62.1169 52.4995 63.2575C58.4166 61.2091 58.7298 61.1625 61.2359 66.3186C60.8414 65.1197 60.2265 62.7687 60.7602 61.4884C61.0618 60.7784 61.6419 60.1732 62.4193 59.859C63.185 59.5447 64.0204 59.568 64.7397 59.8706C65.4474 60.1732 66.0623 60.7552 66.3756 61.535C66.6889 62.3148 66.654 63.1528 66.3524 63.8744C66.0507 64.5844 65.4474 65.143 64.6933 65.5038C63.011 66.3302 61.9784 66.8307 61.6303 66.982C67.3154 65.0266 68.0579 65.434 70.7032 71.1603C72.2695 75.7461 72.7916 77.5152 70.0999 78.6558C67.3502 79.8197 66.5032 78.0389 64.4148 73.523C66.5496 79.7731 66.3988 80.1456 60.4353 82.9389C65.1342 81.3095 67.0601 80.6926 68.0811 83.5209C69.0557 86.1978 67.617 87.1639 63.4287 89.1774C65.5286 95.2762 65.3314 95.6486 59.3911 98.4303C65.575 96.2888 65.5751 96.2306 68.3131 102.132C74.0678 100.153 74.5435 100.362 77.212 106.1C83.013 104.122 83.8484 104.646 86.5517 110.5C84.9506 105.798 84.3357 103.959 87.1086 102.853C89.8699 101.736 90.7168 103.47 92.8052 107.974C91.1925 103.295 90.5428 101.422 93.3157 100.351C96.0422 99.2916 96.5759 100.618 98.6178 105.03C104.361 103.051 104.871 103.435 107.493 108.998C111.891 107.497 113.875 107.416 115.058 110.023C116.311 112.77 114.571 113.759 109.999 115.9C114.768 114.236 116.578 113.782 117.703 116.587C118.84 119.392 117.216 120.335 112.645 122.465C117.413 120.824 119.212 120.346 120.349 123.151C121.486 125.956 119.873 126.888 115.29 129.029C120.035 127.388 121.834 126.899 122.994 129.681C124.154 132.486 122.541 133.464 117.947 135.605C124.003 133.51 124.235 133.498 126.881 139.027C131.266 137.525 133.215 137.386 134.399 139.981C135.652 142.74 133.911 143.706 129.329 145.859C134.085 144.218 135.884 143.717 137.032 146.522C137.438 147.488 137.485 148.059 137.206 148.722C137.717 148.315 138.204 147.896 138.703 147.465C138.227 147.139 137.903 146.86 137.659 146.29C137.032 144.718 137.787 142.949 139.341 142.309C140.78 141.727 142.323 142.135 143.077 143.45L143.669 142.856C143.588 142.286 143.727 141.913 143.936 141.401C144.237 140.691 144.817 140.086 145.595 139.772C146.07 139.586 146.291 139.492 146.79 139.539C147.683 138.538 148.553 137.491 149.389 136.455C149.389 136.455 149.307 136.42 149.18 136.362C148.472 136.036 147.857 135.477 147.556 134.697C147.242 133.917 147.265 133.079 147.567 132.358C147.869 131.636 148.449 131.031 149.226 130.728C150.004 130.402 150.839 130.437 151.558 130.728C152.15 130.973 152.452 131.287 152.823 131.857C153.008 131.59 153.333 131.101 153.519 130.821C153.438 129.425 153.658 129.169 155.178 128.226C155.329 127.97 155.573 127.586 155.723 127.33C154.598 127.574 153.635 127.656 152.823 127.307C152.104 127.004 151.5 126.422 151.187 125.642C150.874 124.862 150.909 124.024 151.199 123.314C151.5 122.593 152.08 121.988 152.858 121.673C153.635 121.371 154.47 121.394 155.19 121.697C155.909 121.999 156.454 122.604 156.826 123.361L157.359 124.467L157.58 124.083C156.698 120.905 157.243 119.881 160.411 118.228C157.023 119.299 155.828 119.183 154.865 116.808C153.855 114.306 154.934 113.13 158.566 111.291C157.348 111.675 155.062 112.269 153.809 111.745C153.09 111.443 152.486 110.861 152.185 110.081C151.871 109.313 151.906 108.475 152.196 107.741C152.51 107.032 153.078 106.426 153.855 106.112C154.633 105.809 155.468 105.833 156.176 106.135C156.895 106.438 157.44 107.032 157.8 107.8L159.134 110.558C157.197 104.832 157.719 104.552 163.52 101.841C158.74 103.493 156.93 103.959 155.805 101.142C154.679 98.3372 156.303 97.4061 160.886 95.2645C156.106 96.9173 154.169 97.4294 153.159 94.5779C152.254 91.994 153.473 90.9814 157.301 89.0959C156.245 89.4567 153.577 90.2482 152.208 89.6662C151.5 89.352 150.885 88.7817 150.584 87.9902C150.27 87.2221 150.305 86.3841 150.607 85.6624C150.909 84.9525 151.489 84.3356 152.266 84.033C153.043 83.7188 153.879 83.7537 154.586 84.0563C155.294 84.3589 155.851 84.9641 156.211 85.7206C157.116 87.5829 157.626 88.6653 157.812 88.8515C155.851 83.1135 156.048 82.5781 161.374 79.8895C161.084 80.0059 157.522 81.3211 155.839 80.6112C155.12 80.3085 154.517 79.7266 154.215 78.9468C153.902 78.167 153.925 77.329 154.215 76.619C154.528 75.909 155.108 75.2922 155.874 74.9779C156.652 74.6753 157.487 74.6986 158.206 75.0012C158.914 75.3038 159.471 75.909 159.831 76.6656C160.631 78.3066 161.118 79.3425 161.304 79.715C159.796 75.3154 159.378 73.5929 162.023 72.4639C164.263 71.5095 165.028 72.5337 166.455 75.3736C166.154 73.0691 165.759 70.7995 165.272 68.5416C164.088 67.9713 163.508 66.8772 162.87 65.5271C163.091 66.2487 163.334 67.2264 163.416 68.1459C163.543 68.786 163.474 69.4261 163.23 69.9965C162.928 70.7064 162.348 71.3233 161.571 71.6259C160.793 71.9402 159.958 71.9052 159.25 71.6026C158.694 71.3699 158.218 70.9625 157.87 70.4387C157.545 70.043 157.243 69.5891 156.988 69.1468C157.092 69.624 157.185 70.1361 157.232 70.6366C157.359 71.2651 157.29 71.9169 157.046 72.4872C156.744 73.1972 156.164 73.814 155.387 74.1166C154.61 74.4309 153.774 74.4076 153.055 74.0934C152.51 73.8606 152.022 73.4532 151.686 72.9411C151.315 72.4872 150.967 71.9518 150.676 71.4513C150.827 72.0333 150.955 72.6967 151.013 73.3252C151.129 73.9421 151.059 74.5589 150.827 75.1176C150.514 75.8276 149.946 76.4328 149.168 76.7587C148.391 77.0729 147.556 77.038 146.836 76.747C146.268 76.491 145.769 76.0836 145.421 75.5366C145.096 75.1176 144.783 74.652 144.516 74.2097C144.771 75.3504 144.922 76.6656 144.574 77.5036C144.272 78.2135 143.692 78.8188 142.915 79.133C142.137 79.4473 141.302 79.424 140.594 79.1097C139.887 78.8071 139.272 78.2252 138.97 77.4454C138.657 76.6656 138.68 75.8276 138.982 75.1176C139.283 74.396 139.887 73.8489 140.641 73.4765L143.46 72.1147C143.054 72.1846 141.314 72.8131 139.759 72.9527C139.144 73.0808 138.529 72.9993 137.984 72.7782C137.276 72.4872 136.673 71.9169 136.371 71.1487C136.058 70.3805 136.093 69.5658 136.406 68.8558C136.65 68.2972 137.067 67.7967 137.613 67.4592C138.982 66.3651 140.908 65.5388 140.908 65.5388L141.348 65.3642C141.348 65.3642 142.926 64.7473 144.504 64.5029C145.212 64.2934 145.943 64.3399 146.581 64.6193C147.149 64.8637 147.648 65.2711 147.996 65.8297C148.368 66.2953 148.693 66.8074 148.983 67.2962C148.843 66.7143 148.704 66.0741 148.646 65.4456C148.518 64.8171 148.6 64.177 148.832 63.6067C149.133 62.8851 149.702 62.2915 150.491 61.9656C151.257 61.6514 152.092 61.6863 152.811 61.9889C153.368 62.2217 153.844 62.629 154.18 63.1528C154.505 63.5485 154.807 63.9908 155.074 64.4331C154.969 63.9559 154.876 63.4437 154.83 62.9549C154.691 62.3264 154.772 61.6746 155.016 61.1043C155.317 60.3943 155.886 59.7775 156.675 59.4749C157.452 59.1606 158.287 59.1839 158.995 59.4981C159.552 59.7309 160.028 60.1267 160.376 60.6504C160.979 61.3837 161.49 62.3031 161.838 62.9898C161.223 61.1043 160.944 59.5098 162.174 57.9385C162 57.4264 161.803 56.9143 161.594 56.4022C160.086 56.5884 159.169 55.8202 158.647 54.3421C158.09 52.8058 158.287 51.735 159.25 50.9435C159.065 50.5478 158.868 50.1637 158.67 49.768C158.276 49.7447 158.067 49.6051 157.777 49.4887C157.058 49.1861 156.454 48.6041 156.141 47.8243C155.828 47.0445 155.897 46.2298 156.153 45.4849C156.199 45.3569 156.234 45.2521 156.234 45.2521C155.805 44.5072 155.352 43.739 154.888 43.0174C154.18 42.6799 153.786 42.1562 153.496 41.4345C153.368 41.1087 153.345 40.969 153.333 40.6315C152.44 39.3163 151.431 37.873 150.456 36.616C150.421 36.9536 150.386 37.0816 150.259 37.3842C149.957 38.0942 149.377 38.6994 148.6 39.0136C147.822 39.3395 146.999 39.3046 146.279 39.0136C145.374 38.6296 144.516 37.4191 143.889 36.3483C144.179 37.5471 144.4 39.0253 144.017 39.9215C143.715 40.6431 143.135 41.2483 142.358 41.5626C141.58 41.8652 140.745 41.8419 140.037 41.5393C139.318 41.2367 138.715 40.6547 138.401 39.8749C138.088 39.0951 138.123 38.2571 138.425 37.5355C138.726 36.8255 139.33 36.2669 140.084 35.9061C141.534 35.1961 144.806 33.8692 146.337 33.3688C146.859 33.1942 147.196 33.1127 147.706 33.1709C147.335 32.7286 147.033 32.4144 146.651 31.9721C145.688 33.008 144.295 33.6947 142.868 34.1719C139.399 35.359 137.125 35.9642 134.55 30.75C134.886 31.7626 135.733 34.521 135.141 35.9293C134.84 36.6393 134.26 37.2562 133.482 37.5704C132.716 37.8847 131.881 37.8498 131.162 37.5471C130.454 37.2445 129.851 36.6626 129.537 35.8828C129.224 35.103 129.259 34.2766 129.561 33.5434C129.862 32.8334 130.466 32.2747 131.22 31.9139C133.111 30.9944 134.178 30.494 134.341 30.2845C128.934 32.1467 127.878 32.0419 125.465 27.3165C126.73 31.0992 126.939 32.6122 124.607 33.6015C122.228 34.6141 121.149 33.1825 119.304 29.6327C120.557 33.4153 120.708 35.1379 118.365 36.1272C115.986 37.1281 115.023 36.3483 113.178 32.7985C114.443 36.616 114.432 37.6635 112.076 38.6878C109.686 39.712 108.874 39.1533 107.006 35.5452C108.259 39.3163 108.12 40.2125 105.776 41.2134C103.41 42.2143 102.667 41.8535 100.834 38.3153C102.493 43.3433 99.8013 43.9485 96.5759 45.2987C94.093 46.3345 91.6682 46.8583 89.5914 44.9495C89.2201 44.5421 88.8489 44.0184 88.5588 43.4248C87.8975 42.063 87.7467 40.6897 88.1527 39.9448C88.408 39.4792 88.8605 39.1068 89.5218 38.7576C91.819 37.5821 93.0024 38.9322 95.0792 42.3424C93.5709 38.6528 93.2925 36.9536 95.5665 35.7897C97.8637 34.6258 98.7339 34.8935 100.822 38.3153C99.2908 34.6025 99.3836 33.9856 101.669 32.8101C103.978 31.6113 104.895 32.1001 106.995 35.5569C105.486 31.8906 105.509 31.0061 107.772 29.8538C110.058 28.6899 111.102 29.4115 113.167 32.8101C111.16 27.9101 113.55 26.6997 116.659 25.1401C119.826 23.5572 122.727 22.7773 125.453 27.3165C123.435 22.4165 125.662 20.7755 128.795 19.2042C129.549 18.8201 130.176 18.5408 130.906 18.3313C128.319 16.6204 125.732 15.1189 122.971 13.7106C122.727 13.9783 122.507 14.1296 122.159 14.2926C120.65 15.0258 118.829 14.3973 118.086 12.8843C117.819 12.3372 117.68 11.8484 117.761 11.2897C116.59 10.8009 115.429 10.3353 114.234 9.9047C113.921 10.1608 113.712 10.347 113.364 10.5216C111.856 11.2548 110.034 10.6263 109.292 9.11325C109.141 8.799 109.002 8.53131 108.979 8.19378C107.505 7.76314 105.939 7.35578 104.43 7.01825C104.43 7.01825 104.291 7.11136 104.187 7.15791C102.818 7.83297 101.228 7.42561 100.393 6.20352C100.103 6.15697 99.8129 6.11041 99.5344 6.06386C100.277 7.61183 99.6272 9.39259 98.1306 10.1258C96.6107 10.8707 94.8008 10.2422 94.0582 8.71753C93.5129 7.58855 93.7102 6.29663 94.4875 5.40044C93.1533 5.27241 91.8422 5.1793 90.4964 5.10946C90.2295 5.81944 89.719 6.42466 88.9881 6.77383C87.4798 7.50708 85.6583 6.87858 84.9158 5.37716C84.8694 5.26077 84.7533 5.05127 84.7533 5.05127H83.9296C83.9296 5.05127 84.208 5.44699 84.3241 5.66813C85.055 7.18119 84.4285 9.0085 82.9202 9.75339C81.4235 10.4866 79.5904 9.85814 78.8595 8.35672C78.3838 7.36741 78.4882 6.25008 79.0219 5.3888C77.3744 5.55174 75.7269 5.7496 74.1142 6.00566C72.8032 7.14628 71.0396 8.08903 71.0396 8.08903L70.622 8.29853C70.622 8.29853 69.0905 9.02014 67.5242 9.36931C66.8397 9.63701 66.1087 9.637 65.4474 9.40423C64.8673 9.20636 64.3336 8.78736 63.9508 8.26361L63.2546 8.47311L63.3358 8.69425C63.5099 9.31111 63.4635 9.97453 63.2662 10.5565C63.0226 11.3014 62.4889 11.9415 61.7348 12.3023C60.9806 12.6748 60.1453 12.698 59.4143 12.442C58.8458 12.2441 58.405 11.8833 57.9757 11.3945C57.7552 11.1035 57.5348 10.8009 57.3376 10.5099L57.1055 10.603C57.1867 10.9289 57.2563 11.2432 57.326 11.6273C57.4652 12.3489 57.4768 12.8959 57.2795 13.4778C57.0243 14.2111 56.5022 14.8629 55.7365 15.2237C54.9939 15.5961 54.1586 15.6194 53.416 15.3634C52.8475 15.1655 52.3487 14.828 51.9542 14.3275C51.6873 13.9783 51.3741 13.5942 51.1652 13.2334L50.7824 13.4197C51.3393 15.7824 50.5735 17.9938 46.362 20.3332C51.0144 18.3429 52.9056 17.6911 54.1122 20.4845C55.1564 22.8705 54.147 23.9878 50.8636 25.9548C52.0934 25.4892 54.1354 24.8607 55.3188 25.2564C56.0497 25.5125 56.6994 26.0479 57.0591 26.8161C57.4304 27.5609 57.4536 28.3989 57.2099 29.1322C56.9547 29.8655 56.421 30.5172 55.6669 30.878C54.9127 31.2505 54.089 31.2738 53.3464 31.0293C52.6155 30.7733 52.0122 30.203 51.6061 29.4697C50.6663 27.8403 50.1095 26.8393 49.889 26.5134C51.6989 30.8198 52.2906 32.6006 49.7266 33.8576C47.1625 35.103 46.1415 33.555 43.8211 29.4348C39.5399 31.2388 37.6024 31.7393 36.2449 29.2253C35.572 27.9799 35.3052 27.4446 35.3168 27.4446C35.3284 27.4446 35.6996 28.1313 36.2449 29.2253C37.2543 31.297 36.0361 32.8334 33.1356 34.5443L33.2516 34.7771C36.3494 33.555 38.0085 33.6015 39.0062 35.65C40.004 37.6984 39.0062 39.0369 36.1521 40.7362L36.2565 40.969C39.3891 39.7353 41.0714 39.8517 42.0692 41.9234C43.0786 44.0067 42.1388 45.3918 39.2383 47.1143L39.3543 47.3471C42.4753 46.1134 44.1576 46.2065 45.1553 48.2782C46.1299 50.3267 45.2482 51.735 42.4405 53.3994L42.6029 53.6321C46.6868 52.0609 46.9073 52.5846 49.6338 57.5195C52.0586 56.4953 53.6365 55.9948 54.8895 56.2043C55.6088 56.3324 56.3978 56.9492 56.8967 57.8687C57.384 58.7882 57.4536 59.7775 57.1403 60.4525M74.6479 147.314C74.6479 147.314 70.9932 149.106 69.1949 148.524C68.464 148.28 67.8143 147.768 67.4314 147.011C67.0485 146.266 67.0137 145.428 67.2574 144.683C67.501 143.95 68.0231 143.287 68.7656 142.914C69.5082 142.53 70.3435 142.484 71.086 142.716C71.8286 142.961 72.4319 143.52 72.8612 144.241C74.0678 146.266 74.6595 147.314 74.6595 147.314M64.0088 156.648C64.7629 158.15 64.1828 159.977 62.6745 160.745C61.1779 161.513 59.3447 160.908 58.579 159.407C57.8248 157.905 58.4166 156.066 59.9132 155.31C61.3983 154.542 63.243 155.135 63.9972 156.648M70.0187 153.576C70.7728 155.065 70.1811 156.916 68.6844 157.672C67.1877 158.441 65.3546 157.835 64.6005 156.334C63.8463 154.844 64.4264 153.005 65.9347 152.225C67.4198 151.469 69.2645 152.074 70.0303 153.564M51.6409 147.197C52.4067 148.687 51.815 150.526 50.3183 151.294C48.8216 152.063 46.9885 151.469 46.2227 149.968C45.4686 148.466 46.0603 146.627 47.557 145.859C49.0537 145.102 50.8868 145.696 51.6409 147.197ZM57.6624 144.113C58.4166 145.615 57.8248 147.453 56.3282 148.222C54.8431 148.99 52.9984 148.396 52.2326 146.883C51.4785 145.382 52.0702 143.554 53.5669 142.775C55.0635 142.018 56.8967 142.612 57.6624 144.113ZM63.6723 141.04C64.4264 142.53 63.8347 144.381 62.3381 145.149C60.8414 145.906 59.0083 145.312 58.2425 143.811C57.4884 142.309 58.0801 140.47 59.5768 139.702C61.0734 138.945 62.9066 139.539 63.6723 141.04ZM42.4521 144.008C43.2062 145.498 42.6145 147.337 41.1178 148.105C39.6211 148.862 37.788 148.268 37.0223 146.778C36.2681 145.277 36.8598 143.426 38.3565 142.67C39.8532 141.913 41.6863 142.495 42.4521 144.008ZM48.4619 140.936C49.2161 142.437 48.6244 144.276 47.1277 145.033C45.631 145.801 43.7979 145.196 43.0438 143.706C42.278 142.204 42.8697 140.365 44.3664 139.597C45.8515 138.829 47.6962 139.434 48.4503 140.936M54.4602 137.851C55.226 139.364 54.6343 141.192 53.126 141.96C51.6409 142.728 49.7962 142.123 49.0421 140.621C48.2763 139.132 48.8796 137.281 50.3647 136.525C51.8614 135.756 53.7061 136.362 54.4602 137.851ZM54.8083 153.448C55.574 154.949 54.9823 156.788 53.4741 157.556C51.989 158.313 50.1559 157.719 49.3901 156.218C48.6244 154.705 49.2161 152.877 50.7128 152.109C52.2094 151.341 54.0426 151.946 54.8083 153.448ZM60.8298 150.375C61.5839 151.876 60.9922 153.715 59.4955 154.472C57.9989 155.228 56.1657 154.646 55.4 153.145C54.6459 151.644 55.2376 149.805 56.7343 149.036C58.2309 148.28 60.0641 148.873 60.8298 150.375ZM66.8397 147.302C67.6054 148.804 67.0137 150.643 65.5054 151.411C64.0204 152.167 62.1872 151.562 61.4215 150.072C60.6558 148.571 61.2591 146.732 62.7557 145.964C64.2524 145.196 66.0855 145.801 66.8513 147.302M68.6844 134.814C68.6844 134.814 70.4595 138.492 69.8794 140.296C69.6358 141.04 69.1137 141.692 68.3712 142.065C67.6286 142.449 66.7933 142.495 66.0623 142.251C65.3198 142.018 64.6701 141.494 64.2872 140.738C63.9043 139.993 63.8579 139.155 64.1016 138.41C64.3452 137.677 64.8905 137.072 65.6215 136.641C67.6402 135.43 68.696 134.825 68.696 134.825M59.4839 131.648C59.4839 131.648 61.2707 135.326 60.6906 137.13C60.4585 137.863 59.9364 138.526 59.1823 138.899C58.4398 139.283 57.6044 139.33 56.8619 139.085C56.1309 138.841 55.4812 138.317 55.0984 137.56C54.7155 136.816 54.6691 135.978 54.9127 135.244C55.1564 134.499 55.7017 133.894 56.421 133.464C58.4398 132.253 59.4839 131.648 59.4839 131.648ZM38.2637 134.604C38.2637 134.604 40.062 138.282 39.4703 140.086C39.2267 140.819 38.7162 141.483 37.962 141.867C37.2195 142.251 36.3842 142.286 35.6416 142.053C34.9107 141.809 34.261 141.285 33.8781 140.54C33.4952 139.795 33.4604 138.945 33.6925 138.212C33.9361 137.467 34.4814 136.862 35.2007 136.431C37.2195 135.221 38.2637 134.604 38.2637 134.604ZM99.6272 21.9044C100.358 23.4058 99.7316 25.2448 98.235 25.9781C96.7267 26.7113 94.9052 26.0828 94.1626 24.5814C93.4317 23.0683 94.0582 21.241 95.5549 20.5078C97.0632 19.7745 98.8847 20.3914 99.6272 21.9044ZM105.695 18.9365C106.426 20.4496 105.811 22.2769 104.303 23.0101C102.795 23.7434 100.973 23.1149 100.231 21.6135C99.4996 20.1004 100.126 18.2731 101.623 17.5398C103.131 16.8066 104.953 17.4351 105.684 18.9481M96.6455 15.6776C97.388 17.179 96.7615 19.0063 95.2532 19.7512C93.745 20.4845 91.9234 19.8676 91.1925 18.3546C90.45 16.8415 91.0765 15.0142 92.5847 14.2809C94.093 13.5477 95.9146 14.1762 96.6455 15.6892M102.713 12.7213C103.444 14.2344 102.818 16.0617 101.321 16.7949C99.8129 17.5282 97.9913 16.8997 97.2488 15.3866C96.5179 13.8736 97.1444 12.0463 98.6526 11.313C100.161 10.5681 101.982 11.1966 102.713 12.7213ZM108.781 9.75339C109.524 11.2665 108.897 13.0938 107.377 13.827C105.881 14.5603 104.059 13.9318 103.317 12.4187C102.586 10.9056 103.212 9.08998 104.721 8.34508C106.229 7.61183 108.05 8.2287 108.781 9.74176M114.71 22.3816C115.441 23.8947 114.814 25.7104 113.306 26.4552C111.798 27.1885 109.976 26.56 109.245 25.0469C108.503 23.5339 109.129 21.7066 110.638 20.9733C112.146 20.2401 113.967 20.8686 114.71 22.3816ZM120.778 19.4137C121.509 20.9268 120.882 22.7541 119.374 23.499C117.866 24.2322 116.044 23.6037 115.302 22.0907C114.571 20.5776 115.197 18.7503 116.706 18.017C118.214 17.2838 120.035 17.9123 120.778 19.4137ZM126.765 16.4691C127.507 17.9938 126.881 19.8094 125.372 20.5543C123.864 21.2876 122.042 20.6591 121.3 19.146C120.569 17.6329 121.196 15.8056 122.704 15.0724C124.2 14.3391 126.034 14.956 126.765 16.4691ZM111.461 16.1315C112.192 17.6446 111.566 19.4719 110.069 20.2051C108.561 20.9384 106.739 20.3099 105.997 18.7968C105.277 17.2954 105.892 15.4565 107.401 14.7232C108.909 13.99 110.73 14.6185 111.473 16.1315M117.541 13.1636C118.272 14.6767 117.657 16.504 116.137 17.2489C114.629 17.9938 112.819 17.3536 112.076 15.8406C111.345 14.3391 111.972 12.5118 113.469 11.7669C114.977 11.022 116.798 11.6622 117.541 13.1752M49.7382 57.5428C49.7382 57.5428 48.0095 53.83 48.6244 52.0376C48.8796 51.3043 49.4017 50.6642 50.1675 50.2918C50.9216 49.9193 51.7569 49.896 52.4879 50.1521C53.2188 50.4081 53.8685 50.9319 54.2282 51.7001C54.5995 52.4566 54.6343 53.2946 54.3674 54.0279C54.1122 54.7611 53.5553 55.3547 52.8243 55.7621C50.7824 56.9492 49.7266 57.5312 49.7266 57.5312M66.2132 14.5603C66.9441 16.0733 66.3176 17.9006 64.8093 18.6455C63.301 19.3788 61.4795 18.7503 60.7486 17.2489C60.0176 15.7358 60.6442 13.9085 62.1408 13.1636C63.6491 12.4303 65.4706 13.0588 66.2132 14.5603ZM60.1453 17.5282C60.8762 19.0413 60.2497 20.8686 58.753 21.6018C57.2447 22.3467 55.4116 21.7066 54.6807 20.2051C53.9497 18.6921 54.5763 16.8648 56.0845 16.1199C57.5928 15.3866 59.4143 16.0151 60.1453 17.5282ZM93.5361 9.0085C94.2671 10.5216 93.6521 12.3489 92.1439 13.0821C90.6356 13.8154 88.8141 13.1869 88.0715 11.6738C87.3406 10.1608 87.9671 8.34508 89.4638 7.60019C90.9721 6.8553 92.7936 7.49544 93.5245 8.99686M87.4566 11.9648C88.1992 13.4662 87.5726 15.3052 86.0644 16.0384C84.5561 16.7717 82.7346 16.1548 81.992 14.6417C81.2611 13.1287 81.8876 11.3014 83.3843 10.5565C84.8926 9.82323 86.7141 10.4517 87.445 11.9648M81.3887 14.9327C82.1197 16.4458 81.4931 18.2614 79.9965 19.0063C78.4882 19.7396 76.6667 19.1111 75.9357 17.6097C75.1932 16.0966 75.8197 14.2693 77.328 13.536C78.8363 12.8028 80.6578 13.4313 81.4003 14.9327M75.3324 17.9006C76.075 19.4253 75.4368 21.241 73.9402 21.9859C72.4319 22.7192 70.6104 22.0907 69.8678 20.5776C69.1369 19.0645 69.7634 17.2372 71.2601 16.4923C72.7684 15.7591 74.5899 16.3876 75.3324 17.889M69.2645 20.8569C69.9954 22.37 69.3689 24.1973 67.8723 24.9305C66.364 25.6638 64.5425 25.0353 63.8115 23.5222C63.0806 22.0092 63.7071 20.1819 65.2038 19.4486C66.7121 18.7037 68.5336 19.3322 69.2645 20.8453M63.1966 23.8016C63.9276 25.3146 63.301 27.1419 61.7928 27.8868C60.2845 28.6201 58.463 28.0032 57.732 26.4785C57.0011 24.9771 57.6276 23.1382 59.1359 22.4049C60.6442 21.6717 62.4657 22.3002 63.1966 23.8016ZM45.0045 32.7054C45.7355 34.2184 45.0973 36.0457 43.6007 36.7906C42.0924 37.5239 40.2825 36.8954 39.5399 35.3823C38.809 33.8692 39.4355 32.0419 40.9322 31.297C42.4405 30.5638 44.262 31.1923 45.0045 32.6937M90.5196 18.2382C91.2505 19.7512 90.6356 21.5902 89.1273 22.3234C87.619 23.0567 85.7975 22.4282 85.0666 20.9151C84.3357 19.4021 84.9622 17.5747 86.4588 16.8299C87.9671 16.0966 89.7886 16.7251 90.5196 18.2265M84.4517 21.1945C85.1826 22.7075 84.5561 24.5465 83.0594 25.2797C81.5511 26.013 79.7296 25.3845 78.9987 23.883C78.2677 22.37 78.8943 20.5427 80.3909 19.7978C81.8992 19.0645 83.7207 19.693 84.4517 21.2061M78.3838 24.174C79.1147 25.6871 78.4998 27.5144 76.9915 28.2476C75.4832 28.9809 73.6733 28.364 72.9308 26.851C72.1883 25.3379 72.8148 23.5106 74.323 22.7657C75.8313 22.0325 77.6528 22.661 78.3838 24.174ZM72.3275 27.1419C73.0584 28.655 72.4319 30.4823 70.9352 31.2272C69.4269 31.9605 67.6054 31.332 66.8629 29.8305C66.132 28.3175 66.7585 26.4902 68.2551 25.7453C69.7634 25.012 71.5965 25.6405 72.3275 27.1536M66.2596 30.1215C66.9905 31.6346 66.364 33.4619 64.8673 34.2068C63.359 34.94 61.5375 34.3115 60.8066 32.7985C60.0757 31.2854 60.6906 29.4465 62.1988 28.7132C63.7071 27.9799 65.5286 28.6084 66.2596 30.1099M60.1917 33.0778C60.9226 34.5909 60.2961 36.4182 58.7878 37.1631C57.2911 37.8963 55.458 37.2794 54.7271 35.7664C53.9962 34.2533 54.6227 32.426 56.1309 31.6811C57.6276 30.9479 59.4607 31.5764 60.1917 33.0778ZM54.1238 36.0457C54.8547 37.5588 54.2282 39.3977 52.7315 40.131C51.2232 40.8642 49.4017 40.2357 48.6592 38.7227C47.9282 37.2096 48.5548 35.3823 50.063 34.6374C51.5597 33.9158 53.3928 34.5327 54.1238 36.0457ZM48.0559 39.0136C48.7868 40.5267 48.1719 42.354 46.6636 43.0873C45.1554 43.8322 43.3338 43.2037 42.5913 41.6906C41.8604 40.1775 42.4753 38.3502 43.9835 37.6053C45.4918 36.8721 47.3133 37.5006 48.0443 39.0136M93.5709 24.5465C94.3019 26.0595 93.6753 27.8868 92.1671 28.6317C90.6588 29.365 88.8489 28.7365 88.1063 27.2234C87.3754 25.7104 87.9903 23.8714 89.4986 23.1382C91.0069 22.4049 92.8284 23.0334 93.5593 24.5348M87.4914 27.5028C88.234 29.0158 87.6074 30.8431 86.0992 31.5764C84.6025 32.3096 82.781 31.6811 82.0384 30.1797C81.3075 28.6666 81.934 26.8393 83.4307 26.0944C84.939 25.3612 86.7605 25.9897 87.4914 27.5028ZM81.4235 30.4707C82.1661 31.9837 81.5279 33.811 80.0313 34.5443C78.523 35.2776 76.6899 34.649 75.9589 33.1476C75.228 31.6346 75.8545 29.7956 77.3512 29.0624C78.8595 28.3175 80.681 28.9576 81.4119 30.4707M63.2198 39.3628C63.9508 40.8759 63.3242 42.7032 61.816 43.4481C60.3077 44.1813 58.4862 43.5528 57.7552 42.0514C57.0243 40.5383 57.6392 38.711 59.1475 37.9661C60.6558 37.2329 62.4773 37.8614 63.2198 39.3745M57.1519 42.3424C57.8829 43.8554 57.2563 45.6827 55.7597 46.4276C54.2514 47.1609 52.4299 46.5324 51.6873 45.031C50.9564 43.5179 51.5829 41.6906 53.0912 40.9573C54.5995 40.2125 56.421 40.841 57.1519 42.354M51.084 45.3219C51.8266 46.835 51.2001 48.6623 49.6918 49.3956C48.1835 50.1288 46.362 49.5003 45.6194 47.9873C44.8885 46.4742 45.515 44.6469 47.0117 43.9136C48.52 43.1687 50.3415 43.8089 51.0724 45.3219M108.735 24.9305C109.466 26.4436 108.839 28.2709 107.331 29.0042C105.823 29.7374 104.001 29.1089 103.259 27.5959C102.528 26.0828 103.154 24.2555 104.651 23.5222C106.159 22.7773 107.981 23.4175 108.723 24.9305M102.655 27.8985C103.375 29.4115 102.76 31.2388 101.252 31.9721C99.7432 32.7053 97.9217 32.0885 97.1908 30.5754C96.4598 29.0624 97.0864 27.2351 98.583 26.4902C100.091 25.7569 101.913 26.3738 102.655 27.8868M96.5875 30.8548C97.3184 32.3562 96.6919 34.1835 95.1836 34.9284C93.687 35.6733 91.8654 35.0331 91.1229 33.5317C90.392 32.0187 91.0185 30.1913 92.5151 29.4465C94.0234 28.7132 95.8449 29.3417 96.5875 30.8548ZM90.5196 33.811C91.2621 35.3241 90.6356 37.1514 89.1273 37.8963C87.619 38.6412 85.7975 38.0011 85.055 36.4996C84.3241 34.9866 84.9506 33.1593 86.4472 32.4144C87.9555 31.6811 89.777 32.3096 90.5196 33.8227M66.2596 45.6944C66.9905 47.2074 66.364 49.0348 64.8557 49.7797C63.3591 50.5129 61.5259 49.8844 60.795 48.3713C60.0641 46.8699 60.6906 45.0426 62.1988 44.2977C63.6955 43.5645 65.5286 44.193 66.2712 45.706M60.2033 48.674C60.9342 50.187 60.3077 52.026 58.7994 52.7592C57.3028 53.4925 55.4696 52.864 54.7387 51.3625C54.0078 49.8495 54.6227 48.0222 56.1309 47.2889C57.6392 46.544 59.4607 47.1725 60.2033 48.6856M68.1275 10.1724C69.5198 9.36931 70.4595 8.82228 70.912 8.57786L71.2253 8.40328C71.7126 8.21706 72.6987 7.80969 74.1838 7.19283C74.9612 6.86694 75.7733 6.79711 76.5042 7.05316C77.2352 7.29758 77.8849 7.84461 78.2446 8.60114C78.6158 9.35767 78.6506 10.1957 78.3838 10.9289C78.1285 11.6622 77.5948 12.3023 76.8407 12.6748C76.0866 13.0356 75.2512 13.0705 74.5203 12.8144C73.5921 12.5002 72.6407 11.3596 71.9562 10.3237C72.3275 11.5109 72.6407 12.9541 72.3275 13.8852C72.0722 14.6301 71.5385 15.2702 70.7844 15.6427C70.0303 16.0151 69.1949 16.0384 68.464 15.7824C67.733 15.5263 67.0833 14.9909 66.7237 14.2227C66.3524 13.4778 66.3292 12.6398 66.5844 11.895C66.8397 11.1617 67.3966 10.5681 68.1275 10.1608M73.9286 37.5471C72.5363 38.3502 71.5965 38.874 71.1557 39.13L70.8424 39.3046C70.3551 39.4792 69.3689 39.8982 67.8723 40.5151C67.0949 40.8293 66.2944 40.9108 65.5518 40.6547C64.8209 40.3987 64.1828 39.8633 63.8115 39.1068C63.4403 38.3502 63.4171 37.5122 63.6723 36.7673C63.9276 36.0341 64.4496 35.3823 65.2154 35.0215C65.9695 34.649 66.8049 34.6258 67.5358 34.8702C68.4756 35.1961 69.4153 36.3367 70.1115 37.3726C69.7286 36.1854 69.4153 34.7305 69.7402 33.7994C69.9955 33.0662 70.5292 32.4144 71.2717 32.0536C72.0258 31.6811 72.8612 31.6578 73.5921 31.9139C74.323 32.17 74.9728 32.6937 75.344 33.4619C75.7153 34.2068 75.7385 35.0448 75.4832 35.778C75.228 36.5113 74.6827 37.1165 73.9402 37.5355M99.9057 70.6017C99.2792 69.0421 100.022 67.2613 101.588 66.6328C103.143 66.0043 104.918 66.7492 105.544 68.3088C106.171 69.8801 105.428 71.6492 103.862 72.2893C102.307 72.9295 100.544 72.1613 99.9057 70.6017ZM123.504 129.204C122.866 127.632 123.62 125.863 125.175 125.235C126.73 124.595 128.505 125.351 129.143 126.922C129.769 128.482 129.015 130.263 127.461 130.891C125.906 131.52 124.131 130.763 123.504 129.204ZM63.4403 89.1076C63.4403 89.1076 67.2342 87.6411 68.9861 88.386C69.6938 88.6886 70.3087 89.2705 70.6104 90.0503C70.9236 90.8301 70.8888 91.6681 70.5872 92.3781C70.2855 93.0881 69.7054 93.7049 68.9281 94.0075C68.1507 94.3334 67.3154 94.2985 66.6076 93.9959C65.8883 93.6933 65.343 93.0881 64.9717 92.3432C63.9508 90.2249 63.4403 89.1192 63.4403 89.1192M130.071 137.421C127.96 138.445 126.857 138.957 126.857 138.957C126.857 138.957 125.395 135.128 126.138 133.394C126.44 132.672 127.02 132.067 127.797 131.753C128.563 131.438 129.398 131.462 130.118 131.776C130.825 132.09 131.44 132.66 131.742 133.44C132.055 134.232 132.032 135.058 131.719 135.78C131.417 136.501 130.814 137.048 130.06 137.421M143.994 63.5951C142.555 64.2934 141.58 64.7589 141.105 64.9917L140.78 65.143C140.281 65.2943 139.272 65.6319 137.729 66.1323C136.94 66.3884 136.116 66.4117 135.408 66.1091C134.7 65.8064 134.097 65.2245 133.784 64.4447C133.471 63.6649 133.505 62.8269 133.795 62.1053C134.097 61.3953 134.677 60.7901 135.455 60.4758C136.232 60.1616 137.056 60.1965 137.775 60.4875C138.68 60.8832 139.55 62.082 140.165 63.1528C139.875 61.9423 139.654 60.4758 140.049 59.568C140.351 58.858 140.931 58.2528 141.708 57.9385C142.485 57.6243 143.321 57.6592 144.028 57.9502C144.748 58.2528 145.351 58.8347 145.653 59.6145C145.978 60.3943 145.943 61.2323 145.653 61.9423C145.351 62.6639 144.748 63.211 143.994 63.5834M123.284 38.3851C122.657 36.8255 123.412 35.0448 124.955 34.4163C126.509 33.7761 128.296 34.5327 128.911 36.1039C129.549 37.6635 128.795 39.4443 127.24 40.0728C125.686 40.7129 123.91 39.9564 123.284 38.3851ZM117.03 40.9224C116.392 39.3628 117.146 37.5821 118.713 36.9536C120.267 36.3251 122.031 37.0699 122.669 38.6412C123.296 40.2008 122.553 41.9816 120.987 42.6101C119.444 43.2386 117.668 42.4937 117.042 40.9224M110.788 43.4481C110.15 41.8885 110.904 40.1193 112.459 39.4792C114.014 38.8507 115.789 39.6072 116.415 41.1668C117.042 42.7265 116.299 44.5072 114.733 45.1474C113.178 45.7759 111.403 45.0193 110.777 43.4481M104.523 45.997C103.897 44.4257 104.639 42.6566 106.194 42.0281C107.749 41.388 109.524 42.1445 110.15 43.7158C110.777 45.2754 110.034 47.0561 108.468 47.6846C106.913 48.3131 105.138 47.5566 104.512 45.997M132.16 42.3657C131.533 40.806 132.276 39.0253 133.842 38.3968C135.397 37.7566 137.172 38.5132 137.798 40.0844C138.436 41.644 137.682 43.4248 136.116 44.0533C134.561 44.6818 132.798 43.9369 132.16 42.3657ZM125.906 44.9029C125.279 43.3433 126.034 41.5742 127.588 40.9341C129.143 40.3056 130.918 41.0621 131.545 42.6217C132.171 44.1813 131.429 45.9621 129.862 46.5906C128.296 47.2191 126.532 46.4626 125.906 44.9029ZM119.652 47.4402C119.014 45.8806 119.768 44.0999 121.323 43.4714C122.878 42.8312 124.653 43.5994 125.279 45.159C125.918 46.7186 125.163 48.4994 123.597 49.1279C122.042 49.7564 120.267 48.9998 119.641 47.4402M147.289 43.8089C146.662 42.2493 147.416 40.4685 148.971 39.84C150.526 39.2115 152.301 39.968 152.927 41.5277C153.554 43.0873 152.8 44.868 151.245 45.4965C149.69 46.1367 147.915 45.3801 147.277 43.8205M141.024 46.3578C140.397 44.7982 141.151 43.0174 142.706 42.3889C144.261 41.7604 146.036 42.517 146.662 44.0766C147.289 45.6362 146.535 47.4169 144.98 48.0454C143.425 48.6856 141.65 47.9174 141.024 46.3578ZM134.77 48.8951C134.143 47.3355 134.886 45.5547 136.452 44.9146C138.007 44.2861 139.782 45.0426 140.409 46.6022C141.035 48.1618 140.281 49.931 138.726 50.5711C137.172 51.1996 135.397 50.4431 134.77 48.8835M128.516 51.4207C127.878 49.8611 128.632 48.0804 130.199 47.4519C131.753 46.8117 133.529 47.5683 134.155 49.1395C134.782 50.6991 134.027 52.4799 132.473 53.1084C130.918 53.7369 129.143 52.9804 128.516 51.4207ZM122.263 53.958C121.636 52.3984 122.379 50.6177 123.934 49.9892C125.488 49.349 127.275 50.1055 127.902 51.6768C128.528 53.2364 127.786 55.0172 126.219 55.6457C124.665 56.2858 122.889 55.5293 122.263 53.9697M97.2372 64.1188C96.5991 62.5475 97.3532 60.7784 98.9079 60.1383C100.463 59.5098 102.238 60.2547 102.864 61.8259C103.491 63.3855 102.748 65.1779 101.194 65.7948C99.6388 66.4233 97.8637 65.6668 97.2372 64.1188ZM90.9837 66.6444C90.3571 65.0848 91.1113 63.3041 92.666 62.6756C94.2206 62.0354 95.9958 62.8036 96.6223 64.3632C97.2488 65.9228 96.4947 67.7036 94.94 68.3205C93.3853 68.9606 91.6102 68.2041 90.9837 66.6444ZM84.7301 69.1817C84.1036 67.6221 84.8461 65.8414 86.4008 65.2129C87.9555 64.5844 89.7306 65.3293 90.3571 66.9005C90.9837 68.4601 90.2295 70.2409 88.6748 70.8694C87.1202 71.4979 85.345 70.7413 84.7185 69.1817M78.4534 71.7307C77.8269 70.171 78.581 68.3787 80.1357 67.7618C81.702 67.1333 83.4655 67.8898 84.092 69.4378C84.7301 70.9974 83.976 72.7782 82.4213 73.4067C80.8666 74.0352 79.0915 73.2903 78.4534 71.7307ZM72.1998 74.2679C71.5733 72.7083 72.3275 70.9276 73.8822 70.2874C75.4368 69.6589 77.212 70.4155 77.8385 71.9751C78.465 73.5347 77.7225 75.3154 76.1562 75.9439C74.6015 76.5841 72.8264 75.8276 72.1998 74.2679ZM149.911 50.35C149.284 48.7903 150.038 47.0096 151.593 46.3811C153.148 45.7526 154.923 46.5091 155.549 48.0687C156.187 49.64 155.433 51.4091 153.879 52.0492C152.324 52.6777 150.549 51.9212 149.922 50.3616M143.669 52.8989C143.042 51.3393 143.796 49.5585 145.351 48.93C146.906 48.2899 148.669 49.0464 149.307 50.6177C149.934 52.1773 149.191 53.958 147.625 54.5865C146.07 55.215 144.295 54.4701 143.669 52.8989ZM137.415 55.4362C136.789 53.8766 137.531 52.0958 139.098 51.4673C140.652 50.8388 142.427 51.5953 143.054 53.1549C143.692 54.7146 142.926 56.4953 141.372 57.1238C139.817 57.764 138.042 56.9958 137.415 55.4362ZM131.15 57.9735C130.524 56.4138 131.278 54.6331 132.832 54.0046C134.387 53.3644 136.162 54.121 136.789 55.6806C137.415 57.2402 136.661 59.021 135.106 59.6495C133.552 60.278 131.777 59.5331 131.15 57.9735ZM124.897 60.5107C124.27 58.9511 125.013 57.1704 126.579 56.5302C128.134 55.9017 129.909 56.6583 130.535 58.2295C131.162 59.7891 130.419 61.5582 128.853 62.1867C127.31 62.8269 125.523 62.0704 124.897 60.5107ZM118.643 63.048C118.005 61.4884 118.759 59.7076 120.325 59.0791C121.88 58.439 123.655 59.1955 124.282 60.7552C124.908 62.3148 124.154 64.0955 122.599 64.724C121.045 65.3525 119.27 64.6076 118.643 63.0364M112.39 65.5737C111.751 64.0141 112.506 62.2333 114.06 61.6048C115.615 60.9763 117.39 61.7328 118.017 63.2924C118.643 64.8521 117.889 66.6212 116.334 67.2613C114.78 67.9015 113.004 67.1449 112.378 65.5737M106.113 68.111C105.486 66.5513 106.24 64.7822 107.795 64.1537C109.35 63.5136 111.125 64.2701 111.751 65.8297C112.378 67.3893 111.635 69.1701 110.069 69.7986C108.514 70.4387 106.739 69.6706 106.113 68.111ZM93.6057 73.1855C92.9676 71.6259 93.7217 69.8452 95.288 69.2167C96.8427 68.5765 98.6178 69.3447 99.2444 70.9043C99.8709 72.4639 99.1167 74.2447 97.562 74.8732C96.0074 75.5017 94.2322 74.7451 93.6057 73.1855ZM87.3522 75.7112C86.7141 74.1632 87.4682 72.3708 89.0229 71.7423C90.5776 71.1138 92.3527 71.8703 92.9792 73.4299C93.6057 74.9896 92.8516 76.7703 91.2969 77.3988C89.7422 78.039 87.9671 77.2824 87.3406 75.7112M81.0871 78.2485C80.4605 76.6888 81.2031 74.9081 82.7578 74.2796C84.3124 73.6511 86.0876 74.4076 86.7141 75.9672C87.3406 77.5268 86.5981 79.3076 85.0434 79.9361C83.4887 80.5762 81.702 79.8081 81.0871 78.2485ZM74.8335 80.7858C74.207 79.2261 74.9612 77.4454 76.5158 76.8169C78.0705 76.1767 79.834 76.9333 80.4605 78.4929C81.0987 80.0525 80.3445 81.8332 78.7898 82.4617C77.2352 83.0902 75.46 82.3454 74.8335 80.7741M68.58 83.3114C67.9535 81.7401 68.696 79.971 70.2623 79.3309C71.817 78.6907 73.5921 79.4589 74.2186 81.0185C74.8567 82.5781 74.1026 84.3589 72.5363 84.9874C70.9816 85.6159 69.2065 84.8594 68.58 83.3114ZM130.141 73.5114C129.514 71.9518 130.257 70.171 131.811 69.5425C133.366 68.9024 135.153 69.6589 135.779 71.2302C136.406 72.7898 135.663 74.5589 134.097 75.1991C132.554 75.8276 130.779 75.0827 130.141 73.5114ZM123.887 76.0487C123.249 74.4891 124.003 72.72 125.558 72.0798C127.113 71.4397 128.888 72.2079 129.514 73.7675C130.152 75.3271 129.398 77.1078 127.832 77.7363C126.277 78.3648 124.502 77.6083 123.876 76.0487M117.622 78.586C116.996 77.0264 117.738 75.2456 119.304 74.6171C120.859 73.977 122.623 74.7335 123.249 76.2931C123.887 77.8527 123.133 79.6451 121.578 80.262C120.024 80.9021 118.249 80.1456 117.622 78.586ZM111.369 81.1233C110.742 79.5637 111.496 77.7945 113.051 77.1544C114.606 76.5375 116.381 77.2824 117.007 78.842C117.645 80.4133 116.88 82.1824 115.325 82.8109C113.77 83.451 111.995 82.6829 111.369 81.1233ZM105.115 83.6605C104.489 82.1009 105.243 80.3202 106.797 79.6917C108.364 79.0632 110.127 79.8081 110.754 81.3793C111.38 82.9389 110.638 84.7197 109.071 85.3482C107.517 85.9767 105.753 85.2318 105.115 83.6605ZM98.8615 86.1978C98.235 84.6382 98.9775 82.8575 100.532 82.229C102.087 81.6005 103.874 82.357 104.5 83.9166C105.127 85.4762 104.372 87.257 102.818 87.8855C101.263 88.514 99.488 87.7691 98.8615 86.1978ZM92.6079 88.7351C91.9698 87.1755 92.724 85.3948 94.2903 84.7663C95.8449 84.1261 97.6201 84.8826 98.2466 86.4539C98.8731 88.0135 98.119 89.7943 96.5643 90.4228C95.0212 91.0629 93.2461 90.3064 92.6079 88.7468M86.3544 91.284C85.7163 89.7244 86.4704 87.9437 88.0251 87.3152C89.5798 86.6867 91.3549 87.4316 91.9814 88.9912C92.6079 90.5508 91.8654 92.3316 90.3107 92.9601C88.7561 93.6002 86.9809 92.8437 86.3544 91.2724M80.1009 93.8097C79.4744 92.2501 80.2169 90.4693 81.7832 89.8408C83.3379 89.2123 85.113 89.9572 85.7395 91.5285C86.366 93.0881 85.6119 94.8688 84.0572 95.4973C82.5025 96.1258 80.7274 95.3693 80.1009 93.8097ZM73.8474 96.347C73.2208 94.7874 73.975 93.0066 75.5297 92.3781C77.0843 91.7496 78.8595 92.5061 79.486 94.0541C80.1125 95.6137 79.3699 97.4061 77.8037 98.023C76.249 98.6631 74.4739 97.9066 73.8474 96.347ZM132.786 80.0408C132.148 78.4812 132.902 76.7005 134.468 76.072C136.023 75.4318 137.798 76.2 138.425 77.7596C139.051 79.3192 138.297 81.0884 136.742 81.7285C135.199 82.357 133.413 81.6005 132.786 80.0408ZM126.532 82.5781C125.894 81.0185 126.649 79.2378 128.203 78.6093C129.758 77.9691 131.533 78.7256 132.16 80.2969C132.798 81.8565 132.043 83.6373 130.477 84.2774C128.923 84.9059 127.147 84.1494 126.521 82.5898M120.256 85.1271C119.629 83.5674 120.383 81.7867 121.938 81.1582C123.493 80.5297 125.268 81.2862 125.894 82.8458C126.533 84.4054 125.836 86.256 124.282 86.8729C122.727 87.5014 120.882 86.6867 120.256 85.1271ZM114.06 87.7342C113.422 86.1746 114.118 84.324 115.673 83.6955C117.228 83.0553 119.003 83.8235 119.629 85.3831C120.256 86.9427 119.571 88.7817 118.017 89.4102C116.462 90.0387 114.687 89.2938 114.06 87.7342ZM107.807 90.2715C107.18 88.7118 107.934 86.9311 109.477 86.291C111.032 85.6508 112.807 86.4073 113.445 87.9786C114.072 89.5382 113.318 91.319 111.763 91.9475C110.208 92.576 108.433 91.8194 107.807 90.2598M101.495 92.7273C100.869 91.1677 101.611 89.3869 103.177 88.7468C104.732 88.1183 106.565 88.933 107.192 90.4926C107.818 92.0639 107.006 93.7748 105.451 94.4033C103.897 95.0434 102.122 94.2753 101.495 92.7273ZM95.2416 95.2529C94.6035 93.7049 95.3577 91.9242 96.9123 91.284C98.467 90.6555 100.242 91.4004 100.869 92.9717C101.507 94.5313 100.753 96.3121 99.1979 96.9406C97.6433 97.5691 95.8681 96.8125 95.2416 95.2529ZM88.9881 97.8018C88.35 96.2422 89.1041 94.4615 90.6588 93.8213C92.2135 93.1928 93.9886 93.9494 94.6151 95.509C95.2532 97.0802 94.4991 98.8493 92.9444 99.4779C91.3897 100.118 89.6146 99.3615 88.9881 97.8018ZM82.7346 100.339C82.0964 98.7795 82.8506 96.9988 84.4053 96.3703C85.9599 95.7418 87.7351 96.4866 88.3732 98.0463C88.9997 99.6059 88.2456 101.398 86.6909 102.027C85.1362 102.655 83.3611 101.91 82.7346 100.339ZM147.927 81.4957C147.3 79.9361 148.043 78.1553 149.609 77.5268C151.164 76.8983 152.939 77.6432 153.565 79.2029C154.192 80.7625 153.438 82.5432 151.883 83.1717C150.328 83.8119 148.553 83.0553 147.927 81.4957ZM141.673 84.033C141.035 82.4734 141.789 80.681 143.356 80.0641C144.91 79.424 146.685 80.1805 147.312 81.7401C147.938 83.2997 147.184 85.0805 145.63 85.7206C144.075 86.3491 142.3 85.5926 141.673 84.033ZM135.466 86.6285C134.84 85.0689 135.524 83.2299 137.09 82.5898C138.645 81.9613 140.42 82.7062 141.047 84.2774C141.685 85.837 140.989 87.676 139.434 88.3045C137.879 88.9446 136.104 88.1881 135.478 86.6285M129.224 89.1658C128.586 87.6062 129.282 85.7556 130.837 85.1271C132.392 84.4869 134.225 85.3016 134.851 86.8729C135.489 88.4325 134.735 90.2133 133.181 90.8418C131.626 91.4703 129.851 90.7137 129.224 89.1658ZM122.971 91.6914C122.344 90.1318 123.087 88.351 124.653 87.7225C126.208 87.0824 127.971 87.8389 128.609 89.3985C129.236 90.9582 128.493 92.7389 126.927 93.3791C125.372 94.0076 123.597 93.251 122.971 91.6914ZM116.717 94.2287C116.079 92.6691 116.833 90.8767 118.388 90.2598C119.943 89.6197 121.718 90.3646 122.344 91.9358C122.971 93.4954 122.217 95.2762 120.662 95.9047C119.107 96.5332 117.332 95.7767 116.706 94.2171M110.452 96.7543C109.825 95.1947 110.568 93.414 112.134 92.7855C113.689 92.157 115.452 92.9135 116.091 94.4731C116.729 96.0327 115.975 97.8135 114.408 98.442C112.854 99.0821 111.078 98.3256 110.452 96.7543ZM104.14 99.2334C103.502 97.6738 104.314 95.9513 105.869 95.3228C107.435 94.6826 109.199 95.4508 109.837 97.0104C110.464 98.5584 109.709 100.339 108.155 100.979C106.6 101.608 104.767 100.793 104.14 99.2334ZM144.377 90.5857C143.738 89.0261 144.493 87.257 146.047 86.6168C147.602 85.9883 149.319 86.6867 149.946 88.2346C150.572 89.7943 149.876 91.6449 148.321 92.2734C146.767 92.9019 144.991 92.157 144.377 90.5857ZM138.123 93.123C137.496 91.5634 138.239 89.7826 139.794 89.1541C141.348 88.514 143.124 89.2705 143.75 90.8301C144.388 92.3897 143.634 94.1705 142.079 94.8106C140.525 95.4391 138.75 94.6826 138.123 93.123ZM125.604 98.1976C124.978 96.6379 125.72 94.8572 127.287 94.2287C128.83 93.6002 130.616 94.3567 131.243 95.9164C131.869 97.476 131.127 99.2567 129.561 99.8852C128.006 100.525 126.231 99.7688 125.604 98.2092M119.351 100.746C118.724 99.1985 119.467 97.4061 121.021 96.7776C122.576 96.1375 124.363 96.894 124.978 98.4536C125.604 100.013 124.862 101.794 123.296 102.423C121.741 103.051 119.966 102.306 119.339 100.735M113.086 103.272C112.448 101.713 113.213 99.9318 114.756 99.3033C116.311 98.6748 118.098 99.4313 118.713 100.979C119.351 102.539 118.597 104.32 117.042 104.948C115.487 105.588 113.712 104.82 113.086 103.272ZM146.929 97.0337C146.302 95.4741 147.057 93.6933 148.611 93.0648C150.166 92.4247 151.941 93.1812 152.568 94.7525C153.206 96.3121 152.452 98.0928 150.885 98.7213C149.331 99.3498 147.567 98.5933 146.929 97.0337ZM140.733 99.6408C140.107 98.0812 140.849 96.3004 142.416 95.6603C143.959 95.0318 145.746 95.7883 146.372 97.3479C147.01 98.9075 146.256 100.688 144.69 101.317C143.147 101.957 141.372 101.2 140.733 99.6408ZM134.48 102.178C133.853 100.618 134.596 98.8377 136.162 98.1976C137.717 97.5691 139.492 98.3256 140.119 99.8852C140.745 101.445 139.991 103.226 138.436 103.866C136.882 104.494 135.106 103.738 134.48 102.178ZM128.226 104.715C127.588 103.156 128.342 101.375 129.909 100.735C131.463 100.106 133.239 100.851 133.865 102.411C134.492 103.982 133.679 105.693 132.125 106.333C130.57 106.962 128.853 106.263 128.226 104.715ZM121.903 107.183C121.277 105.623 122.089 103.912 123.644 103.284C125.21 102.644 126.973 103.412 127.611 104.96C128.238 106.531 127.426 108.242 125.86 108.882C124.305 109.511 122.541 108.754 121.903 107.183ZM115.65 109.72C115.023 108.16 115.766 106.38 117.32 105.74C118.875 105.123 120.65 105.879 121.288 107.439C121.915 108.998 121.161 110.779 119.606 111.408C118.051 112.036 116.276 111.28 115.65 109.72ZM149.563 103.551C148.925 101.992 149.679 100.211 151.245 99.5826C152.788 98.9425 154.575 99.7106 155.201 101.27C155.828 102.83 155.074 104.611 153.519 105.239C151.964 105.879 150.189 105.123 149.563 103.551ZM143.309 106.077C142.683 104.518 143.495 102.807 145.049 102.166C146.604 101.538 148.379 102.294 149.006 103.854C149.632 105.414 148.82 107.125 147.265 107.765C145.711 108.393 143.936 107.637 143.298 106.065M137.044 108.614C136.417 107.043 137.23 105.332 138.784 104.704C140.339 104.075 142.056 104.762 142.683 106.322C143.321 107.881 142.567 109.662 141 110.302C139.446 110.931 137.671 110.186 137.044 108.614ZM130.79 111.152C130.164 109.592 130.918 107.811 132.473 107.183C134.027 106.554 135.803 107.311 136.429 108.87C137.056 110.418 136.301 112.199 134.747 112.839C133.192 113.468 131.417 112.723 130.79 111.152ZM124.537 113.689C123.91 112.129 124.665 110.349 126.219 109.72C127.774 109.08 129.549 109.836 130.176 111.396C130.802 112.956 130.06 114.736 128.493 115.365C126.95 116.005 125.163 115.249 124.537 113.689ZM118.283 116.226C117.657 114.667 118.411 112.898 119.966 112.257C121.532 111.617 123.296 112.374 123.934 113.945C124.56 115.505 123.806 117.285 122.251 117.914C120.697 118.542 118.922 117.786 118.295 116.226M145.954 112.607C145.328 111.047 146.082 109.266 147.637 108.626C149.191 107.998 150.967 108.754 151.593 110.314C152.22 111.873 151.477 113.654 149.911 114.283C148.356 114.911 146.581 114.166 145.954 112.595M139.701 115.132C139.074 113.573 139.829 111.792 141.383 111.163C142.938 110.523 144.713 111.291 145.34 112.851C145.966 114.411 145.223 116.191 143.669 116.82C142.114 117.448 140.327 116.692 139.701 115.132ZM133.447 117.669C132.821 116.11 133.563 114.317 135.13 113.701C136.684 113.06 138.459 113.817 139.098 115.388C139.724 116.948 138.97 118.729 137.415 119.357C135.861 119.986 134.085 119.241 133.459 117.681M127.205 120.207C126.567 118.647 127.321 116.866 128.876 116.238C130.431 115.609 132.206 116.354 132.832 117.926C133.459 119.474 132.716 121.266 131.15 121.894C129.595 122.523 127.82 121.766 127.194 120.207M120.94 122.744C120.302 121.184 121.056 119.404 122.611 118.775C124.166 118.135 125.941 118.892 126.567 120.451C127.205 122.011 126.451 123.792 124.897 124.42C123.342 125.049 121.567 124.304 120.94 122.732M148.588 119.101C147.962 117.541 148.716 115.749 150.27 115.132C151.825 114.492 153.6 115.249 154.227 116.808C154.853 118.368 154.111 120.149 152.544 120.777C150.99 121.417 149.215 120.661 148.588 119.101ZM142.335 121.638C141.708 120.079 142.462 118.298 144.017 117.669C145.572 117.041 147.347 117.798 147.973 119.369C148.6 120.917 147.857 122.697 146.291 123.326C144.736 123.954 142.973 123.21 142.335 121.638ZM136.081 124.176C135.455 122.616 136.197 120.835 137.763 120.207C139.318 119.567 141.093 120.323 141.72 121.883C142.346 123.454 141.592 125.223 140.037 125.852C138.483 126.48 136.708 125.735 136.081 124.164M129.827 126.701C129.201 125.142 129.955 123.373 131.51 122.732C133.064 122.092 134.84 122.849 135.466 124.42C136.104 125.968 135.35 127.749 133.784 128.389C132.229 129.017 130.454 128.261 129.827 126.701ZM144.968 128.145C144.33 126.573 145.084 124.804 146.639 124.187C148.194 123.547 149.969 124.304 150.607 125.852C151.233 127.411 150.479 129.204 148.925 129.832C147.37 130.472 145.595 129.704 144.968 128.145ZM138.715 130.682C138.088 129.122 138.831 127.341 140.397 126.701C141.952 126.073 143.727 126.829 144.353 128.389C144.98 129.949 144.237 131.729 142.671 132.358C141.116 132.986 139.341 132.23 138.715 130.67M132.461 133.207C131.835 131.636 132.589 129.867 134.143 129.227C135.698 128.598 137.473 129.355 138.111 130.915C138.738 132.474 137.984 134.255 136.429 134.883C134.874 135.512 133.099 134.767 132.473 133.207M141.348 137.188C140.722 135.628 141.476 133.848 143.031 133.219C144.597 132.579 146.36 133.335 146.999 134.907C147.625 136.455 146.871 138.235 145.316 138.887C143.762 139.504 141.975 138.759 141.348 137.2M135.095 139.737C134.468 138.166 135.211 136.385 136.777 135.768C138.332 135.128 140.107 135.896 140.733 137.456C141.36 139.015 140.606 140.796 139.051 141.425C137.496 142.053 135.721 141.296 135.095 139.737ZM152.672 56.8678C152.046 55.3081 152.788 53.5274 154.343 52.8989C155.897 52.2704 157.684 53.0153 158.299 54.5865C158.937 56.1461 158.183 57.9269 156.628 58.5554C155.074 59.1955 153.299 58.439 152.672 56.8794M146.419 59.4167C145.792 57.8571 146.546 56.0763 148.101 55.4478C149.655 54.8077 151.431 55.5758 152.057 57.1354C152.695 58.6951 151.941 60.4758 150.375 61.1043C148.82 61.7328 147.045 60.9763 146.419 59.4167ZM127.646 67.0285C127.02 65.4689 127.774 63.6882 129.329 63.0597C130.883 62.4312 132.658 63.1877 133.285 64.7473C133.923 66.3069 133.169 68.0877 131.614 68.7162C130.06 69.3563 128.284 68.5882 127.658 67.0285M121.404 69.5658C120.778 68.0062 121.532 66.2254 123.087 65.5969C124.641 64.9684 126.416 65.725 127.043 67.2846C127.67 68.8442 126.927 70.625 125.361 71.2651C123.806 71.8936 122.031 71.1371 121.404 69.5775M115.151 72.1147C114.524 70.5551 115.278 68.786 116.833 68.1459C118.388 67.5057 120.163 68.2623 120.789 69.8335C121.416 71.3931 120.673 73.1622 119.107 73.8024C117.552 74.4309 115.777 73.6744 115.151 72.1147ZM108.897 74.652C108.271 73.0924 109.025 71.3117 110.58 70.6832C112.134 70.043 113.909 70.7995 114.536 72.3708C115.162 73.9304 114.42 75.7112 112.865 76.3397C111.311 76.9798 109.535 76.2233 108.909 74.652M102.655 77.1893C102.017 75.6297 102.771 73.8489 104.326 73.2204C105.881 72.5803 107.656 73.3485 108.282 74.9081C108.921 76.4677 108.166 78.2485 106.6 78.877C105.057 79.5171 103.282 78.7606 102.655 77.1893ZM96.4018 79.7266C95.7753 78.167 96.5179 76.3862 98.0725 75.7577C99.6388 75.1292 101.402 75.8741 102.029 77.4454C102.667 79.005 101.913 80.7857 100.358 81.4142C98.8035 82.0544 97.0284 81.2979 96.4018 79.7382M90.1483 82.2755C89.5218 80.7159 90.2759 78.9352 91.8306 78.3066C93.3853 77.6781 95.1604 78.423 95.7869 79.9827C96.425 81.5423 95.6709 83.323 94.1162 83.9515C92.5615 84.58 90.7864 83.8351 90.1599 82.2639M83.9064 84.8012C83.2683 83.2416 84.0224 81.4608 85.5771 80.8323C87.1318 80.2038 88.9069 80.9603 89.5334 82.5199C90.1599 84.0796 89.4174 85.8603 87.8511 86.4888C86.2964 87.1173 84.5213 86.3608 83.8948 84.8012M77.6412 87.3384C77.0147 85.7788 77.7573 83.9864 79.3235 83.3696C80.8782 82.7294 82.6533 83.486 83.2799 85.0456C83.9064 86.6052 83.1522 88.386 81.5976 89.0145C80.0429 89.6546 78.2678 88.8864 77.6412 87.3384ZM71.3877 89.8757C70.7496 88.3161 71.5037 86.5354 73.07 85.9069C74.6247 85.2784 76.3882 86.0233 77.0263 87.5945C77.6644 89.1541 76.9103 90.9349 75.3556 91.5634C73.8009 92.1919 72.0258 91.4354 71.3993 89.8757M68.4872 102.155C68.4872 102.155 67.0485 98.3372 67.7794 96.5914C68.0811 95.8814 68.6612 95.2646 69.4385 94.9503C70.2159 94.6361 71.0512 94.671 71.759 94.9736C72.4783 95.2762 73.0816 95.8581 73.3833 96.638C73.6965 97.4178 73.6733 98.2558 73.3717 98.9657C73.07 99.6874 72.4667 100.234 71.7126 100.607C69.601 101.631 68.4872 102.143 68.4872 102.143M77.386 106.124C77.386 106.124 75.9241 102.294 76.6551 100.56C76.9683 99.8503 77.5368 99.2451 78.3142 98.9308C79.0915 98.6166 79.9269 98.6398 80.6346 98.9425C81.3539 99.2451 81.9572 99.827 82.2705 100.607C82.5837 101.387 82.5489 102.225 82.2473 102.946C81.9456 103.656 81.3423 104.215 80.5882 104.576C78.4766 105.6 77.3744 106.124 77.3744 106.124M98.7687 105.03C98.7687 105.03 97.3068 101.212 98.0493 99.4662C98.351 98.7446 98.9195 98.151 99.7084 97.8251C100.486 97.5109 101.321 97.5458 102.029 97.8484C102.748 98.151 103.351 98.733 103.653 99.5128C103.966 100.293 103.932 101.131 103.642 101.852C103.34 102.574 102.737 103.121 101.982 103.482C99.8709 104.518 98.7803 105.03 98.7803 105.03M107.656 108.998C107.656 108.998 106.252 105.239 106.983 103.505C107.296 102.783 107.865 102.178 108.642 101.864C109.419 101.55 110.255 101.584 110.974 101.887C111.682 102.19 112.297 102.772 112.598 103.551C112.912 104.32 112.819 105.099 112.517 105.809C112.216 106.531 111.612 107.078 110.858 107.451C108.746 108.475 107.644 108.987 107.644 108.987M102.737 51.1414C103.514 50.8272 104.338 50.8621 105.057 51.1647C105.916 51.5255 106.739 52.6195 107.354 53.6438C107.25 53.1549 107.145 52.6312 107.111 52.1191C106.971 51.4906 107.041 50.8388 107.285 50.2685C107.563 49.6167 108.039 49.0697 108.7 48.7438C110.011 47.8243 111.566 47.1609 111.566 47.1609L112.007 46.9863C112.007 46.9863 113.956 46.2298 115.696 46.0668C116.334 45.9272 116.972 46.0086 117.541 46.2298C118.249 46.5208 118.852 47.0911 119.154 47.8592C119.467 48.6158 119.42 49.4538 119.119 50.1521C118.887 50.7108 118.481 51.1763 117.959 51.5138C116.752 52.5032 115.07 53.2597 114.687 53.4343C115.128 53.3528 116.195 52.992 117.889 52.4333C118.689 52.1773 119.502 52.154 120.209 52.445C120.917 52.7476 121.532 53.3412 121.845 54.1093C122.159 54.8775 122.124 55.7155 121.822 56.4371C121.52 57.1587 120.94 57.7523 120.163 58.0782C119.386 58.3925 118.562 58.3575 117.843 58.0549C116.81 57.6126 115.835 56.1112 115.209 54.9706C115.394 55.6573 115.592 56.4953 115.661 57.2984C115.801 57.9385 115.719 58.5787 115.487 59.149C115.186 59.859 114.606 60.4758 113.828 60.7784C113.051 61.0927 112.215 61.0694 111.496 60.7784C110.951 60.534 110.464 60.1383 110.127 59.6029C109.779 59.1839 109.466 58.7067 109.187 58.2411C109.443 59.3934 109.593 60.697 109.234 61.535C108.932 62.2449 108.352 62.8618 107.575 63.1644C106.797 63.4787 105.962 63.4437 105.243 63.1528C104.535 62.8502 103.92 62.2682 103.618 61.4884C103.305 60.7086 103.328 59.8706 103.63 59.149C103.943 58.439 104.535 57.8803 105.289 57.5195L108.062 55.9832L104.999 56.7746C104.222 57.0889 103.398 57.054 102.679 56.7514C101.774 56.3673 100.903 55.1685 100.289 54.0861C100.416 54.6447 100.532 55.2267 100.579 55.7853C100.706 56.4255 100.637 57.0656 100.393 57.6359C100.091 58.3575 99.5112 58.9628 98.7339 59.277C97.9681 59.5913 97.1328 59.5563 96.4134 59.2654C95.8681 59.0326 95.3809 58.6252 95.0444 58.1015C94.6499 57.6243 94.3019 57.0889 94.0118 56.5768C94.151 57.1587 94.2786 57.8105 94.3367 58.4274C94.4527 59.0442 94.3831 59.6495 94.1626 60.2081C93.8494 60.9297 93.2693 61.535 92.4919 61.8492C91.7262 62.1635 90.8908 62.1285 90.1715 61.8259C89.603 61.5815 89.1041 61.1742 88.7677 60.6155C88.3964 60.1616 88.0599 59.6378 87.7815 59.149C87.9091 59.7193 88.0483 60.3594 88.0947 60.953C88.2224 61.5699 88.1411 62.1867 87.9091 62.7454C87.6074 63.467 87.0273 64.0722 86.2616 64.3749C85.4843 64.6891 84.6489 64.6658 83.9296 64.3632C83.3611 64.1188 82.8622 63.7114 82.5141 63.1528C82.1081 62.6523 81.7484 62.0704 81.4467 61.5466C81.6092 62.1518 81.7484 62.8618 81.8064 63.5136C81.9224 64.1304 81.8528 64.7473 81.6208 65.2943C81.3191 66.0159 80.7506 66.6212 79.9733 66.9354C79.1959 67.2497 78.3606 67.2031 77.6412 66.9121C77.0727 66.6677 76.5738 66.2604 76.2374 65.7017C75.5529 64.8521 74.9727 63.7813 74.6479 63.0946L75.4252 65.4806C75.6805 66.2836 75.7153 67.0984 75.4136 67.8083C75.112 68.53 74.5319 69.1352 73.7545 69.4494C72.9772 69.7637 72.1418 69.7404 71.4341 69.4378C70.7148 69.1235 70.1115 68.5532 69.7982 67.7734C69.485 66.9936 69.5198 66.1556 69.8214 65.434C70.4943 63.8627 73.5689 62.2217 74.149 61.9656L71.1325 62.9433C70.3319 63.1993 69.5314 63.2226 68.812 62.92C68.1043 62.629 67.4894 62.0471 67.1761 61.2673C66.8629 60.4875 66.8977 59.6495 67.1993 58.9395C67.501 58.2179 68.0811 57.6126 68.8584 57.2984C69.6242 56.9841 70.4595 57.0191 71.1789 57.31C72.049 57.6941 72.896 58.8347 73.5109 59.8822C73.3949 59.3585 73.2905 58.7998 73.244 58.2528C73.1048 57.6243 73.186 56.9725 73.4297 56.4022C73.7313 55.6922 74.3114 55.0754 75.0888 54.7611C75.8661 54.4469 76.6899 54.4818 77.4092 54.7844C77.9661 55.0172 78.4418 55.4129 78.7782 55.9366C79.2075 56.4604 79.5788 57.054 79.892 57.601C79.7412 57.0074 79.6136 56.3324 79.5556 55.6922C79.4164 55.0521 79.4976 54.4119 79.7296 53.8416C79.8224 53.6205 79.9385 53.411 80.0777 53.2248C80.2053 53.0502 80.3561 52.8872 80.5186 52.7359C80.623 52.6428 80.7506 52.5497 80.8782 52.4682C82.2357 51.444 84.1848 50.6293 84.1848 50.6293L84.6141 50.4547C84.6141 50.4547 86.424 49.7564 88.0715 49.5352C88.3268 49.477 88.582 49.4421 88.8257 49.4421C88.9881 49.4421 89.1505 49.4538 89.3246 49.4887C89.5566 49.5236 89.777 49.5934 89.9975 49.6865C90.2875 49.8146 90.5544 49.9775 90.7864 50.187C91.0765 50.4198 91.3317 50.7108 91.5173 51.0483C91.8422 51.4789 92.1439 51.9445 92.3875 52.3868C92.2483 51.8165 92.1207 51.188 92.0743 50.5827C91.935 49.9542 92.0162 49.3141 92.2483 48.7321C92.5267 48.092 93.014 47.5333 93.6637 47.2074C94.9748 46.2763 96.5295 45.6246 96.5295 45.6246L96.9587 45.45C96.9587 45.45 98.9195 44.6934 100.66 44.5305C101.286 44.3908 101.924 44.4723 102.493 44.6934C103.201 44.9844 103.804 45.5547 104.106 46.3229C104.419 47.0911 104.384 47.9174 104.082 48.6274C103.839 49.1744 103.444 49.6516 102.922 49.9892C101.704 50.9668 100.068 51.8514 99.6852 52.0143L102.771 51.1181L102.737 51.1414ZM131.939 95.6836C131.301 94.1356 132.055 92.3432 133.61 91.7147C135.164 91.0978 136.94 91.8427 137.566 93.414C138.193 94.9736 137.45 96.7543 135.884 97.3828C134.329 98.023 132.554 97.2665 131.927 95.6952M69.9606 49.7913C69.8794 50.4198 70.1579 51.3858 70.738 52.3169C71.3065 53.2248 72.0026 53.8882 72.6175 54.1093C73.2092 54.2839 73.8589 54.2024 74.6479 53.8649C76.9915 52.864 76.8059 51.153 75.5529 47.3937C77.9661 52.1307 80.8666 51.735 84.1384 50.3732C85.8091 49.6749 87.1898 48.9067 87.8975 47.6264C88.35 46.6488 88.2572 45.2056 87.5494 43.8671C86.6793 42.226 85.1246 41.2367 83.9064 41.4462C82.9318 41.6091 81.7252 42.063 80.1125 42.7497C80.2633 42.5286 81.3075 41.9467 83.1174 40.8992C83.8368 40.4801 84.4053 39.8866 84.6605 39.1533C84.9158 38.4201 84.881 37.5821 84.5213 36.8255C84.1616 36.069 83.5119 35.5336 82.781 35.2776C82.05 35.0215 81.2147 35.0448 80.4605 35.4172C79.7064 35.7897 79.1611 36.4298 78.9175 37.1631C78.4186 38.6179 79.4512 41.3182 79.8572 42.2958C76.9335 37.2794 74.6943 38.0476 71.3181 39.4676C68.6612 40.5849 65.8419 42.8545 67.0253 45.4965C68.2667 48.2666 70.1231 47.6148 74.7755 45.6362C71.5501 47.4286 70.1463 48.2666 69.9722 49.7797M59.948 59.0675C59.3215 58.7765 58.695 58.1597 58.3237 57.4613C57.8596 56.6001 57.7204 55.7155 57.9641 55.0521C58.2077 54.4818 58.6718 54.0279 59.4027 53.6205C60.7138 52.9105 61.6767 53.0036 62.6629 53.9347C63.0574 54.2606 63.3939 54.7378 63.6143 55.2034C64.0436 56.0763 64.1248 56.9958 63.8463 57.6592C63.5679 58.2179 63.0806 58.6369 62.2568 59.0093C61.3983 59.405 60.6094 59.405 59.948 59.0675ZM10.3955 111.675C9.75734 109.778 9.18883 107.846 8.68994 105.891C10.5347 108.51 11.6717 108.056 16.3473 105.961C11.9501 108.51 10.4303 109.604 11.8341 112.304C13.2264 114.981 14.9667 114.329 19.5611 112.292C15.1755 114.806 13.644 115.889 15.0247 118.577C16.3937 121.278 18.1573 120.649 22.7633 118.589C18.3893 121.115 16.8462 122.185 18.2269 124.886C19.6075 127.586 21.3594 126.957 25.9539 124.886C21.5799 127.423 19.944 128.552 21.429 131.182C22.8329 133.673 24.8285 133.417 29.0516 131.531C28.6804 131.741 27.5434 132.428 25.9887 133.359C25.2693 133.801 24.724 134.395 24.4804 135.14C24.2716 135.803 24.2832 136.501 24.55 137.188C23.3898 135.768 22.276 134.336 21.2086 132.835C21.2086 132.381 21.0926 131.95 20.8721 131.508C20.5357 130.833 19.9672 130.333 19.3175 130.077C18.7954 129.297 18.3197 128.517 17.8324 127.714C18.1225 126.946 18.0992 126.061 17.6932 125.258C17.2407 124.385 16.4053 123.815 15.5236 123.652C15.1871 123 14.8507 122.372 14.5374 121.731C14.9203 120.893 14.9667 119.893 14.5374 119.008C14.1313 118.217 13.4236 117.669 12.6115 117.448C12.2518 116.61 11.9037 115.796 11.5673 114.923C11.7181 114.236 11.6949 113.445 11.3584 112.758C11.1264 112.316 10.7783 111.966 10.3955 111.687M29.1444 131.462C29.1444 131.462 30.9428 135.14 30.3511 136.944C30.119 137.688 29.5969 138.34 28.8428 138.724C28.1119 139.108 27.2765 139.19 26.534 138.945C26.3135 138.864 25.8843 138.689 25.6986 138.585C26.3715 139.353 27.1141 140.202 27.8102 140.947C28.0887 140.377 28.6688 139.853 29.2721 139.539C30.7687 138.771 32.6019 139.376 33.356 140.866C34.1217 142.367 33.4256 144.288 31.9406 145.044C32.1726 145.277 32.4278 145.51 32.6715 145.743C34.1101 145.184 35.8273 145.731 36.535 147.128C36.8598 147.779 36.9063 148.559 36.767 149.211C37.8112 150.037 38.867 150.84 39.946 151.62C39.9924 150.573 40.6305 149.502 41.6399 148.99C43.1366 148.222 44.9697 148.815 45.7355 150.317C46.5012 151.818 45.8283 153.704 44.3432 154.472L44.262 154.518C44.5752 154.716 44.9349 154.914 45.2482 155.124C46.6404 154.67 48.2299 155.24 48.926 156.59C49.0305 156.823 49.1117 157.114 49.1697 157.347C50.4459 158.033 51.7221 158.65 53.0332 159.267C53.2884 158.941 53.6365 158.627 54.0194 158.441C55.516 157.684 57.3492 158.278 58.1149 159.779C58.3933 160.314 58.4746 160.955 58.4282 161.513C59.6116 161.967 60.795 162.375 62.0016 162.77C62.2684 162.305 62.6977 161.886 63.2198 161.618C64.7165 160.85 66.5496 161.455 67.3038 162.957C67.5358 163.399 67.6402 163.888 67.6402 164.365C67.9303 164.435 68.2203 164.505 68.5104 164.563C67.0485 161.153 66.7701 159.639 69.0673 158.417C71.7126 157.021 72.6987 158.732 75.1816 163.038C72.5015 156.986 72.6175 156.613 78.3258 153.308C73.7777 155.356 71.9214 156.124 70.6568 153.401C69.4502 150.817 70.796 149.735 74.7987 147.36C72.1767 141.471 72.3391 141.075 78.0125 137.782C72.0374 140.458 72.0374 140.517 68.812 134.872C63.2546 137.339 62.7673 137.176 59.6 131.694C54.0078 134.173 53.126 133.731 49.9122 128.133C51.931 132.684 52.6851 134.441 50.0282 135.815C47.3597 137.176 46.3852 135.512 43.9023 131.194C45.9095 135.721 46.7216 137.525 44.0532 138.852C41.4311 140.133 40.7814 138.852 38.3681 134.651C32.8107 137.118 32.3002 136.781 29.1793 131.462" fill="white"/>
</g>
</g>
</g>
<defs>
<filter id="filter0_d_7_19" x="-1" y="0" width="719" height="180" filterUnits="userSpaceOnUse" color-interpolation-filters="sRGB">
<feFlood flood-opacity="0" result="BackgroundImageFix"/>
<feColorMatrix in="SourceAlpha" type="matrix" values="0 0 0 0 0 0 0 0 0 0 0 0 0 0 0 0 0 0 127 0" result="hardAlpha"/>
<feOffset dx="3" dy="4"/>
<feGaussianBlur stdDeviation="2"/>
<feComposite in2="hardAlpha" operator="out"/>
<feColorMatrix type="matrix" values="0 0 0 0 0 0 0 0 0 0 0 0 0 0 0 0 0 0 0.25 0"/>
<feBlend mode="normal" in2="BackgroundImageFix" result="effect1_dropShadow_7_19"/>
<feBlend mode="normal" in="SourceGraphic" in2="effect1_dropShadow_7_19" result="shape"/>
</filter>
<filter id="filter1_d_7_19" x="-0.988403" y="0.314209" width="180.802" height="178.661" filterUnits="userSpaceOnUse" color-interpolation-filters="sRGB">
<feFlood flood-opacity="0" result="BackgroundImageFix"/>
<feColorMatrix in="SourceAlpha" type="matrix" values="0 0 0 0 0 0 0 0 0 0 0 0 0 0 0 0 0 0 127 0" result="hardAlpha"/>
<feOffset dx="3" dy="4"/>
<feGaussianBlur stdDeviation="2"/>
<feComposite in2="hardAlpha" operator="out"/>
<feColorMatrix type="matrix" values="0 0 0 0 0 0 0 0 0 0 0 0 0 0 0 0 0 0 0.25 0"/>
<feBlend mode="normal" in2="BackgroundImageFix" result="effect1_dropShadow_7_19"/>
<feBlend mode="normal" in="SourceGraphic" in2="effect1_dropShadow_7_19" result="shape"/>
</filter>
<filter id="filter2_d_7_19" x="4.85901" y="4.85339" width="169.084" height="169.583" filterUnits="userSpaceOnUse" color-interpolation-filters="sRGB">
<feFlood flood-opacity="0" result="BackgroundImageFix"/>
<feColorMatrix in="SourceAlpha" type="matrix" values="0 0 0 0 0 0 0 0 0 0 0 0 0 0 0 0 0 0 127 0" result="hardAlpha"/>
<feOffset dx="3" dy="4"/>
<feGaussianBlur stdDeviation="2"/>
<feComposite in2="hardAlpha" operator="out"/>
<feColorMatrix type="matrix" values="0 0 0 0 0 0 0 0 0 0 0 0 0 0 0 0 0 0 0.25 0"/>
<feBlend mode="normal" in2="BackgroundImageFix" result="effect1_dropShadow_7_19"/>
<feBlend mode="normal" in="SourceGraphic" in2="effect1_dropShadow_7_19" result="shape"/>
</filter>
<filter id="filter3_d_7_19" x="7.68994" y="5.05127" width="165.765" height="167.511" filterUnits="userSpaceOnUse" color-interpolation-filters="sRGB">
<feFlood flood-opacity="0" result="BackgroundImageFix"/>
<feColorMatrix in="SourceAlpha" type="matrix" values="0 0 0 0 0 0 0 0 0 0 0 0 0 0 0 0 0 0 127 0" result="hardAlpha"/>
<feOffset dx="3" dy="4"/>
<feGaussianBlur stdDeviation="2"/>
<feComposite in2="hardAlpha" operator="out"/>
<feColorMatrix type="matrix" values="0 0 0 0 0 0 0 0 0 0 0 0 0 0 0 0 0 0 0.25 0"/>
<feBlend mode="normal" in2="BackgroundImageFix" result="effect1_dropShadow_7_19"/>
<feBlend mode="normal" in="SourceGraphic" in2="effect1_dropShadow_7_19" result="shape"/>
</filter>
<radialGradient id="paint0_radial_7_19" cx="0" cy="0" r="1" gradientUnits="userSpaceOnUse" gradientTransform="translate(95.6727 87.3898) scale(127.811 128.216)">
<stop stop-color="#B0BAD1"/>
<stop offset="0.12" stop-color="#A4AFC7"/>
<stop offset="0.34" stop-color="#8795AF"/>
<stop offset="0.63" stop-color="#566988"/>
<stop offset="0.95" stop-color="#1A3357"/>
<stop offset="1" stop-color="#1A3357"/>
</radialGradient>
<radialGradient id="paint1_radial_7_19" cx="0" cy="0" r="1" gradientUnits="userSpaceOnUse" gradientTransform="translate(130.277 114.089) scale(138.169 138.607)">
<stop stop-color="white"/>
<stop offset="0.09" stop-color="#D2D6DE"/>
<stop offset="0.24" stop-color="#8391A4"/>
<stop offset="0.37" stop-color="#4A5E7A"/>
<stop offset="0.47" stop-color="#273E60"/>
<stop offset="0.52" stop-color="#1A3357"/>
<stop offset="1" stop-color="#1A3357"/>
</radialGradient>
<clipPath id="clip0_7_19">
<rect width="711" height="172" fill="white"/>
</clipPath>
</defs>
</svg>
