<svg width="910" height="375" viewBox="0 0 910 375" fill="none" xmlns="http://www.w3.org/2000/svg">
<g filter="url(#filter0_d_14_101)">
<mask id="path-1-outside-1_14_101" maskUnits="userSpaceOnUse" x="6" y="2" width="899" height="363" fill="black">
<rect fill="white" x="6" y="2" width="899" height="363"/>
<path d="M230.856 108.16C230.856 149.44 222.056 164 178.536 164H147.016V52.32H178.536C222.056 52.32 230.856 66.72 230.856 108.16ZM210.696 108.32C210.696 92.96 210.056 84.96 207.176 80.16C203.496 74.08 196.296 72.16 183.016 72.16H167.176V144.16H183.016C196.456 144.16 203.656 142.08 207.336 135.84C210.056 131.04 210.696 124 210.696 108.32ZM325.974 144.16V164H250.454V52.32H325.974V72.16H270.614V97.12H318.934V116H270.614V144.16H325.974ZM423.133 130.4C423.133 153.12 402.653 165.6 381.853 165.6C358.333 165.6 342.653 155.04 337.053 132.64L356.093 128.96C359.453 141.44 369.213 146.4 381.853 146.4C391.293 146.4 402.973 141.6 402.973 130.4C402.973 107.36 340.733 122.56 340.733 82.4C340.733 61.28 359.773 51.04 378.653 51.04C398.493 51.04 411.133 58.4 419.773 75.84L402.333 83.84C397.053 73.92 390.333 69.76 378.653 69.76C371.453 69.76 360.893 72.96 360.893 82.4C360.893 101.92 423.133 89.28 423.133 130.4ZM488.811 52.32L532.011 164H510.251L499.531 134.88H460.171L449.611 164H427.851L470.731 52.32H488.811ZM466.731 117.28H493.131L479.851 81.28L466.731 117.28ZM617.815 52.32V72.16H563.735V97.12H611.895V116H563.735V164H543.735V52.32H617.815ZM657.813 52.32V164H637.653V52.32H657.813ZM768.759 108.16C768.759 137.76 756.119 165.28 722.519 165.28C688.919 165.28 676.279 137.76 676.279 108.16C676.279 78.56 688.919 51.04 722.519 51.04C756.119 51.04 768.759 78.4 768.759 108.16ZM748.439 108.16C748.439 90.72 744.599 70.88 722.519 70.88C700.599 70.88 696.439 90.72 696.439 108.16C696.439 125.6 700.599 145.44 722.519 145.44C744.439 145.44 748.439 125.6 748.439 108.16ZM141.648 280.4C141.648 303.12 121.168 315.6 100.368 315.6C76.8481 315.6 61.1681 305.04 55.5681 282.64L74.6081 278.96C77.9681 291.44 87.7281 296.4 100.368 296.4C109.808 296.4 121.488 291.6 121.488 280.4C121.488 257.36 59.2481 272.56 59.2481 232.4C59.2481 211.28 78.2881 201.04 97.1681 201.04C117.008 201.04 129.648 208.4 138.288 225.84L120.848 233.84C115.568 223.92 108.848 219.76 97.1681 219.76C89.9681 219.76 79.4081 222.96 79.4081 232.4C79.4081 251.92 141.648 239.28 141.648 280.4ZM234.489 294.16V314H158.969V202.32H234.489V222.16H179.129V247.12H227.449V266H179.129V294.16H234.489ZM293.973 252.4H335.093V314H318.133V303.6C312.373 312.56 304.373 315.28 294.613 315.28C261.493 315.28 249.013 287.44 249.013 258.16C249.013 228.56 261.973 201.04 295.253 201.04C312.693 201.04 322.613 207.92 333.013 221.52L318.933 234.32C312.533 226 306.293 220.88 295.253 220.88C273.493 220.88 269.173 240.72 269.173 258.16C269.173 275.44 273.493 295.44 295.253 295.44C310.133 295.44 315.253 282.96 315.253 269.68H293.973V252.4ZM437.947 202.32V267.6C437.947 296.24 426.267 315.28 395.707 315.28C365.147 315.28 353.467 296.08 353.467 267.6V202.32H373.467V266.64C373.467 282.16 376.827 295.76 395.707 295.76C415.067 295.76 417.947 282.64 417.947 266.64V202.32H437.947ZM537.842 235.6C537.842 250.16 528.882 261.52 514.322 265.68C516.242 267.12 518.322 270.16 519.762 272.56L546.002 314H522.642L499.922 276.08C496.562 270.32 494.642 267.76 487.442 267.76H479.442V314H459.282V202.32H499.602C521.202 202.32 537.842 212.4 537.842 235.6ZM517.682 235.6C517.682 224.24 509.522 221.68 499.762 221.68H479.442V250H499.762C509.842 250 517.682 247.28 517.682 235.6ZM609.046 202.32L652.246 314H630.486L619.766 284.88H580.406L569.846 314H548.086L590.966 202.32H609.046ZM586.966 267.28H613.366L600.086 231.28L586.966 267.28ZM747.809 258.16C747.809 299.44 739.009 314 695.489 314H663.969V202.32H695.489C739.009 202.32 747.809 216.72 747.809 258.16ZM727.649 258.32C727.649 242.96 727.009 234.96 724.129 230.16C720.449 224.08 713.249 222.16 699.969 222.16H684.129V294.16H699.969C713.409 294.16 720.609 292.08 724.289 285.84C727.009 281.04 727.649 274 727.649 258.32ZM855.087 258.16C855.087 287.76 842.447 315.28 808.847 315.28C775.247 315.28 762.607 287.76 762.607 258.16C762.607 228.56 775.247 201.04 808.847 201.04C842.447 201.04 855.087 228.4 855.087 258.16ZM834.767 258.16C834.767 240.72 830.927 220.88 808.847 220.88C786.927 220.88 782.767 240.72 782.767 258.16C782.767 275.6 786.927 295.44 808.847 295.44C830.767 295.44 834.767 275.6 834.767 258.16Z"/>
</mask>
<path d="M230.856 108.16C230.856 149.44 222.056 164 178.536 164H147.016V52.32H178.536C222.056 52.32 230.856 66.72 230.856 108.16ZM210.696 108.32C210.696 92.96 210.056 84.96 207.176 80.16C203.496 74.08 196.296 72.16 183.016 72.16H167.176V144.16H183.016C196.456 144.16 203.656 142.08 207.336 135.84C210.056 131.04 210.696 124 210.696 108.32ZM325.974 144.16V164H250.454V52.32H325.974V72.16H270.614V97.12H318.934V116H270.614V144.16H325.974ZM423.133 130.4C423.133 153.12 402.653 165.6 381.853 165.6C358.333 165.6 342.653 155.04 337.053 132.64L356.093 128.96C359.453 141.44 369.213 146.4 381.853 146.4C391.293 146.4 402.973 141.6 402.973 130.4C402.973 107.36 340.733 122.56 340.733 82.4C340.733 61.28 359.773 51.04 378.653 51.04C398.493 51.04 411.133 58.4 419.773 75.84L402.333 83.84C397.053 73.92 390.333 69.76 378.653 69.76C371.453 69.76 360.893 72.96 360.893 82.4C360.893 101.92 423.133 89.28 423.133 130.4ZM488.811 52.32L532.011 164H510.251L499.531 134.88H460.171L449.611 164H427.851L470.731 52.32H488.811ZM466.731 117.28H493.131L479.851 81.28L466.731 117.28ZM617.815 52.32V72.16H563.735V97.12H611.895V116H563.735V164H543.735V52.32H617.815ZM657.813 52.32V164H637.653V52.32H657.813ZM768.759 108.16C768.759 137.76 756.119 165.28 722.519 165.28C688.919 165.28 676.279 137.76 676.279 108.16C676.279 78.56 688.919 51.04 722.519 51.04C756.119 51.04 768.759 78.4 768.759 108.16ZM748.439 108.16C748.439 90.72 744.599 70.88 722.519 70.88C700.599 70.88 696.439 90.72 696.439 108.16C696.439 125.6 700.599 145.44 722.519 145.44C744.439 145.44 748.439 125.6 748.439 108.16ZM141.648 280.4C141.648 303.12 121.168 315.6 100.368 315.6C76.8481 315.6 61.1681 305.04 55.5681 282.64L74.6081 278.96C77.9681 291.44 87.7281 296.4 100.368 296.4C109.808 296.4 121.488 291.6 121.488 280.4C121.488 257.36 59.2481 272.56 59.2481 232.4C59.2481 211.28 78.2881 201.04 97.1681 201.04C117.008 201.04 129.648 208.4 138.288 225.84L120.848 233.84C115.568 223.92 108.848 219.76 97.1681 219.76C89.9681 219.76 79.4081 222.96 79.4081 232.4C79.4081 251.92 141.648 239.28 141.648 280.4ZM234.489 294.16V314H158.969V202.32H234.489V222.16H179.129V247.12H227.449V266H179.129V294.16H234.489ZM293.973 252.4H335.093V314H318.133V303.6C312.373 312.56 304.373 315.28 294.613 315.28C261.493 315.28 249.013 287.44 249.013 258.16C249.013 228.56 261.973 201.04 295.253 201.04C312.693 201.04 322.613 207.92 333.013 221.52L318.933 234.32C312.533 226 306.293 220.88 295.253 220.88C273.493 220.88 269.173 240.72 269.173 258.16C269.173 275.44 273.493 295.44 295.253 295.44C310.133 295.44 315.253 282.96 315.253 269.68H293.973V252.4ZM437.947 202.32V267.6C437.947 296.24 426.267 315.28 395.707 315.28C365.147 315.28 353.467 296.08 353.467 267.6V202.32H373.467V266.64C373.467 282.16 376.827 295.76 395.707 295.76C415.067 295.76 417.947 282.64 417.947 266.64V202.32H437.947ZM537.842 235.6C537.842 250.16 528.882 261.52 514.322 265.68C516.242 267.12 518.322 270.16 519.762 272.56L546.002 314H522.642L499.922 276.08C496.562 270.32 494.642 267.76 487.442 267.76H479.442V314H459.282V202.32H499.602C521.202 202.32 537.842 212.4 537.842 235.6ZM517.682 235.6C517.682 224.24 509.522 221.68 499.762 221.68H479.442V250H499.762C509.842 250 517.682 247.28 517.682 235.6ZM609.046 202.32L652.246 314H630.486L619.766 284.88H580.406L569.846 314H548.086L590.966 202.32H609.046ZM586.966 267.28H613.366L600.086 231.28L586.966 267.28ZM747.809 258.16C747.809 299.44 739.009 314 695.489 314H663.969V202.32H695.489C739.009 202.32 747.809 216.72 747.809 258.16ZM727.649 258.32C727.649 242.96 727.009 234.96 724.129 230.16C720.449 224.08 713.249 222.16 699.969 222.16H684.129V294.16H699.969C713.409 294.16 720.609 292.08 724.289 285.84C727.009 281.04 727.649 274 727.649 258.32ZM855.087 258.16C855.087 287.76 842.447 315.28 808.847 315.28C775.247 315.28 762.607 287.76 762.607 258.16C762.607 228.56 775.247 201.04 808.847 201.04C842.447 201.04 855.087 228.4 855.087 258.16ZM834.767 258.16C834.767 240.72 830.927 220.88 808.847 220.88C786.927 220.88 782.767 240.72 782.767 258.16C782.767 275.6 786.927 295.44 808.847 295.44C830.767 295.44 834.767 275.6 834.767 258.16Z" fill="#979797"/>
<path d="M147.016 164H98.0163C98.0163 191.062 119.954 213 147.016 213V164ZM147.016 52.32V3.32C119.954 3.32 98.0163 25.258 98.0163 52.32H147.016ZM207.176 80.16L249.193 54.9497C249.161 54.8956 249.128 54.8416 249.096 54.7877L207.176 80.16ZM167.176 72.16V23.16C140.114 23.16 118.176 45.098 118.176 72.16H167.176ZM167.176 144.16H118.176C118.176 171.222 140.114 193.16 167.176 193.16V144.16ZM207.336 135.84L249.543 160.731C249.687 160.488 249.828 160.243 249.967 159.998L207.336 135.84ZM230.856 108.16H181.856C181.856 112.505 181.738 115.968 181.53 118.752C181.32 121.553 181.046 123.283 180.846 124.234C180.441 126.166 180.693 123.264 184.015 119.436C185.642 117.562 187.44 116.135 189.071 115.16C190.613 114.238 191.577 113.974 191.449 114.012C191.277 114.061 190.24 114.336 187.986 114.581C185.742 114.824 182.667 115 178.536 115V164V213C202.352 213 235.314 209.834 258.017 183.684C278.869 159.666 279.856 128.029 279.856 108.16H230.856ZM178.536 164V115H147.016V164V213H178.536V164ZM147.016 164H196.016V52.32H147.016H98.0163V164H147.016ZM147.016 52.32V101.32H178.536V52.32V3.32H147.016V52.32ZM178.536 52.32V101.32C182.683 101.32 185.772 101.494 188.03 101.738C190.3 101.982 191.347 102.257 191.527 102.308C191.664 102.348 190.698 102.087 189.148 101.164C187.508 100.187 185.695 98.7537 184.051 96.8653C180.695 93.0077 180.438 90.0719 180.844 92.0083C181.044 92.9615 181.319 94.6983 181.529 97.5125C181.738 100.311 181.856 103.792 181.856 108.16H230.856H279.856C279.856 88.2663 278.887 56.56 257.981 32.5347C235.239 6.39926 202.23 3.32 178.536 3.32V52.32ZM210.696 108.32H259.696C259.696 100.494 259.563 92.219 258.695 84.6798C257.852 77.3496 255.879 66.0931 249.193 54.9497L207.176 80.16L165.159 105.37C163.175 102.064 162.202 99.2352 161.747 97.6053C161.317 96.0653 161.272 95.3114 161.337 95.8802C161.399 96.4199 161.504 97.6254 161.582 99.8375C161.658 102.019 161.696 104.766 161.696 108.32H210.696ZM207.176 80.16L249.096 54.7877C230.03 23.2885 195.197 23.16 183.016 23.16V72.16V121.16C185.259 121.16 186.374 121.246 186.722 121.283C187.103 121.323 185.957 121.243 183.918 120.598C181.759 119.915 178.329 118.513 174.587 115.747C170.696 112.87 167.544 109.312 165.257 105.532L207.176 80.16ZM183.016 72.16V23.16H167.176V72.16V121.16H183.016V72.16ZM167.176 72.16H118.176V144.16H167.176H216.176V72.16H167.176ZM167.176 144.16V193.16H183.016V144.16V95.16H167.176V144.16ZM183.016 144.16V193.16C196.199 193.16 230.786 192.536 249.543 160.731L207.336 135.84L165.129 110.949C167.279 107.304 170.291 103.768 174.109 100.849C177.798 98.0274 181.233 96.5499 183.483 95.8075C185.603 95.108 186.834 95.0064 186.537 95.0395C186.269 95.0694 185.216 95.16 183.016 95.16V144.16ZM207.336 135.84L249.967 159.998C255.807 149.692 257.815 139.537 258.711 131.794C259.565 124.416 259.696 116.259 259.696 108.32H210.696H161.696C161.696 111.964 161.658 114.714 161.584 116.853C161.508 119.021 161.409 120.116 161.361 120.526C161.314 120.933 161.381 120.087 161.824 118.505C162.31 116.773 163.187 114.361 164.705 111.682L207.336 135.84ZM325.974 144.16H374.974C374.974 117.098 353.036 95.16 325.974 95.16V144.16ZM325.974 164V213C353.036 213 374.974 191.062 374.974 164H325.974ZM250.454 164H201.454C201.454 191.062 223.392 213 250.454 213V164ZM250.454 52.32V3.32C223.392 3.32 201.454 25.258 201.454 52.32H250.454ZM325.974 52.32H374.974C374.974 25.258 353.036 3.32 325.974 3.32V52.32ZM325.974 72.16V121.16C353.036 121.16 374.974 99.222 374.974 72.16H325.974ZM270.614 72.16V23.16C243.552 23.16 221.614 45.098 221.614 72.16H270.614ZM270.614 97.12H221.614C221.614 124.182 243.552 146.12 270.614 146.12V97.12ZM318.934 97.12H367.934C367.934 70.058 345.996 48.12 318.934 48.12V97.12ZM318.934 116V165C345.996 165 367.934 143.062 367.934 116H318.934ZM270.614 116V67C243.552 67 221.614 88.938 221.614 116H270.614ZM270.614 144.16H221.614C221.614 171.222 243.552 193.16 270.614 193.16V144.16ZM325.974 144.16H276.974V164H325.974H374.974V144.16H325.974ZM325.974 164V115H250.454V164V213H325.974V164ZM250.454 164H299.454V52.32H250.454H201.454V164H250.454ZM250.454 52.32V101.32H325.974V52.32V3.32H250.454V52.32ZM325.974 52.32H276.974V72.16H325.974H374.974V52.32H325.974ZM325.974 72.16V23.16H270.614V72.16V121.16H325.974V72.16ZM270.614 72.16H221.614V97.12H270.614H319.614V72.16H270.614ZM270.614 97.12V146.12H318.934V97.12V48.12H270.614V97.12ZM318.934 97.12H269.934V116H318.934H367.934V97.12H318.934ZM318.934 116V67H270.614V116V165H318.934V116ZM270.614 116H221.614V144.16H270.614H319.614V116H270.614ZM270.614 144.16V193.16H325.974V144.16V95.16H270.614V144.16ZM337.052 132.64L327.754 84.5304C314.543 87.0837 302.964 94.957 295.732 106.303C288.5 117.65 286.252 131.471 289.516 144.524L337.052 132.64ZM356.092 128.96L403.408 116.221C396.728 91.4118 372.02 75.9747 346.794 80.8504L356.092 128.96ZM419.773 75.84L440.203 120.378C452.246 114.853 461.538 104.688 465.961 92.1981C470.385 79.7087 469.561 65.9603 463.68 54.0878L419.773 75.84ZM402.333 83.84L359.078 106.863C371.265 129.76 399.186 139.193 422.763 128.378L402.333 83.84ZM423.133 130.4H374.133C374.133 128.497 374.616 125.828 376.033 123.074C377.394 120.428 379.097 118.7 380.349 117.734C382.46 116.104 383.115 116.6 381.853 116.6V165.6V214.6C401.39 214.6 422.685 208.856 440.236 195.306C458.897 180.9 472.133 158.254 472.133 130.4H423.133ZM381.853 165.6V116.6C379.584 116.6 378.66 116.34 378.729 116.359C378.884 116.402 379.945 116.734 381.352 117.747C382.806 118.793 383.867 120.019 384.49 121.001C385.056 121.894 384.906 122.021 384.589 120.756L337.052 132.64L289.516 144.524C294.582 164.789 305.475 183.882 324.113 197.293C342.25 210.344 362.977 214.6 381.853 214.6V165.6ZM337.052 132.64L346.351 180.75L365.391 177.07L356.092 128.96L346.794 80.8504L327.754 84.5304L337.052 132.64ZM356.092 128.96L308.777 141.699C313.37 158.756 323.596 173.868 339.355 183.807C354.023 193.057 369.608 195.4 381.853 195.4V146.4V97.4C381.866 97.4 382.094 97.4003 382.51 97.4452C382.926 97.4901 383.578 97.5847 384.422 97.7878C386.118 98.1955 388.711 99.0724 391.63 100.913C394.643 102.814 397.427 105.384 399.637 108.478C401.808 111.519 402.897 114.324 403.408 116.221L356.092 128.96ZM381.853 146.4V195.4C393.713 195.4 408.608 192.597 422.194 183.981C437.345 174.373 451.973 156.17 451.973 130.4H402.973H353.973C353.973 124.252 355.696 117.768 359.235 111.999C362.59 106.532 366.673 103.145 369.711 101.219C375.097 97.8034 379.432 97.4 381.853 97.4V146.4ZM402.973 130.4H451.973C451.973 115.049 446.264 101.064 436.518 90.3677C427.998 81.0175 418.214 76.1587 412.168 73.6277C405.865 70.9893 399.655 69.2962 395.513 68.2284C388.304 66.3696 389.887 66.8995 384.338 65.4373C377.115 63.5341 378.003 62.9303 380.722 65.066C386.536 69.6318 389.733 77.1729 389.733 82.4H340.733H291.732C291.732 107.707 302.709 128.408 320.193 142.139C334.582 153.44 351.03 158.006 359.367 160.203C361.598 160.79 370.961 163.103 371.045 163.125C374.198 163.938 374.795 164.223 374.327 164.027C374.116 163.939 369.194 161.986 364.078 156.372C357.736 149.411 353.973 139.991 353.973 130.4H402.973ZM340.733 82.4H389.733C389.733 84.7214 389.146 88.0434 387.311 91.5114C385.535 94.867 383.267 97.0889 381.512 98.3703C378.522 100.554 377.247 100.04 378.652 100.04V51.04V2.03999C361.178 2.03999 340.943 6.64552 323.713 19.2297C304.97 32.9181 291.732 54.9882 291.732 82.4H340.733ZM378.652 51.04V100.04C380.633 100.04 381.302 100.228 381.06 100.172C380.717 100.091 379.636 99.7746 378.257 98.9502C376.859 98.1139 375.891 97.1945 375.385 96.608C374.95 96.1041 375.194 96.2364 375.865 97.5922L419.773 75.84L463.68 54.0878C456.28 39.1506 445.238 24.8223 428.568 14.8498C412.112 5.00551 394.563 2.03999 378.652 2.03999V51.04ZM419.773 75.84L399.342 31.3023L381.902 39.3023L402.333 83.84L422.763 128.378L440.203 120.378L419.773 75.84ZM402.333 83.84L445.587 60.8174C440.247 50.7848 431.841 39.3056 418.103 31.0628C404.393 22.8368 390.249 20.76 378.652 20.76V69.76V118.76C378.736 118.76 373.792 118.763 367.682 115.097C361.544 111.414 359.138 106.975 359.078 106.863L402.333 83.84ZM378.652 69.76V20.76C369.209 20.76 355.932 22.6271 343.153 29.7748C328.658 37.8824 311.892 55.2884 311.892 82.4H360.892H409.892C409.892 89.7598 407.659 97.3759 403.223 103.924C399.095 110.018 394.236 113.491 390.992 115.305C385.293 118.493 380.896 118.76 378.652 118.76V69.76ZM360.892 82.4H311.892C311.892 100.002 319.714 114.39 329.972 124.051C338.619 132.195 348.111 136.232 353.313 138.195C358.982 140.335 364.686 141.832 368.413 142.787C372.996 143.963 375.539 144.559 378.623 145.435C385.146 147.288 384.409 147.932 381.887 145.814C376.786 141.528 374.133 134.782 374.133 130.4H423.133H472.133C472.133 105.458 461.699 84.8721 444.928 70.7814C430.736 58.8577 414.439 53.732 405.402 51.1648C400.706 49.8309 395.469 48.5548 392.759 47.8596C391.133 47.4426 389.972 47.1301 389.065 46.8651C388.149 46.5977 387.839 46.4785 387.922 46.5096C387.973 46.5289 388.906 46.8768 390.338 47.6683C391.747 48.4472 394.304 50.0185 397.161 52.7095C404.016 59.1653 409.892 69.6782 409.892 82.4H360.892ZM488.811 52.32L534.511 34.6423C527.209 15.7649 509.052 3.32 488.811 3.32V52.32ZM532.011 164V213C548.172 213 563.293 205.032 572.429 191.702C581.565 178.372 583.542 161.394 577.711 146.322L532.011 164ZM510.251 164L464.268 180.928C471.362 200.197 489.718 213 510.251 213V164ZM499.531 134.88L545.514 117.952C538.421 98.6827 520.065 85.88 499.531 85.88V134.88ZM460.171 134.88V85.88C439.551 85.88 421.136 98.7899 414.107 118.175L460.171 134.88ZM449.611 164V213C470.232 213 488.646 200.09 495.676 180.705L449.611 164ZM427.851 164L382.107 146.436C376.322 161.503 378.327 178.452 387.468 191.752C396.609 205.053 411.712 213 427.851 213V164ZM470.731 52.32V3.32C450.446 3.32 432.258 15.8191 424.987 34.7564L470.731 52.32ZM466.731 117.28L420.693 100.502C415.218 115.526 417.418 132.276 426.587 145.377C435.756 158.477 450.741 166.28 466.731 166.28V117.28ZM493.131 117.28V166.28C509.156 166.28 524.168 158.445 533.331 145.298C542.493 132.152 544.649 115.356 539.103 100.321L493.131 117.28ZM479.851 81.28L525.823 64.3215C518.709 45.0351 500.312 32.2398 479.755 32.2801C459.198 32.3204 440.852 45.1876 433.813 64.5017L479.851 81.28ZM488.811 52.32L443.111 69.9977L486.311 181.678L532.011 164L577.711 146.322L534.511 34.6423L488.811 52.32ZM532.011 164V115H510.251V164V213H532.011V164ZM510.251 164L556.234 147.072L545.514 117.952L499.531 134.88L453.548 151.808L464.268 180.928L510.251 164ZM499.531 134.88V85.88H460.171V134.88V183.88H499.531V134.88ZM460.171 134.88L414.107 118.175L403.547 147.295L449.611 164L495.676 180.705L506.236 151.585L460.171 134.88ZM449.611 164V115H427.851V164V213H449.611V164ZM427.851 164L473.595 181.564L516.475 69.8836L470.731 52.32L424.987 34.7564L382.107 146.436L427.851 164ZM470.731 52.32V101.32H488.811V52.32V3.32H470.731V52.32ZM466.731 117.28V166.28H493.131V117.28V68.28H466.731V117.28ZM493.131 117.28L539.103 100.321L525.823 64.3215L479.851 81.28L433.879 98.2385L447.159 134.238L493.131 117.28ZM479.851 81.28L433.813 64.5017L420.693 100.502L466.731 117.28L512.769 134.058L525.889 98.0583L479.851 81.28ZM617.815 52.32H666.815C666.815 25.258 644.877 3.32 617.815 3.32V52.32ZM617.815 72.16V121.16C644.877 121.16 666.815 99.222 666.815 72.16H617.815ZM563.735 72.16V23.16C536.673 23.16 514.735 45.098 514.735 72.16H563.735ZM563.735 97.12H514.735C514.735 124.182 536.673 146.12 563.735 146.12V97.12ZM611.895 97.12H660.895C660.895 70.058 638.957 48.12 611.895 48.12V97.12ZM611.895 116V165C638.957 165 660.895 143.062 660.895 116H611.895ZM563.735 116V67C536.673 67 514.735 88.938 514.735 116H563.735ZM563.735 164V213C590.797 213 612.735 191.062 612.735 164H563.735ZM543.735 164H494.735C494.735 191.062 516.673 213 543.735 213V164ZM543.735 52.32V3.32C516.673 3.32 494.735 25.258 494.735 52.32H543.735ZM617.815 52.32H568.815V72.16H617.815H666.815V52.32H617.815ZM617.815 72.16V23.16H563.735V72.16V121.16H617.815V72.16ZM563.735 72.16H514.735V97.12H563.735H612.735V72.16H563.735ZM563.735 97.12V146.12H611.895V97.12V48.12H563.735V97.12ZM611.895 97.12H562.895V116H611.895H660.895V97.12H611.895ZM611.895 116V67H563.735V116V165H611.895V116ZM563.735 116H514.735V164H563.735H612.735V116H563.735ZM563.735 164V115H543.735V164V213H563.735V164ZM543.735 164H592.735V52.32H543.735H494.735V164H543.735ZM543.735 52.32V101.32H617.815V52.32V3.32H543.735V52.32ZM657.812 52.32H706.812C706.812 25.258 684.874 3.32 657.812 3.32V52.32ZM657.812 164V213C684.874 213 706.812 191.062 706.812 164H657.812ZM637.653 164H588.653C588.653 191.062 610.591 213 637.653 213V164ZM637.653 52.32V3.32C610.591 3.32 588.653 25.258 588.653 52.32H637.653ZM657.812 52.32H608.812V164H657.812H706.812V52.32H657.812ZM657.812 164V115H637.653V164V213H657.812V164ZM637.653 164H686.653V52.32H637.653H588.653V164H637.653ZM637.653 52.32V101.32H657.812V52.32V3.32H637.653V52.32ZM768.759 108.16H719.759C719.759 112.182 719.319 115.333 718.762 117.527C718.201 119.742 717.702 120.287 718.014 119.838C718.464 119.191 719.629 117.91 721.491 116.952C723.329 116.005 724.084 116.28 722.519 116.28V165.28V214.28C754.908 214.28 781.689 199.915 798.463 175.802C813.514 154.166 817.759 128.828 817.759 108.16H768.759ZM722.519 165.28V116.28C720.954 116.28 721.708 116.005 723.547 116.952C725.408 117.91 726.573 119.191 727.023 119.838C727.335 120.287 726.837 119.742 726.275 117.527C725.719 115.333 725.279 112.182 725.279 108.16H676.279H627.279C627.279 128.828 631.523 154.166 646.574 175.802C663.349 199.915 690.129 214.28 722.519 214.28V165.28ZM676.279 108.16H725.279C725.279 104.138 725.719 100.987 726.275 98.7933C726.837 96.5776 727.335 96.0331 727.023 96.4822C726.573 97.1287 725.408 98.41 723.547 99.3684C721.708 100.315 720.954 100.04 722.519 100.04V51.04V2.03999C690.129 2.03999 663.349 16.405 646.574 40.5178C631.523 62.1537 627.279 87.4916 627.279 108.16H676.279ZM722.519 51.04V100.04C724.129 100.04 723.398 100.324 721.564 99.3834C719.698 98.4269 718.512 97.1359 718.039 96.4578C717.707 95.9804 718.199 96.5 718.759 98.7132C719.315 100.906 719.759 104.079 719.759 108.16H768.759H817.759C817.759 87.4539 813.531 62.0768 798.438 40.4222C781.61 16.277 754.801 2.03999 722.519 2.03999V51.04ZM748.439 108.16H797.439C797.439 97.6432 796.615 78.3824 787.214 60.3392C782.051 50.4286 773.901 40.1139 761.566 32.5223C749.18 24.8992 735.589 21.88 722.519 21.88V70.88V119.88C720.488 119.88 715.658 119.341 710.201 115.983C704.796 112.656 701.747 108.391 700.303 105.621C699.034 103.185 698.975 101.901 699.136 102.883C699.277 103.747 699.439 105.44 699.439 108.16H748.439ZM722.519 70.88V21.88C709.417 21.88 695.875 24.9312 683.554 32.4975C671.307 40.0185 663.158 50.2225 657.953 60.0535C648.426 78.0498 647.439 97.2714 647.439 108.16H696.439H745.439C745.439 105.598 745.603 103.984 745.739 103.183C745.895 102.267 745.824 103.527 744.564 105.906C743.14 108.598 740.14 112.752 734.838 116.007C729.463 119.309 724.661 119.88 722.519 119.88V70.88ZM696.439 108.16H647.439C647.439 119.049 648.426 138.27 657.953 156.266C663.158 166.098 671.307 176.302 683.554 183.822C695.875 191.389 709.417 194.44 722.519 194.44V145.44V96.44C724.661 96.44 729.463 97.0112 734.838 100.313C740.14 103.568 743.14 107.722 744.564 110.414C745.824 112.793 745.895 114.053 745.739 113.137C745.603 112.336 745.439 110.722 745.439 108.16H696.439ZM722.519 145.44V194.44C735.618 194.44 749.19 191.389 761.539 183.773C773.817 176.2 781.942 165.932 787.104 156.076C796.532 138.079 797.439 118.867 797.439 108.16H748.439H699.439C699.439 110.8 699.276 112.46 699.136 113.301C698.976 114.259 699.038 113 700.293 110.604C701.715 107.888 704.731 103.67 710.093 100.362C715.527 97.0106 720.38 96.44 722.519 96.44V145.44ZM55.5681 282.64L46.2696 234.53C33.059 237.084 21.4795 244.957 14.2476 256.303C7.01572 267.65 4.76779 281.471 8.03114 294.524L55.5681 282.64ZM74.6081 278.96L121.923 266.221C115.244 241.412 90.5357 225.975 65.3096 230.85L74.6081 278.96ZM138.288 225.84L158.718 270.378C170.761 264.853 180.054 254.688 184.477 242.198C188.9 229.709 188.077 215.96 182.195 204.088L138.288 225.84ZM120.848 233.84L77.5935 256.863C89.7809 279.76 117.702 289.193 141.278 278.378L120.848 233.84ZM141.648 280.4H92.6481C92.6481 278.497 93.132 275.828 94.5486 273.074C95.9093 270.428 97.6122 268.7 98.8644 267.734C100.976 266.104 101.631 266.6 100.368 266.6V315.6V364.6C119.905 364.6 141.2 358.856 158.752 345.306C177.412 330.9 190.648 308.254 190.648 280.4H141.648ZM100.368 315.6V266.6C98.0991 266.6 97.1754 266.34 97.245 266.359C97.3994 266.402 98.4608 266.734 99.868 267.747C101.321 268.793 102.383 270.019 103.006 271.001C103.572 271.894 103.421 272.021 103.105 270.756L55.5681 282.64L8.03114 294.524C13.0974 314.789 23.9909 333.882 42.6283 347.293C60.7656 360.344 81.4923 364.6 100.368 364.6V315.6ZM55.5681 282.64L64.8666 330.75L83.9066 327.07L74.6081 278.96L65.3096 230.85L46.2696 234.53L55.5681 282.64ZM74.6081 278.96L27.293 291.699C31.8852 308.756 42.1113 323.868 57.8706 333.807C72.5391 343.057 88.1231 345.4 100.368 345.4V296.4V247.4C100.382 247.4 100.61 247.4 101.026 247.445C101.442 247.49 102.093 247.585 102.938 247.788C104.634 248.196 107.227 249.072 110.146 250.913C113.159 252.814 115.943 255.384 118.152 258.478C120.324 261.519 121.412 264.324 121.923 266.221L74.6081 278.96ZM100.368 296.4V345.4C112.229 345.4 127.123 342.597 140.71 333.981C155.861 324.373 170.488 306.17 170.488 280.4H121.488H72.4881C72.4881 274.252 74.2113 267.768 77.7508 261.999C81.1053 256.532 85.1888 253.145 88.2266 251.219C93.6129 247.803 97.9477 247.4 100.368 247.4V296.4ZM121.488 280.4H170.488C170.488 265.049 164.779 251.064 155.034 240.368C146.514 231.018 136.73 226.159 130.684 223.628C124.38 220.989 118.17 219.296 114.029 218.228C106.82 216.37 108.403 216.9 102.853 215.437C95.6305 213.534 96.5181 212.93 99.2376 215.066C105.051 219.632 108.248 227.173 108.248 232.4H59.2481H10.2481C10.2481 257.707 21.2249 278.408 38.7086 292.139C53.0981 303.44 69.5458 308.006 77.883 310.203C80.1136 310.79 89.4764 313.103 89.5609 313.125C92.7135 313.938 93.3109 314.223 92.8427 314.027C92.6314 313.939 87.7098 311.986 82.594 306.372C76.2519 299.411 72.4881 289.991 72.4881 280.4H121.488ZM59.2481 232.4H108.248C108.248 234.721 107.662 238.043 105.826 241.511C104.05 244.867 101.782 247.089 100.028 248.37C97.0372 250.554 95.7623 250.04 97.1681 250.04V201.04V152.04C79.694 152.04 59.4591 156.646 42.2285 169.23C23.4859 182.918 10.2481 204.988 10.2481 232.4H59.2481ZM97.1681 201.04V250.04C99.1483 250.04 99.8176 250.228 99.5753 250.172C99.2325 250.091 98.1511 249.775 96.7731 248.95C95.375 248.114 94.4064 247.195 93.9006 246.608C93.4661 246.104 93.7093 246.236 94.3809 247.592L138.288 225.84L182.195 204.088C174.795 189.151 163.754 174.822 147.083 164.85C130.627 155.006 113.078 152.04 97.1681 152.04V201.04ZM138.288 225.84L117.858 181.302L100.418 189.302L120.848 233.84L141.278 278.378L158.718 270.378L138.288 225.84ZM120.848 233.84L164.103 210.817C158.763 200.785 150.356 189.306 136.618 181.063C122.908 172.837 108.765 170.76 97.1681 170.76V219.76V268.76C97.2512 268.76 92.3078 268.763 86.1978 265.097C80.0599 261.414 77.6534 256.975 77.5935 256.863L120.848 233.84ZM97.1681 219.76V170.76C87.7241 170.76 74.448 172.627 61.6686 179.775C47.1733 187.882 30.4081 205.288 30.4081 232.4H79.4081H128.408C128.408 239.76 126.174 247.376 121.739 253.924C117.61 260.018 112.751 263.491 109.508 265.305C103.808 268.493 99.4121 268.76 97.1681 268.76V219.76ZM79.4081 232.4H30.4081C30.4081 250.002 38.2294 264.39 48.488 274.051C57.1348 282.195 66.6266 286.232 71.8291 288.195C77.4974 290.335 83.2018 291.832 86.9282 292.787C91.5112 293.963 94.0546 294.559 97.1388 295.435C103.661 297.288 102.924 297.932 100.403 295.814C95.3018 291.528 92.6481 284.782 92.6481 280.4H141.648H190.648C190.648 255.458 180.214 234.872 163.444 220.781C149.252 208.858 132.955 203.732 123.917 201.165C119.222 199.831 113.985 198.555 111.274 197.86C109.648 197.443 108.488 197.13 107.58 196.865C106.665 196.598 106.355 196.479 106.437 196.51C106.488 196.529 107.422 196.877 108.854 197.668C110.263 198.447 112.82 200.018 115.677 202.709C122.532 209.165 128.408 219.678 128.408 232.4H79.4081ZM234.489 294.16H283.489C283.489 267.098 261.551 245.16 234.489 245.16V294.16ZM234.489 314V363C261.551 363 283.489 341.062 283.489 314H234.489ZM158.969 314H109.969C109.969 341.062 131.907 363 158.969 363V314ZM158.969 202.32V153.32C131.907 153.32 109.969 175.258 109.969 202.32H158.969ZM234.489 202.32H283.489C283.489 175.258 261.551 153.32 234.489 153.32V202.32ZM234.489 222.16V271.16C261.551 271.16 283.489 249.222 283.489 222.16H234.489ZM179.129 222.16V173.16C152.067 173.16 130.129 195.098 130.129 222.16H179.129ZM179.129 247.12H130.129C130.129 274.182 152.067 296.12 179.129 296.12V247.12ZM227.449 247.12H276.449C276.449 220.058 254.511 198.12 227.449 198.12V247.12ZM227.449 266V315C254.511 315 276.449 293.062 276.449 266H227.449ZM179.129 266V217C152.067 217 130.129 238.938 130.129 266H179.129ZM179.129 294.16H130.129C130.129 321.222 152.067 343.16 179.129 343.16V294.16ZM234.489 294.16H185.489V314H234.489H283.489V294.16H234.489ZM234.489 314V265H158.969V314V363H234.489V314ZM158.969 314H207.969V202.32H158.969H109.969V314H158.969ZM158.969 202.32V251.32H234.489V202.32V153.32H158.969V202.32ZM234.489 202.32H185.489V222.16H234.489H283.489V202.32H234.489ZM234.489 222.16V173.16H179.129V222.16V271.16H234.489V222.16ZM179.129 222.16H130.129V247.12H179.129H228.129V222.16H179.129ZM179.129 247.12V296.12H227.449V247.12V198.12H179.129V247.12ZM227.449 247.12H178.449V266H227.449H276.449V247.12H227.449ZM227.449 266V217H179.129V266V315H227.449V266ZM179.129 266H130.129V294.16H179.129H228.129V266H179.129ZM179.129 294.16V343.16H234.489V294.16V245.16H179.129V294.16ZM293.973 252.4V203.4C266.911 203.4 244.973 225.338 244.973 252.4H293.973ZM335.093 252.4H384.093C384.093 225.338 362.155 203.4 335.093 203.4V252.4ZM335.093 314V363C362.155 363 384.093 341.062 384.093 314H335.093ZM318.133 314H269.133C269.133 341.062 291.071 363 318.133 363V314ZM318.133 303.6H367.133C367.133 281.856 352.804 262.713 331.941 256.586C311.079 250.458 288.673 258.812 276.915 277.103L318.133 303.6ZM333.013 221.52L365.974 257.777C384.806 240.658 387.396 211.971 371.937 191.755L333.013 221.52ZM318.933 234.32L280.095 264.196C288.444 275.05 300.955 281.915 314.595 283.128C328.236 284.34 341.761 279.789 351.894 270.577L318.933 234.32ZM315.253 269.68H364.253C364.253 242.618 342.315 220.68 315.253 220.68V269.68ZM293.973 269.68H244.973C244.973 296.742 266.911 318.68 293.973 318.68V269.68ZM293.973 252.4V301.4H335.093V252.4V203.4H293.973V252.4ZM335.093 252.4H286.093V314H335.093H384.093V252.4H335.093ZM335.093 314V265H318.133V314V363H335.093V314ZM318.133 314H367.133V303.6H318.133H269.133V314H318.133ZM318.133 303.6L276.915 277.103C278.727 274.284 282.286 270.618 287.512 268.231C292.051 266.157 295.197 266.28 294.613 266.28V315.28V364.28C303.789 364.28 315.815 363.043 328.235 357.369C341.34 351.382 351.779 341.876 359.351 330.097L318.133 303.6ZM294.613 315.28V266.28C293.371 266.28 294.362 266.072 296.34 267.113C298.308 268.149 299.455 269.477 299.844 270.047C300.104 270.426 299.58 269.795 299.008 267.516C298.444 265.267 298.013 262.107 298.013 258.16H249.013H200.013C200.013 278.65 204.21 303.803 218.942 325.353C235.377 349.395 261.949 364.28 294.613 364.28V315.28ZM249.013 258.16H298.013C298.013 254.231 298.454 251.129 299.012 248.959C299.577 246.765 300.084 246.187 299.806 246.584C299.399 247.166 298.286 248.403 296.461 249.345C294.643 250.284 293.843 250.04 295.253 250.04V201.04V152.04C262.896 152.04 236.227 166.501 219.5 190.416C204.427 211.967 200.013 237.272 200.013 258.16H249.013ZM295.253 201.04V250.04C296.389 250.04 296.344 250.151 295.528 249.954C295.124 249.856 294.608 249.701 294.023 249.469C293.437 249.236 292.883 248.965 292.386 248.68C291.362 248.093 290.972 247.669 291.25 247.936C291.405 248.085 291.722 248.404 292.209 248.962C292.698 249.522 293.319 250.277 294.09 251.285L333.013 221.52L371.937 191.755C364.828 182.459 355.089 171.672 341.161 163.68C326.48 155.256 310.898 152.04 295.253 152.04V201.04ZM333.013 221.52L300.052 185.263L285.972 198.063L318.933 234.32L351.894 270.577L365.974 257.777L333.013 221.52ZM318.933 234.32L357.772 204.444C353.176 198.469 345.76 189.725 334.663 182.841C322.518 175.307 309.107 171.88 295.253 171.88V220.88V269.88C294.182 269.88 292.261 269.749 289.822 269.085C287.324 268.404 284.998 267.356 283.003 266.119C279.386 263.875 278.291 261.851 280.095 264.196L318.933 234.32ZM295.253 220.88V171.88C282.122 171.88 268.598 174.963 256.316 182.522C244.126 190.024 236.001 200.182 230.798 209.959C221.245 227.907 220.173 247.083 220.173 258.16H269.173H318.173C318.173 255.676 318.338 254.098 318.473 253.319C318.627 252.426 318.554 253.661 317.309 256.001C315.905 258.638 312.94 262.746 307.681 265.983C302.328 269.277 297.504 269.88 295.253 269.88V220.88ZM269.173 258.16H220.173C220.173 269.213 221.261 288.332 230.771 306.251C235.944 315.999 244.035 326.173 256.207 333.708C268.49 341.312 282.048 344.44 295.253 344.44V295.44V246.44C297.578 246.44 302.436 247.068 307.789 250.382C313.031 253.627 315.962 257.721 317.335 260.309C318.557 262.611 318.625 263.813 318.47 262.92C318.336 262.14 318.173 260.583 318.173 258.16H269.173ZM295.253 295.44V344.44C318.958 344.44 339.458 333.211 351.787 314.443C362.202 298.588 364.253 281.364 364.253 269.68H315.253H266.253C266.253 271.276 265.744 266.932 269.879 260.637C272.276 256.989 276.096 252.993 281.525 250.086C286.943 247.184 291.959 246.44 295.253 246.44V295.44ZM315.253 269.68V220.68H293.973V269.68V318.68H315.253V269.68ZM293.973 269.68H342.973V252.4H293.973H244.973V269.68H293.973ZM437.947 202.32H486.947C486.947 175.258 465.009 153.32 437.947 153.32V202.32ZM353.467 202.32V153.32C326.405 153.32 304.467 175.258 304.467 202.32H353.467ZM373.467 202.32H422.467C422.467 175.258 400.529 153.32 373.467 153.32V202.32ZM417.947 202.32V153.32C390.885 153.32 368.947 175.258 368.947 202.32H417.947ZM437.947 202.32H388.947V267.6H437.947H486.947V202.32H437.947ZM437.947 267.6H388.947C388.947 271.586 388.524 273.675 388.345 274.336C388.192 274.9 388.479 273.481 390.176 271.381C391.019 270.338 392.058 269.321 393.256 268.43C394.451 267.541 395.572 266.95 396.456 266.584C398.195 265.864 398.341 266.28 395.707 266.28V315.28V364.28C421.736 364.28 448.076 355.65 466.397 332.979C483.122 312.284 486.947 287.333 486.947 267.6H437.947ZM395.707 315.28V266.28C393.122 266.28 393.295 265.869 395.047 266.599C395.935 266.968 397.05 267.56 398.234 268.444C399.42 269.33 400.445 270.338 401.273 271.365C402.941 273.434 403.219 274.821 403.065 274.253C402.886 273.592 402.467 271.524 402.467 267.6H353.467H304.467C304.467 287.31 308.315 312.203 324.98 332.875C343.242 355.525 369.547 364.28 395.707 364.28V315.28ZM353.467 267.6H402.467V202.32H353.467H304.467V267.6H353.467ZM353.467 202.32V251.32H373.467V202.32V153.32H353.467V202.32ZM373.467 202.32H324.467V266.64H373.467H422.467V202.32H373.467ZM373.467 266.64H324.467C324.467 275.709 324.971 294.678 335.476 312.207C349.128 334.989 372.404 344.76 395.707 344.76V295.76V246.76C396.789 246.76 401.08 246.958 406.561 249.758C412.441 252.763 416.822 257.3 419.538 261.833C421.937 265.837 422.479 268.868 422.542 269.224C422.612 269.625 422.467 268.976 422.467 266.64H373.467ZM395.707 295.76V344.76C418.1 344.76 442.121 335.923 456.202 312.246C466.789 294.444 466.947 274.978 466.947 266.64H417.947H368.947C368.947 269.441 368.798 270.267 368.844 269.986C368.885 269.741 369.407 266.467 371.972 262.154C374.917 257.202 379.601 252.519 385.627 249.538C391.099 246.832 395.185 246.76 395.707 246.76V295.76ZM417.947 266.64H466.947V202.32H417.947H368.947V266.64H417.947ZM417.947 202.32V251.32H437.947V202.32V153.32H417.947V202.32ZM514.322 265.68L500.861 218.565C482.968 223.677 469.516 238.483 466.137 256.782C462.757 275.081 470.035 293.715 484.922 304.88L514.322 265.68ZM519.762 272.56L477.745 297.77C477.947 298.107 478.153 298.442 478.363 298.774L519.762 272.56ZM546.002 314V363C563.866 363 580.315 353.278 588.929 337.628C597.543 321.977 596.957 302.879 587.4 287.786L546.002 314ZM522.642 314L480.609 339.184C489.461 353.958 505.419 363 522.642 363V314ZM499.922 276.08L457.597 300.77C457.693 300.935 457.791 301.1 457.889 301.264L499.922 276.08ZM479.442 267.76V218.76C452.38 218.76 430.442 240.698 430.442 267.76H479.442ZM479.442 314V363C506.504 363 528.442 341.062 528.442 314H479.442ZM459.282 314H410.282C410.282 341.062 432.22 363 459.282 363V314ZM459.282 202.32V153.32C432.22 153.32 410.282 175.258 410.282 202.32H459.282ZM479.442 221.68V172.68C452.38 172.68 430.442 194.618 430.442 221.68H479.442ZM479.442 250H430.442C430.442 277.062 452.38 299 479.442 299V250ZM537.842 235.6H488.842C488.842 232.5 489.927 228.203 492.976 224.313C495.94 220.532 499.258 219.023 500.861 218.565L514.322 265.68L527.783 312.795C561.903 303.046 586.842 273.535 586.842 235.6H537.842ZM514.322 265.68L484.922 304.88C482.364 302.961 480.676 301.233 479.872 300.367C478.988 299.415 478.422 298.69 478.174 298.361C477.712 297.753 477.598 297.525 477.745 297.77L519.762 272.56L561.779 247.35C560.486 245.195 558.612 242.247 556.27 239.159C554.376 236.661 550.123 231.281 543.722 226.48L514.322 265.68ZM519.762 272.56L478.363 298.774L504.603 340.214L546.002 314L587.4 287.786L561.16 246.346L519.762 272.56ZM546.002 314V265H522.642V314V363H546.002V314ZM522.642 314L564.675 288.816L541.955 250.896L499.922 276.08L457.889 301.264L480.609 339.184L522.642 314ZM499.922 276.08L542.247 251.39C541.303 249.771 535.516 238.866 524.661 230.665C511.155 220.46 496.841 218.76 487.442 218.76V267.76V316.76C485.243 316.76 475.489 316.34 465.583 308.855C461.438 305.723 458.978 302.597 457.963 301.204C457.122 300.049 456.784 299.376 457.597 300.77L499.922 276.08ZM487.442 267.76V218.76H479.442V267.76V316.76H487.442V267.76ZM479.442 267.76H430.442V314H479.442H528.442V267.76H479.442ZM479.442 314V265H459.282V314V363H479.442V314ZM459.282 314H508.282V202.32H459.282H410.282V314H459.282ZM459.282 202.32V251.32H499.602V202.32V153.32H459.282V202.32ZM499.602 202.32V251.32C503.661 251.32 501.085 252.374 496.445 248.708C493.887 246.687 491.657 243.907 490.237 240.757C488.876 237.739 488.842 235.694 488.842 235.6H537.842H586.842C586.842 211.055 577.337 187.723 557.199 171.812C538.839 157.306 517.142 153.32 499.602 153.32V202.32ZM517.682 235.6H566.682C566.682 216.244 558.487 195.551 538.557 182.957C523.144 173.218 506.943 172.68 499.762 172.68V221.68V270.68C502.341 270.68 495.1 271.422 486.207 265.803C480.839 262.411 475.78 257.26 472.416 250.522C469.223 244.127 468.682 238.573 468.682 235.6H517.682ZM499.762 221.68V172.68H479.442V221.68V270.68H499.762V221.68ZM479.442 221.68H430.442V250H479.442H528.442V221.68H479.442ZM479.442 250V299H499.762V250V201H479.442V250ZM499.762 250V299C507.158 299 523.911 298.432 539.624 287.989C559.588 274.721 566.682 253.771 566.682 235.6H517.682H468.682C468.682 233.149 469.086 228.03 471.959 221.922C475.031 215.392 479.844 210.05 485.38 206.371C494.653 200.208 502.445 201 499.762 201V250ZM609.046 202.32L654.746 184.642C647.444 165.765 629.286 153.32 609.046 153.32V202.32ZM652.246 314V363C668.406 363 683.527 355.032 692.664 341.702C701.8 328.372 703.776 311.394 697.946 296.322L652.246 314ZM630.486 314L584.503 330.928C591.596 350.197 609.952 363 630.486 363V314ZM619.766 284.88L665.749 267.952C658.655 248.683 640.299 235.88 619.766 235.88V284.88ZM580.406 284.88V235.88C559.785 235.88 541.371 248.79 534.341 268.175L580.406 284.88ZM569.846 314V363C590.466 363 608.88 350.09 615.91 330.705L569.846 314ZM548.086 314L502.342 296.436C496.557 311.503 498.562 328.452 507.702 341.752C516.843 355.053 531.947 363 548.086 363V314ZM590.966 202.32V153.32C570.68 153.32 552.493 165.819 545.222 184.756L590.966 202.32ZM586.966 267.28L540.928 250.502C535.452 265.526 537.652 282.276 546.821 295.377C555.99 308.477 570.975 316.28 586.966 316.28V267.28ZM613.366 267.28V316.28C629.39 316.28 644.402 308.445 653.565 295.298C662.728 282.152 664.883 265.356 659.337 250.322L613.366 267.28ZM600.086 231.28L646.057 214.322C638.943 195.035 620.546 182.24 599.99 182.28C579.433 182.32 561.087 195.188 554.048 214.502L600.086 231.28ZM609.046 202.32L563.346 219.998L606.546 331.678L652.246 314L697.946 296.322L654.746 184.642L609.046 202.32ZM652.246 314V265H630.486V314V363H652.246V314ZM630.486 314L676.469 297.072L665.749 267.952L619.766 284.88L573.783 301.808L584.503 330.928L630.486 314ZM619.766 284.88V235.88H580.406V284.88V333.88H619.766V284.88ZM580.406 284.88L534.341 268.175L523.781 297.295L569.846 314L615.91 330.705L626.47 301.585L580.406 284.88ZM569.846 314V265H548.086V314V363H569.846V314ZM548.086 314L593.83 331.564L636.71 219.884L590.966 202.32L545.222 184.756L502.342 296.436L548.086 314ZM590.966 202.32V251.32H609.046V202.32V153.32H590.966V202.32ZM586.966 267.28V316.28H613.366V267.28V218.28H586.966V267.28ZM613.366 267.28L659.337 250.322L646.057 214.322L600.086 231.28L554.114 248.238L567.394 284.238L613.366 267.28ZM600.086 231.28L554.048 214.502L540.928 250.502L586.966 267.28L633.004 284.058L646.124 248.058L600.086 231.28ZM663.969 314H614.969C614.969 341.062 636.907 363 663.969 363V314ZM663.969 202.32V153.32C636.907 153.32 614.969 175.258 614.969 202.32H663.969ZM724.129 230.16L766.147 204.95C766.114 204.896 766.082 204.842 766.049 204.788L724.129 230.16ZM684.129 222.16V173.16C657.067 173.16 635.129 195.098 635.129 222.16H684.129ZM684.129 294.16H635.129C635.129 321.222 657.067 343.16 684.129 343.16V294.16ZM724.289 285.84L766.496 310.731C766.64 310.488 766.781 310.243 766.92 309.998L724.289 285.84ZM747.809 258.16H698.809C698.809 262.505 698.692 265.968 698.483 268.752C698.273 271.553 697.999 273.283 697.799 274.234C697.394 276.166 697.646 273.264 700.968 269.436C702.595 267.562 704.393 266.135 706.024 265.16C707.566 264.238 708.531 263.974 708.402 264.012C708.23 264.061 707.193 264.336 704.939 264.581C702.695 264.824 699.62 265 695.489 265V314V363C719.305 363 752.267 359.834 774.97 333.684C795.822 309.666 796.809 278.029 796.809 258.16H747.809ZM695.489 314V265H663.969V314V363H695.489V314ZM663.969 314H712.969V202.32H663.969H614.969V314H663.969ZM663.969 202.32V251.32H695.489V202.32V153.32H663.969V202.32ZM695.489 202.32V251.32C699.636 251.32 702.725 251.494 704.983 251.738C707.253 251.982 708.3 252.257 708.48 252.308C708.617 252.348 707.651 252.087 706.102 251.164C704.461 250.187 702.648 248.754 701.005 246.865C697.648 243.008 697.391 240.072 697.797 242.008C697.997 242.962 698.272 244.698 698.482 247.512C698.691 250.311 698.809 253.792 698.809 258.16H747.809H796.809C796.809 238.266 795.84 206.56 774.934 182.535C752.192 156.399 719.183 153.32 695.489 153.32V202.32ZM727.649 258.32H776.649C776.649 250.494 776.516 242.219 775.648 234.68C774.805 227.35 772.833 216.093 766.147 204.95L724.129 230.16L682.112 255.37C680.129 252.064 679.156 249.235 678.7 247.605C678.27 246.065 678.225 245.311 678.29 245.88C678.353 246.42 678.457 247.625 678.535 249.838C678.611 252.019 678.649 254.766 678.649 258.32H727.649ZM724.129 230.16L766.049 204.788C746.984 173.289 712.151 173.16 699.969 173.16V222.16V271.16C702.212 271.16 703.327 271.246 703.675 271.283C704.056 271.323 702.91 271.243 700.871 270.598C698.712 269.915 695.282 268.513 691.54 265.747C687.649 262.87 684.497 259.312 682.21 255.532L724.129 230.16ZM699.969 222.16V173.16H684.129V222.16V271.16H699.969V222.16ZM684.129 222.16H635.129V294.16H684.129H733.129V222.16H684.129ZM684.129 294.16V343.16H699.969V294.16V245.16H684.129V294.16ZM699.969 294.16V343.16C713.153 343.16 747.74 342.536 766.496 310.731L724.289 285.84L682.082 260.949C684.232 257.304 687.245 253.768 691.062 250.849C694.752 248.027 698.186 246.55 700.436 245.807C702.556 245.108 703.787 245.006 703.49 245.039C703.222 245.069 702.169 245.16 699.969 245.16V294.16ZM724.289 285.84L766.92 309.998C772.76 299.692 774.768 289.537 775.664 281.794C776.518 274.416 776.649 266.259 776.649 258.32H727.649H678.649C678.649 261.964 678.611 264.714 678.537 266.853C678.461 269.021 678.362 270.116 678.314 270.526C678.267 270.933 678.335 270.087 678.777 268.505C679.263 266.773 680.14 264.361 681.658 261.682L724.289 285.84ZM855.087 258.16H806.087C806.087 262.182 805.647 265.333 805.091 267.527C804.529 269.742 804.03 270.287 804.343 269.838C804.792 269.191 805.957 267.91 807.819 266.952C809.657 266.005 810.412 266.28 808.847 266.28V315.28V364.28C841.236 364.28 868.017 349.915 884.791 325.802C899.842 304.166 904.087 278.828 904.087 258.16H855.087ZM808.847 315.28V266.28C807.282 266.28 808.036 266.005 809.875 266.952C811.736 267.91 812.901 269.191 813.351 269.838C813.664 270.287 813.165 269.742 812.603 267.527C812.047 265.333 811.607 262.182 811.607 258.16H762.607H713.607C713.607 278.828 717.852 304.166 732.903 325.802C749.677 349.915 776.457 364.28 808.847 364.28V315.28ZM762.607 258.16H811.607C811.607 254.138 812.047 250.987 812.603 248.793C813.165 246.578 813.664 246.033 813.351 246.482C812.901 247.129 811.736 248.41 809.875 249.368C808.036 250.315 807.282 250.04 808.847 250.04V201.04V152.04C776.457 152.04 749.677 166.405 732.903 190.518C717.852 212.154 713.607 237.492 713.607 258.16H762.607ZM808.847 201.04V250.04C810.457 250.04 809.726 250.324 807.892 249.383C806.026 248.427 804.84 247.136 804.367 246.458C804.035 245.98 804.527 246.5 805.087 248.713C805.643 250.906 806.087 254.079 806.087 258.16H855.087H904.087C904.087 237.454 899.859 212.077 884.766 190.422C867.938 166.277 841.129 152.04 808.847 152.04V201.04ZM834.767 258.16H883.767C883.767 247.643 882.943 228.382 873.543 210.339C868.379 200.429 860.23 190.114 847.894 182.522C835.508 174.899 821.917 171.88 808.847 171.88V220.88V269.88C806.817 269.88 801.986 269.341 796.529 265.983C791.124 262.656 788.075 258.391 786.631 255.621C785.362 253.185 785.303 251.901 785.464 252.883C785.605 253.747 785.767 255.44 785.767 258.16H834.767ZM808.847 220.88V171.88C795.745 171.88 782.203 174.931 769.882 182.498C757.635 190.018 749.486 200.222 744.281 210.053C734.754 228.05 733.767 247.271 733.767 258.16H782.767H831.767C831.767 255.598 831.931 253.984 832.067 253.183C832.223 252.267 832.152 253.527 830.892 255.906C829.468 258.598 826.468 262.752 821.167 266.007C815.791 269.309 810.989 269.88 808.847 269.88V220.88ZM782.767 258.16H733.767C733.767 269.049 734.754 288.27 744.281 306.266C749.486 316.098 757.635 326.302 769.882 333.822C782.203 341.389 795.745 344.44 808.847 344.44V295.44V246.44C810.989 246.44 815.791 247.011 821.167 250.313C826.468 253.568 829.468 257.722 830.892 260.413C832.152 262.793 832.223 264.053 832.067 263.137C831.931 262.336 831.767 260.722 831.767 258.16H782.767ZM808.847 295.44V344.44C821.946 344.44 835.518 341.389 847.867 333.773C860.145 326.2 868.27 315.932 873.433 306.076C882.86 288.079 883.767 268.867 883.767 258.16H834.767H785.767C785.767 260.8 785.604 262.46 785.464 263.301C785.304 264.259 785.366 263 786.621 260.604C788.044 257.888 791.059 253.67 796.422 250.362C801.855 247.011 806.708 246.44 808.847 246.44V295.44Z" fill="#99CA3C" mask="url(#path-1-outside-1_14_101)"/>
</g>
<g filter="url(#filter1_d_14_101)">
<mask id="path-3-outside-2_14_101" maskUnits="userSpaceOnUse" x="48" y="44" width="815" height="279" fill="black">
<rect fill="white" x="48" y="44" width="815" height="279"/>
<path d="M230.856 108.16C230.856 149.44 222.056 164 178.536 164H147.016V52.32H178.536C222.056 52.32 230.856 66.72 230.856 108.16ZM210.696 108.32C210.696 92.96 210.056 84.96 207.176 80.16C203.496 74.08 196.296 72.16 183.016 72.16H167.176V144.16H183.016C196.456 144.16 203.656 142.08 207.336 135.84C210.056 131.04 210.696 124 210.696 108.32ZM325.974 144.16V164H250.454V52.32H325.974V72.16H270.614V97.12H318.934V116H270.614V144.16H325.974ZM423.133 130.4C423.133 153.12 402.653 165.6 381.853 165.6C358.333 165.6 342.653 155.04 337.053 132.64L356.093 128.96C359.453 141.44 369.213 146.4 381.853 146.4C391.293 146.4 402.973 141.6 402.973 130.4C402.973 107.36 340.733 122.56 340.733 82.4C340.733 61.28 359.773 51.04 378.653 51.04C398.493 51.04 411.133 58.4 419.773 75.84L402.333 83.84C397.053 73.92 390.333 69.76 378.653 69.76C371.453 69.76 360.893 72.96 360.893 82.4C360.893 101.92 423.133 89.28 423.133 130.4ZM488.811 52.32L532.011 164H510.251L499.531 134.88H460.171L449.611 164H427.851L470.731 52.32H488.811ZM466.731 117.28H493.131L479.851 81.28L466.731 117.28ZM617.815 52.32V72.16H563.735V97.12H611.895V116H563.735V164H543.735V52.32H617.815ZM657.813 52.32V164H637.653V52.32H657.813ZM768.759 108.16C768.759 137.76 756.119 165.28 722.519 165.28C688.919 165.28 676.279 137.76 676.279 108.16C676.279 78.56 688.919 51.04 722.519 51.04C756.119 51.04 768.759 78.4 768.759 108.16ZM748.439 108.16C748.439 90.72 744.599 70.88 722.519 70.88C700.599 70.88 696.439 90.72 696.439 108.16C696.439 125.6 700.599 145.44 722.519 145.44C744.439 145.44 748.439 125.6 748.439 108.16ZM141.648 280.4C141.648 303.12 121.168 315.6 100.368 315.6C76.8481 315.6 61.1681 305.04 55.5681 282.64L74.6081 278.96C77.9681 291.44 87.7281 296.4 100.368 296.4C109.808 296.4 121.488 291.6 121.488 280.4C121.488 257.36 59.2481 272.56 59.2481 232.4C59.2481 211.28 78.2881 201.04 97.1681 201.04C117.008 201.04 129.648 208.4 138.288 225.84L120.848 233.84C115.568 223.92 108.848 219.76 97.1681 219.76C89.9681 219.76 79.4081 222.96 79.4081 232.4C79.4081 251.92 141.648 239.28 141.648 280.4ZM234.489 294.16V314H158.969V202.32H234.489V222.16H179.129V247.12H227.449V266H179.129V294.16H234.489ZM293.973 252.4H335.093V314H318.133V303.6C312.373 312.56 304.373 315.28 294.613 315.28C261.493 315.28 249.013 287.44 249.013 258.16C249.013 228.56 261.973 201.04 295.253 201.04C312.693 201.04 322.613 207.92 333.013 221.52L318.933 234.32C312.533 226 306.293 220.88 295.253 220.88C273.493 220.88 269.173 240.72 269.173 258.16C269.173 275.44 273.493 295.44 295.253 295.44C310.133 295.44 315.253 282.96 315.253 269.68H293.973V252.4ZM437.947 202.32V267.6C437.947 296.24 426.267 315.28 395.707 315.28C365.147 315.28 353.467 296.08 353.467 267.6V202.32H373.467V266.64C373.467 282.16 376.827 295.76 395.707 295.76C415.067 295.76 417.947 282.64 417.947 266.64V202.32H437.947ZM537.842 235.6C537.842 250.16 528.882 261.52 514.322 265.68C516.242 267.12 518.322 270.16 519.762 272.56L546.002 314H522.642L499.922 276.08C496.562 270.32 494.642 267.76 487.442 267.76H479.442V314H459.282V202.32H499.602C521.202 202.32 537.842 212.4 537.842 235.6ZM517.682 235.6C517.682 224.24 509.522 221.68 499.762 221.68H479.442V250H499.762C509.842 250 517.682 247.28 517.682 235.6ZM609.046 202.32L652.246 314H630.486L619.766 284.88H580.406L569.846 314H548.086L590.966 202.32H609.046ZM586.966 267.28H613.366L600.086 231.28L586.966 267.28ZM747.809 258.16C747.809 299.44 739.009 314 695.489 314H663.969V202.32H695.489C739.009 202.32 747.809 216.72 747.809 258.16ZM727.649 258.32C727.649 242.96 727.009 234.96 724.129 230.16C720.449 224.08 713.249 222.16 699.969 222.16H684.129V294.16H699.969C713.409 294.16 720.609 292.08 724.289 285.84C727.009 281.04 727.649 274 727.649 258.32ZM855.087 258.16C855.087 287.76 842.447 315.28 808.847 315.28C775.247 315.28 762.607 287.76 762.607 258.16C762.607 228.56 775.247 201.04 808.847 201.04C842.447 201.04 855.087 228.4 855.087 258.16ZM834.767 258.16C834.767 240.72 830.927 220.88 808.847 220.88C786.927 220.88 782.767 240.72 782.767 258.16C782.767 275.6 786.927 295.44 808.847 295.44C830.767 295.44 834.767 275.6 834.767 258.16Z"/>
</mask>
<path d="M230.856 108.16C230.856 149.44 222.056 164 178.536 164H147.016V52.32H178.536C222.056 52.32 230.856 66.72 230.856 108.16ZM210.696 108.32C210.696 92.96 210.056 84.96 207.176 80.16C203.496 74.08 196.296 72.16 183.016 72.16H167.176V144.16H183.016C196.456 144.16 203.656 142.08 207.336 135.84C210.056 131.04 210.696 124 210.696 108.32ZM325.974 144.16V164H250.454V52.32H325.974V72.16H270.614V97.12H318.934V116H270.614V144.16H325.974ZM423.133 130.4C423.133 153.12 402.653 165.6 381.853 165.6C358.333 165.6 342.653 155.04 337.053 132.64L356.093 128.96C359.453 141.44 369.213 146.4 381.853 146.4C391.293 146.4 402.973 141.6 402.973 130.4C402.973 107.36 340.733 122.56 340.733 82.4C340.733 61.28 359.773 51.04 378.653 51.04C398.493 51.04 411.133 58.4 419.773 75.84L402.333 83.84C397.053 73.92 390.333 69.76 378.653 69.76C371.453 69.76 360.893 72.96 360.893 82.4C360.893 101.92 423.133 89.28 423.133 130.4ZM488.811 52.32L532.011 164H510.251L499.531 134.88H460.171L449.611 164H427.851L470.731 52.32H488.811ZM466.731 117.28H493.131L479.851 81.28L466.731 117.28ZM617.815 52.32V72.16H563.735V97.12H611.895V116H563.735V164H543.735V52.32H617.815ZM657.813 52.32V164H637.653V52.32H657.813ZM768.759 108.16C768.759 137.76 756.119 165.28 722.519 165.28C688.919 165.28 676.279 137.76 676.279 108.16C676.279 78.56 688.919 51.04 722.519 51.04C756.119 51.04 768.759 78.4 768.759 108.16ZM748.439 108.16C748.439 90.72 744.599 70.88 722.519 70.88C700.599 70.88 696.439 90.72 696.439 108.16C696.439 125.6 700.599 145.44 722.519 145.44C744.439 145.44 748.439 125.6 748.439 108.16ZM141.648 280.4C141.648 303.12 121.168 315.6 100.368 315.6C76.8481 315.6 61.1681 305.04 55.5681 282.64L74.6081 278.96C77.9681 291.44 87.7281 296.4 100.368 296.4C109.808 296.4 121.488 291.6 121.488 280.4C121.488 257.36 59.2481 272.56 59.2481 232.4C59.2481 211.28 78.2881 201.04 97.1681 201.04C117.008 201.04 129.648 208.4 138.288 225.84L120.848 233.84C115.568 223.92 108.848 219.76 97.1681 219.76C89.9681 219.76 79.4081 222.96 79.4081 232.4C79.4081 251.92 141.648 239.28 141.648 280.4ZM234.489 294.16V314H158.969V202.32H234.489V222.16H179.129V247.12H227.449V266H179.129V294.16H234.489ZM293.973 252.4H335.093V314H318.133V303.6C312.373 312.56 304.373 315.28 294.613 315.28C261.493 315.28 249.013 287.44 249.013 258.16C249.013 228.56 261.973 201.04 295.253 201.04C312.693 201.04 322.613 207.92 333.013 221.52L318.933 234.32C312.533 226 306.293 220.88 295.253 220.88C273.493 220.88 269.173 240.72 269.173 258.16C269.173 275.44 273.493 295.44 295.253 295.44C310.133 295.44 315.253 282.96 315.253 269.68H293.973V252.4ZM437.947 202.32V267.6C437.947 296.24 426.267 315.28 395.707 315.28C365.147 315.28 353.467 296.08 353.467 267.6V202.32H373.467V266.64C373.467 282.16 376.827 295.76 395.707 295.76C415.067 295.76 417.947 282.64 417.947 266.64V202.32H437.947ZM537.842 235.6C537.842 250.16 528.882 261.52 514.322 265.68C516.242 267.12 518.322 270.16 519.762 272.56L546.002 314H522.642L499.922 276.08C496.562 270.32 494.642 267.76 487.442 267.76H479.442V314H459.282V202.32H499.602C521.202 202.32 537.842 212.4 537.842 235.6ZM517.682 235.6C517.682 224.24 509.522 221.68 499.762 221.68H479.442V250H499.762C509.842 250 517.682 247.28 517.682 235.6ZM609.046 202.32L652.246 314H630.486L619.766 284.88H580.406L569.846 314H548.086L590.966 202.32H609.046ZM586.966 267.28H613.366L600.086 231.28L586.966 267.28ZM747.809 258.16C747.809 299.44 739.009 314 695.489 314H663.969V202.32H695.489C739.009 202.32 747.809 216.72 747.809 258.16ZM727.649 258.32C727.649 242.96 727.009 234.96 724.129 230.16C720.449 224.08 713.249 222.16 699.969 222.16H684.129V294.16H699.969C713.409 294.16 720.609 292.08 724.289 285.84C727.009 281.04 727.649 274 727.649 258.32ZM855.087 258.16C855.087 287.76 842.447 315.28 808.847 315.28C775.247 315.28 762.607 287.76 762.607 258.16C762.607 228.56 775.247 201.04 808.847 201.04C842.447 201.04 855.087 228.4 855.087 258.16ZM834.767 258.16C834.767 240.72 830.927 220.88 808.847 220.88C786.927 220.88 782.767 240.72 782.767 258.16C782.767 275.6 786.927 295.44 808.847 295.44C830.767 295.44 834.767 275.6 834.767 258.16Z" fill="#00325D"/>
<path d="M147.016 164H140.016C140.016 167.866 143.15 171 147.016 171V164ZM147.016 52.32V45.32C143.15 45.32 140.016 48.454 140.016 52.32H147.016ZM207.176 80.16L213.179 76.5585C213.174 76.5508 213.169 76.5431 213.165 76.5354L207.176 80.16ZM167.176 72.16V65.16C163.31 65.16 160.176 68.294 160.176 72.16H167.176ZM167.176 144.16H160.176C160.176 148.026 163.31 151.16 167.176 151.16V144.16ZM207.336 135.84L213.366 139.396C213.386 139.361 213.407 139.326 213.426 139.291L207.336 135.84ZM230.856 108.16H223.856C223.856 128.91 221.483 140.345 215.73 146.971C210.242 153.292 200.003 157 178.536 157V164V171C200.59 171 216.51 167.428 226.302 156.149C235.83 145.175 237.856 128.69 237.856 108.16H230.856ZM178.536 164V157H147.016V164V171H178.536V164ZM147.016 164H154.016V52.32H147.016H140.016V164H147.016ZM147.016 52.32V59.32H178.536V52.32V45.32H147.016V52.32ZM178.536 52.32V59.32C200.02 59.32 210.253 62.9944 215.736 69.295C221.48 75.8971 223.856 87.3219 223.856 108.16H230.856H237.856C237.856 87.558 235.832 71.0629 226.297 60.105C216.5 48.8456 200.572 45.32 178.536 45.32V52.32ZM210.696 108.32H217.696C217.696 100.619 217.54 94.4313 216.97 89.48C216.404 84.5585 215.368 80.2076 213.179 76.5585L207.176 80.16L201.174 83.7615C201.864 84.9124 202.588 86.9615 203.062 91.08C203.533 95.1687 203.696 100.661 203.696 108.32H210.696ZM207.176 80.16L213.165 76.5354C207.287 66.8241 196.139 65.16 183.016 65.16V72.16V79.16C196.453 79.16 199.706 81.3359 201.188 83.7846L207.176 80.16ZM183.016 72.16V65.16H167.176V72.16V79.16H183.016V72.16ZM167.176 72.16H160.176V144.16H167.176H174.176V72.16H167.176ZM167.176 144.16V151.16H183.016V144.16V137.16H167.176V144.16ZM183.016 144.16V151.16C196.42 151.16 207.532 149.288 213.366 139.396L207.336 135.84L201.307 132.284C199.781 134.872 196.493 137.16 183.016 137.16V144.16ZM207.336 135.84L213.426 139.291C215.426 135.762 216.433 131.774 216.99 126.965C217.54 122.208 217.696 116.174 217.696 108.32H210.696H203.696C203.696 116.146 203.532 121.472 203.083 125.355C202.639 129.186 201.966 131.118 201.246 132.389L207.336 135.84ZM325.974 144.16H332.974C332.974 140.294 329.84 137.16 325.974 137.16V144.16ZM325.974 164V171C329.84 171 332.974 167.866 332.974 164H325.974ZM250.454 164H243.454C243.454 167.866 246.588 171 250.454 171V164ZM250.454 52.32V45.32C246.588 45.32 243.454 48.454 243.454 52.32H250.454ZM325.974 52.32H332.974C332.974 48.454 329.84 45.32 325.974 45.32V52.32ZM325.974 72.16V79.16C329.84 79.16 332.974 76.026 332.974 72.16H325.974ZM270.614 72.16V65.16C266.748 65.16 263.614 68.294 263.614 72.16H270.614ZM270.614 97.12H263.614C263.614 100.986 266.748 104.12 270.614 104.12V97.12ZM318.934 97.12H325.934C325.934 93.254 322.8 90.12 318.934 90.12V97.12ZM318.934 116V123C322.8 123 325.934 119.866 325.934 116H318.934ZM270.614 116V109C266.748 109 263.614 112.134 263.614 116H270.614ZM270.614 144.16H263.614C263.614 148.026 266.748 151.16 270.614 151.16V144.16ZM325.974 144.16H318.974V164H325.974H332.974V144.16H325.974ZM325.974 164V157H250.454V164V171H325.974V164ZM250.454 164H257.454V52.32H250.454H243.454V164H250.454ZM250.454 52.32V59.32H325.974V52.32V45.32H250.454V52.32ZM325.974 52.32H318.974V72.16H325.974H332.974V52.32H325.974ZM325.974 72.16V65.16H270.614V72.16V79.16H325.974V72.16ZM270.614 72.16H263.614V97.12H270.614H277.614V72.16H270.614ZM270.614 97.12V104.12H318.934V97.12V90.12H270.614V97.12ZM318.934 97.12H311.934V116H318.934H325.934V97.12H318.934ZM318.934 116V109H270.614V116V123H318.934V116ZM270.614 116H263.614V144.16H270.614H277.614V116H270.614ZM270.614 144.16V151.16H325.974V144.16V137.16H270.614V144.16ZM337.052 132.64L335.724 125.767C333.837 126.132 332.183 127.257 331.15 128.878C330.116 130.499 329.795 132.473 330.262 134.338L337.052 132.64ZM356.092 128.96L362.852 127.14C361.898 123.596 358.368 121.391 354.764 122.087L356.092 128.96ZM419.773 75.84L422.691 82.2025C424.412 81.4133 425.739 79.9611 426.371 78.1769C427.003 76.3927 426.885 74.4286 426.045 72.7325L419.773 75.84ZM402.333 83.84L396.153 87.1289C397.894 90.4 401.883 91.7475 405.251 90.2025L402.333 83.84ZM423.133 130.4H416.133C416.133 139.404 412.172 146.226 406.015 150.979C399.699 155.855 390.947 158.6 381.853 158.6V165.6V172.6C393.558 172.6 405.446 169.105 414.57 162.061C423.853 154.894 430.133 144.116 430.133 130.4H423.133ZM381.853 165.6V158.6C371.109 158.6 362.87 156.191 356.821 151.838C350.844 147.537 346.32 140.847 343.844 130.942L337.052 132.64L330.262 134.338C333.385 146.833 339.501 156.623 348.644 163.202C357.715 169.729 369.076 172.6 381.853 172.6V165.6ZM337.052 132.64L338.381 139.513L357.421 135.833L356.092 128.96L354.764 122.087L335.724 125.767L337.052 132.64ZM356.092 128.96L349.333 130.78C351.429 138.565 355.702 144.461 361.759 148.281C367.66 152.002 374.686 153.4 381.853 153.4V146.4V139.4C376.379 139.4 372.205 138.318 369.226 136.439C366.403 134.659 364.116 131.835 362.852 127.14L356.092 128.96ZM381.853 146.4V153.4C387.593 153.4 394.246 151.971 399.701 148.512C405.38 144.91 409.973 138.881 409.973 130.4H402.973H395.973C395.973 133.119 394.725 135.09 392.204 136.688C389.459 138.429 385.552 139.4 381.853 139.4V146.4ZM402.973 130.4H409.973C409.973 125.738 408.323 121.784 405.472 118.655C402.797 115.718 399.315 113.779 395.95 112.37C389.519 109.678 380.691 107.91 373.636 106.051C365.936 104.022 359.394 101.72 354.781 98.0973C350.61 94.8217 347.733 90.259 347.733 82.4H340.733H333.733C333.733 94.621 338.635 103.218 346.134 109.108C353.191 114.65 362.209 117.518 370.069 119.589C378.574 121.83 385.306 123.092 390.545 125.285C393.015 126.319 394.396 127.285 395.124 128.084C395.677 128.691 395.973 129.302 395.973 130.4H402.973ZM340.733 82.4H347.733C347.733 74.2474 351.281 68.4403 356.741 64.4529C362.417 60.3078 370.36 58.04 378.652 58.04V51.04V44.04C368.065 44.04 357.048 46.8922 348.484 53.1471C339.704 59.5597 333.733 69.4326 333.733 82.4H340.733ZM378.652 51.04V58.04C387.717 58.04 394.49 59.7192 399.819 62.9072C405.117 66.0768 409.62 71.1156 413.5 78.9475L419.773 75.84L426.045 72.7325C421.285 63.1244 415.148 55.7632 407.006 50.8928C398.895 46.0408 389.428 44.04 378.652 44.04V51.04ZM419.773 75.84L416.854 69.4775L399.414 77.4775L402.333 83.84L405.251 90.2025L422.691 82.2025L419.773 75.84ZM402.333 83.84L408.512 80.551C405.486 74.8664 401.714 70.2094 396.494 67.0775C391.278 63.9481 385.315 62.76 378.652 62.76V69.76V76.76C383.67 76.76 386.907 77.6519 389.291 79.0824C391.671 80.5106 393.899 82.8936 396.153 87.1289L402.333 83.84ZM378.652 69.76V62.76C374.218 62.76 368.515 63.7124 363.655 66.4307C358.55 69.2861 353.892 74.4812 353.892 82.4H360.892H367.892C367.892 80.8788 368.515 79.7539 370.49 78.6493C372.71 77.4076 375.887 76.76 378.652 76.76V69.76ZM360.892 82.4H353.892C353.892 87.006 355.843 90.7221 358.768 93.4761C361.462 96.0133 364.902 97.677 368.146 98.9015C371.456 100.151 375.188 101.166 378.847 102.104C382.627 103.074 386.325 103.961 390.1 105.034C397.7 107.193 404.263 109.757 408.905 113.657C413.177 117.247 416.133 122.215 416.133 130.4H423.133H430.133C430.133 118.025 425.308 109.153 417.91 102.938C410.882 97.0325 401.885 93.8274 393.925 91.5664C389.92 90.4287 385.838 89.4439 382.325 88.5429C378.689 87.6105 375.614 86.7564 373.09 85.8035C370.498 84.8255 369.076 83.9529 368.366 83.2845C367.887 82.8329 367.892 82.674 367.892 82.4H360.892ZM488.811 52.32L495.34 49.7946C494.297 47.0978 491.703 45.32 488.811 45.32V52.32ZM532.011 164V171C534.32 171 536.48 169.862 537.785 167.957C539.09 166.053 539.373 163.628 538.54 161.475L532.011 164ZM510.251 164L503.682 166.418C504.696 169.171 507.318 171 510.251 171V164ZM499.531 134.88L506.1 132.462C505.087 129.709 502.465 127.88 499.531 127.88V134.88ZM460.171 134.88V127.88C457.225 127.88 454.595 129.724 453.591 132.494L460.171 134.88ZM449.611 164V171C452.557 171 455.188 169.156 456.192 166.386L449.611 164ZM427.851 164L421.316 161.491C420.49 163.643 420.776 166.065 422.082 167.965C423.388 169.865 425.546 171 427.851 171V164ZM470.731 52.32V45.32C467.833 45.32 465.235 47.1056 464.196 49.8109L470.731 52.32ZM466.731 117.28L460.154 114.883C459.372 117.029 459.686 119.422 460.996 121.294C462.306 123.165 464.447 124.28 466.731 124.28V117.28ZM493.131 117.28V124.28C495.42 124.28 497.565 123.161 498.874 121.283C500.183 119.405 500.491 117.005 499.699 114.857L493.131 117.28ZM479.851 81.28L486.419 78.8574C485.402 76.1021 482.774 74.2743 479.838 74.28C476.901 74.2858 474.28 76.1239 473.274 78.8831L479.851 81.28ZM488.811 52.32L482.283 54.8454L525.483 166.525L532.011 164L538.54 161.475L495.34 49.7946L488.811 52.32ZM532.011 164V157H510.251V164V171H532.011V164ZM510.251 164L516.82 161.582L506.1 132.462L499.531 134.88L492.962 137.298L503.682 166.418L510.251 164ZM499.531 134.88V127.88H460.171V134.88V141.88H499.531V134.88ZM460.171 134.88L453.591 132.494L443.031 161.614L449.611 164L456.192 166.386L466.752 137.266L460.171 134.88ZM449.611 164V157H427.851V164V171H449.611V164ZM427.851 164L434.386 166.509L477.266 54.8291L470.731 52.32L464.196 49.8109L421.316 161.491L427.851 164ZM470.731 52.32V59.32H488.811V52.32V45.32H470.731V52.32ZM466.731 117.28V124.28H493.131V117.28V110.28H466.731V117.28ZM493.131 117.28L499.699 114.857L486.419 78.8574L479.851 81.28L473.284 83.7026L486.564 119.703L493.131 117.28ZM479.851 81.28L473.274 78.8831L460.154 114.883L466.731 117.28L473.308 119.677L486.428 83.6769L479.851 81.28ZM617.815 52.32H624.815C624.815 48.454 621.681 45.32 617.815 45.32V52.32ZM617.815 72.16V79.16C621.681 79.16 624.815 76.026 624.815 72.16H617.815ZM563.735 72.16V65.16C559.869 65.16 556.735 68.294 556.735 72.16H563.735ZM563.735 97.12H556.735C556.735 100.986 559.869 104.12 563.735 104.12V97.12ZM611.895 97.12H618.895C618.895 93.254 615.761 90.12 611.895 90.12V97.12ZM611.895 116V123C615.761 123 618.895 119.866 618.895 116H611.895ZM563.735 116V109C559.869 109 556.735 112.134 556.735 116H563.735ZM563.735 164V171C567.601 171 570.735 167.866 570.735 164H563.735ZM543.735 164H536.735C536.735 167.866 539.869 171 543.735 171V164ZM543.735 52.32V45.32C539.869 45.32 536.735 48.454 536.735 52.32H543.735ZM617.815 52.32H610.815V72.16H617.815H624.815V52.32H617.815ZM617.815 72.16V65.16H563.735V72.16V79.16H617.815V72.16ZM563.735 72.16H556.735V97.12H563.735H570.735V72.16H563.735ZM563.735 97.12V104.12H611.895V97.12V90.12H563.735V97.12ZM611.895 97.12H604.895V116H611.895H618.895V97.12H611.895ZM611.895 116V109H563.735V116V123H611.895V116ZM563.735 116H556.735V164H563.735H570.735V116H563.735ZM563.735 164V157H543.735V164V171H563.735V164ZM543.735 164H550.735V52.32H543.735H536.735V164H543.735ZM543.735 52.32V59.32H617.815V52.32V45.32H543.735V52.32ZM657.812 52.32H664.812C664.812 48.454 661.678 45.32 657.812 45.32V52.32ZM657.812 164V171C661.678 171 664.812 167.866 664.812 164H657.812ZM637.653 164H630.653C630.653 167.866 633.786 171 637.653 171V164ZM637.653 52.32V45.32C633.786 45.32 630.653 48.454 630.653 52.32H637.653ZM657.812 52.32H650.812V164H657.812H664.812V52.32H657.812ZM657.812 164V157H637.653V164V171H657.812V164ZM637.653 164H644.653V52.32H637.653H630.653V164H637.653ZM637.653 52.32V59.32H657.812V52.32V45.32H637.653V52.32ZM768.759 108.16H761.759C761.759 122.122 758.754 134.822 752.492 143.823C746.477 152.469 737.092 158.28 722.519 158.28V165.28V172.28C741.546 172.28 755.28 164.331 763.985 151.817C772.444 139.658 775.759 123.798 775.759 108.16H768.759ZM722.519 165.28V158.28C707.946 158.28 698.56 152.469 692.545 143.823C686.284 134.822 683.279 122.122 683.279 108.16H676.279H669.279C669.279 123.798 672.594 139.658 681.052 151.817C689.757 164.331 703.492 172.28 722.519 172.28V165.28ZM676.279 108.16H683.279C683.279 94.1983 686.284 81.498 692.545 72.4974C698.56 63.8507 707.946 58.04 722.519 58.04V51.04V44.04C703.492 44.04 689.757 51.9893 681.052 64.5025C672.594 76.6619 669.279 92.5217 669.279 108.16H676.279ZM722.519 51.04V58.04C737.107 58.04 746.489 63.8233 752.496 72.4425C758.751 81.4176 761.759 94.1123 761.759 108.16H768.759H775.759C775.759 92.4477 772.446 76.5824 763.982 64.4374C755.269 51.9367 741.531 44.04 722.519 44.04V51.04ZM748.439 108.16H755.439C755.439 99.1833 754.498 88.4432 749.967 79.7456C747.635 75.2698 744.285 71.2034 739.553 68.291C734.813 65.3742 729.117 63.88 722.519 63.88V70.88V77.88C726.96 77.88 730.024 78.8658 732.215 80.214C734.413 81.5666 736.163 83.5502 737.551 86.2144C740.459 91.7968 741.439 99.6967 741.439 108.16H748.439ZM722.519 70.88V63.88C715.95 63.88 710.27 65.3787 705.533 68.2875C700.807 71.1898 697.436 75.2404 695.072 79.7048C690.471 88.3957 689.439 99.1302 689.439 108.16H696.439H703.439C703.439 99.7498 704.486 91.8443 707.445 86.2552C708.862 83.5796 710.64 81.5802 712.859 80.2175C715.068 78.8613 718.128 77.88 722.519 77.88V70.88ZM696.439 108.16H689.439C689.439 117.19 690.471 127.924 695.072 136.615C697.436 141.08 700.807 145.13 705.533 148.032C710.27 150.941 715.95 152.44 722.519 152.44V145.44V138.44C718.128 138.44 715.068 137.459 712.859 136.103C710.64 134.74 708.862 132.74 707.445 130.065C704.486 124.476 703.439 116.57 703.439 108.16H696.439ZM722.519 145.44V152.44C729.087 152.44 734.763 150.941 739.491 148.025C744.208 145.116 747.559 141.056 749.9 136.588C754.452 127.897 755.439 117.164 755.439 108.16H748.439H741.439C741.439 116.596 740.425 124.503 737.498 130.092C736.098 132.764 734.339 134.754 732.142 136.11C729.954 137.459 726.91 138.44 722.519 138.44V145.44ZM55.5681 282.64L54.2398 275.767C52.3525 276.132 50.6983 277.257 49.6652 278.878C48.6321 280.499 48.3109 282.473 48.7771 284.338L55.5681 282.64ZM74.6081 278.96L81.3674 277.14C80.4132 273.596 76.8835 271.391 73.2798 272.087L74.6081 278.96ZM138.288 225.84L141.207 232.203C142.927 231.413 144.255 229.961 144.887 228.177C145.518 226.393 145.401 224.429 144.561 222.733L138.288 225.84ZM120.848 233.84L114.669 237.129C116.41 240.4 120.399 241.748 123.767 240.203L120.848 233.84ZM141.648 280.4H134.648C134.648 289.404 130.688 296.226 124.53 300.979C118.215 305.855 109.463 308.6 100.368 308.6V315.6V322.6C112.073 322.6 123.961 319.105 133.086 312.061C142.369 304.894 148.648 294.116 148.648 280.4H141.648ZM100.368 315.6V308.6C89.6247 308.6 81.3856 306.191 75.3367 301.838C69.3592 297.537 64.8354 290.847 62.3591 280.942L55.5681 282.64L48.7771 284.338C51.9009 296.833 58.0171 306.623 67.1596 313.202C76.2306 319.729 87.5916 322.6 100.368 322.6V315.6ZM55.5681 282.64L56.8965 289.513L75.9365 285.833L74.6081 278.96L73.2798 272.087L54.2398 275.767L55.5681 282.64ZM74.6081 278.96L67.8488 280.78C69.9449 288.565 74.2171 294.461 80.2742 298.281C86.1754 302.002 93.2017 303.4 100.368 303.4V296.4V289.4C94.8946 289.4 90.7208 288.318 87.7421 286.439C84.9191 284.659 82.6314 281.835 81.3674 277.14L74.6081 278.96ZM100.368 296.4V303.4C106.108 303.4 112.762 301.971 118.217 298.512C123.896 294.91 128.488 288.881 128.488 280.4H121.488H114.488C114.488 283.119 113.241 285.09 110.719 286.688C107.975 288.429 104.068 289.4 100.368 289.4V296.4ZM121.488 280.4H128.488C128.488 275.738 126.839 271.784 123.988 268.655C121.312 265.718 117.831 263.779 114.466 262.37C108.034 259.678 99.207 257.91 92.1517 256.051C84.4513 254.022 77.9096 251.72 73.2966 248.097C69.1257 244.822 66.2481 240.259 66.2481 232.4H59.2481H52.2481C52.2481 244.621 57.1505 253.218 64.6496 259.108C71.7067 264.65 80.7249 267.518 88.5845 269.589C97.0893 271.83 103.822 273.092 109.06 275.285C111.531 276.319 112.912 277.285 113.64 278.084C114.192 278.691 114.488 279.302 114.488 280.4H121.488ZM59.2481 232.4H66.2481C66.2481 224.247 69.797 218.44 75.2566 214.453C80.9323 210.308 88.8759 208.04 97.1681 208.04V201.04V194.04C86.5804 194.04 75.564 196.892 66.9996 203.147C58.2192 209.56 52.2481 219.433 52.2481 232.4H59.2481ZM97.1681 201.04V208.04C106.232 208.04 113.005 209.719 118.335 212.907C123.633 216.077 128.136 221.116 132.016 228.947L138.288 225.84L144.561 222.733C139.801 213.124 133.663 205.763 125.522 200.893C117.411 196.041 107.944 194.04 97.1681 194.04V201.04ZM138.288 225.84L135.37 219.477L117.93 227.477L120.848 233.84L123.767 240.203L141.207 232.203L138.288 225.84ZM120.848 233.84L127.027 230.551C124.002 224.866 120.229 220.209 115.01 217.078C109.794 213.948 103.831 212.76 97.1681 212.76V219.76V226.76C102.186 226.76 105.422 227.652 107.807 229.082C110.187 230.511 112.415 232.894 114.669 237.129L120.848 233.84ZM97.1681 219.76V212.76C92.7333 212.76 87.031 213.712 82.1711 216.431C77.066 219.286 72.4081 224.481 72.4081 232.4H79.4081H86.4081C86.4081 230.879 87.0303 229.754 89.0052 228.649C91.2253 227.408 94.403 226.76 97.1681 226.76V219.76ZM79.4081 232.4H72.4081C72.4081 237.006 74.359 240.722 77.2833 243.476C79.9773 246.013 83.4172 247.677 86.6611 248.901C89.9716 250.151 93.704 251.166 97.3622 252.104C101.143 253.074 104.84 253.961 108.615 255.034C116.216 257.193 122.779 259.757 127.42 263.657C131.693 267.247 134.648 272.215 134.648 280.4H141.648H148.648C148.648 268.025 143.823 259.153 136.426 252.938C129.397 247.033 120.401 243.827 112.441 241.566C108.436 240.429 104.353 239.444 100.84 238.543C97.2047 237.61 94.1297 236.756 91.6051 235.804C89.0141 234.825 87.5915 233.953 86.8817 233.284C86.4022 232.833 86.4081 232.674 86.4081 232.4H79.4081ZM234.489 294.16H241.489C241.489 290.294 238.355 287.16 234.489 287.16V294.16ZM234.489 314V321C238.355 321 241.489 317.866 241.489 314H234.489ZM158.969 314H151.969C151.969 317.866 155.103 321 158.969 321V314ZM158.969 202.32V195.32C155.103 195.32 151.969 198.454 151.969 202.32H158.969ZM234.489 202.32H241.489C241.489 198.454 238.355 195.32 234.489 195.32V202.32ZM234.489 222.16V229.16C238.355 229.16 241.489 226.026 241.489 222.16H234.489ZM179.129 222.16V215.16C175.263 215.16 172.129 218.294 172.129 222.16H179.129ZM179.129 247.12H172.129C172.129 250.986 175.263 254.12 179.129 254.12V247.12ZM227.449 247.12H234.449C234.449 243.254 231.315 240.12 227.449 240.12V247.12ZM227.449 266V273C231.315 273 234.449 269.866 234.449 266H227.449ZM179.129 266V259C175.263 259 172.129 262.134 172.129 266H179.129ZM179.129 294.16H172.129C172.129 298.026 175.263 301.16 179.129 301.16V294.16ZM234.489 294.16H227.489V314H234.489H241.489V294.16H234.489ZM234.489 314V307H158.969V314V321H234.489V314ZM158.969 314H165.969V202.32H158.969H151.969V314H158.969ZM158.969 202.32V209.32H234.489V202.32V195.32H158.969V202.32ZM234.489 202.32H227.489V222.16H234.489H241.489V202.32H234.489ZM234.489 222.16V215.16H179.129V222.16V229.16H234.489V222.16ZM179.129 222.16H172.129V247.12H179.129H186.129V222.16H179.129ZM179.129 247.12V254.12H227.449V247.12V240.12H179.129V247.12ZM227.449 247.12H220.449V266H227.449H234.449V247.12H227.449ZM227.449 266V259H179.129V266V273H227.449V266ZM179.129 266H172.129V294.16H179.129H186.129V266H179.129ZM179.129 294.16V301.16H234.489V294.16V287.16H179.129V294.16ZM293.973 252.4V245.4C290.107 245.4 286.973 248.534 286.973 252.4H293.973ZM335.093 252.4H342.093C342.093 248.534 338.959 245.4 335.093 245.4V252.4ZM335.093 314V321C338.959 321 342.093 317.866 342.093 314H335.093ZM318.133 314H311.133C311.133 317.866 314.267 321 318.133 321V314ZM318.133 303.6H325.133C325.133 300.494 323.086 297.759 320.106 296.884C317.125 296.008 313.925 297.202 312.245 299.815L318.133 303.6ZM333.013 221.52L337.722 226.7C340.412 224.254 340.782 220.156 338.574 217.268L333.013 221.52ZM318.933 234.32L313.385 238.588C314.578 240.139 316.365 241.119 318.313 241.293C320.262 241.466 322.194 240.816 323.642 239.5L318.933 234.32ZM315.253 269.68H322.253C322.253 265.814 319.119 262.68 315.253 262.68V269.68ZM293.973 269.68H286.973C286.973 273.546 290.107 276.68 293.973 276.68V269.68ZM293.973 252.4V259.4H335.093V252.4V245.4H293.973V252.4ZM335.093 252.4H328.093V314H335.093H342.093V252.4H335.093ZM335.093 314V307H318.133V314V321H335.093V314ZM318.133 314H325.133V303.6H318.133H311.133V314H318.133ZM318.133 303.6L312.245 299.815C310.035 303.252 307.595 305.231 304.964 306.433C302.236 307.68 298.879 308.28 294.613 308.28V315.28V322.28C300.107 322.28 305.631 321.52 310.782 319.167C316.031 316.769 320.471 312.908 324.021 307.385L318.133 303.6ZM294.613 315.28V308.28C280.354 308.28 271.121 302.452 265.172 293.75C258.979 284.691 256.013 271.964 256.013 258.16H249.013H242.013C242.013 273.636 245.287 289.469 253.614 301.65C262.185 314.188 275.753 322.28 294.613 322.28V315.28ZM249.013 258.16H256.013C256.013 244.23 259.085 231.525 265.389 222.512C271.457 213.837 280.858 208.04 295.253 208.04V201.04V194.04C276.368 194.04 262.649 202.003 253.917 214.488C245.421 226.635 242.013 242.49 242.013 258.16H249.013ZM295.253 201.04V208.04C302.984 208.04 308.575 209.546 313.289 212.251C318.111 215.018 322.525 219.329 327.453 225.772L333.013 221.52L338.574 217.268C333.101 210.111 327.355 204.182 320.257 200.109C313.051 195.974 304.962 194.04 295.253 194.04V201.04ZM333.013 221.52L328.304 216.34L314.224 229.14L318.933 234.32L323.642 239.5L337.722 226.7L333.013 221.52ZM318.933 234.32L324.482 230.052C321.082 225.633 317.314 221.504 312.523 218.532C307.582 215.467 301.964 213.88 295.253 213.88V220.88V227.88C299.583 227.88 302.604 228.853 305.143 230.428C307.832 232.096 310.384 234.687 313.385 238.588L318.933 234.32ZM295.253 220.88V213.88C288.714 213.88 283.054 215.383 278.329 218.291C273.618 221.191 270.246 225.235 267.874 229.691C263.252 238.375 262.173 249.103 262.173 258.16H269.173H276.173C276.173 249.777 277.254 241.865 280.232 236.269C281.661 233.585 283.448 231.579 285.667 230.214C287.872 228.857 290.912 227.88 295.253 227.88V220.88ZM269.173 258.16H262.173C262.173 267.145 263.254 277.865 267.87 286.562C270.238 291.023 273.605 295.082 278.314 297.997C283.038 300.922 288.704 302.44 295.253 302.44V295.44V288.44C290.922 288.44 287.888 287.458 285.683 286.093C283.461 284.718 281.669 282.697 280.236 279.998C277.252 274.375 276.173 266.455 276.173 258.16H269.173ZM295.253 295.44V302.44C305.017 302.44 312.231 298.162 316.684 291.383C320.863 285.021 322.253 277.041 322.253 269.68H315.253H308.253C308.253 275.599 307.083 280.499 304.983 283.697C303.155 286.478 300.37 288.44 295.253 288.44V295.44ZM315.253 269.68V262.68H293.973V269.68V276.68H315.253V269.68ZM293.973 269.68H300.973V252.4H293.973H286.973V269.68H293.973ZM437.947 202.32H444.947C444.947 198.454 441.813 195.32 437.947 195.32V202.32ZM353.467 202.32V195.32C349.601 195.32 346.467 198.454 346.467 202.32H353.467ZM373.467 202.32H380.467C380.467 198.454 377.333 195.32 373.467 195.32V202.32ZM417.947 202.32V195.32C414.081 195.32 410.947 198.454 410.947 202.32H417.947ZM437.947 202.32H430.947V267.6H437.947H444.947V202.32H437.947ZM437.947 267.6H430.947C430.947 281.147 428.156 291.205 422.843 297.78C417.757 304.073 409.451 308.28 395.707 308.28V315.28V322.28C412.522 322.28 425.337 316.967 433.731 306.58C441.898 296.475 444.947 282.693 444.947 267.6H437.947ZM395.707 315.28V308.28C381.981 308.28 373.67 304.045 368.576 297.727C363.254 291.125 360.467 281.059 360.467 267.6H353.467H346.467C346.467 282.621 349.519 296.395 357.677 306.514C366.063 316.915 378.873 322.28 395.707 322.28V315.28ZM353.467 267.6H360.467V202.32H353.467H346.467V267.6H353.467ZM353.467 202.32V209.32H373.467V202.32V195.32H353.467V202.32ZM373.467 202.32H366.467V266.64H373.467H380.467V202.32H373.467ZM373.467 266.64H366.467C366.467 274.587 367.259 283.537 371.502 290.618C376.196 298.45 384.286 302.76 395.707 302.76V295.76V288.76C388.247 288.76 385.218 286.27 383.511 283.422C381.355 279.823 380.467 274.213 380.467 266.64H373.467ZM395.707 295.76V302.76C407.203 302.76 415.4 298.686 420.103 290.778C424.307 283.709 424.947 274.688 424.947 266.64H417.947H410.947C410.947 274.592 410.147 280.131 408.07 283.622C406.493 286.274 403.571 288.76 395.707 288.76V295.76ZM417.947 266.64H424.947V202.32H417.947H410.947V266.64H417.947ZM417.947 202.32V209.32H437.947V202.32V195.32H417.947V202.32ZM514.322 265.68L512.399 258.949C509.843 259.68 507.921 261.795 507.438 264.409C506.956 267.023 507.995 269.685 510.122 271.28L514.322 265.68ZM519.762 272.56L513.759 276.161C513.788 276.21 513.818 276.257 513.848 276.305L519.762 272.56ZM546.002 314V321C548.554 321 550.904 319.611 552.134 317.375C553.365 315.14 553.281 312.411 551.916 310.255L546.002 314ZM522.642 314L516.637 317.598C517.902 319.708 520.181 321 522.642 321V314ZM499.922 276.08L493.875 279.607C493.889 279.631 493.903 279.654 493.917 279.678L499.922 276.08ZM479.442 267.76V260.76C475.576 260.76 472.442 263.894 472.442 267.76H479.442ZM479.442 314V321C483.308 321 486.442 317.866 486.442 314H479.442ZM459.282 314H452.282C452.282 317.866 455.416 321 459.282 321V314ZM459.282 202.32V195.32C455.416 195.32 452.282 198.454 452.282 202.32H459.282ZM479.442 221.68V214.68C475.576 214.68 472.442 217.814 472.442 221.68H479.442ZM479.442 250H472.442C472.442 253.866 475.576 257 479.442 257V250ZM537.842 235.6H530.842C530.842 246.821 524.165 255.588 512.399 258.949L514.322 265.68L516.245 272.411C533.599 267.452 544.842 253.499 544.842 235.6H537.842ZM514.322 265.68L510.122 271.28C510.305 271.417 510.84 271.928 511.644 272.989C512.383 273.965 513.121 275.098 513.759 276.161L519.762 272.56L525.764 268.959C524.962 267.622 523.94 266.035 522.8 264.531C521.724 263.112 520.259 261.383 518.522 260.08L514.322 265.68ZM519.762 272.56L513.848 276.305L540.088 317.745L546.002 314L551.916 310.255L525.676 268.815L519.762 272.56ZM546.002 314V307H522.642V314V321H546.002V314ZM522.642 314L528.647 310.402L505.927 272.482L499.922 276.08L493.917 279.678L516.637 317.598L522.642 314ZM499.922 276.08L505.968 272.553C504.393 269.853 502.435 266.512 499.342 264.175C495.869 261.551 491.87 260.76 487.442 260.76V267.76V274.76C490.213 274.76 490.774 275.249 490.902 275.345C491.408 275.728 492.09 276.547 493.875 279.607L499.922 276.08ZM487.442 267.76V260.76H479.442V267.76V274.76H487.442V267.76ZM479.442 267.76H472.442V314H479.442H486.442V267.76H479.442ZM479.442 314V307H459.282V314V321H479.442V314ZM459.282 314H466.282V202.32H459.282H452.282V314H459.282ZM459.282 202.32V209.32H499.602V202.32V195.32H459.282V202.32ZM499.602 202.32V209.32C509.439 209.32 517.265 211.631 522.482 215.753C527.445 219.674 530.842 225.849 530.842 235.6H537.842H544.842C544.842 222.151 539.918 211.686 531.161 204.767C522.659 198.049 511.365 195.32 499.602 195.32V202.32ZM517.682 235.6H524.682C524.682 227.966 521.763 222.027 516.121 218.462C511.125 215.305 504.971 214.68 499.762 214.68V221.68V228.68C504.313 228.68 507.119 229.335 508.643 230.298C509.521 230.853 510.682 231.874 510.682 235.6H517.682ZM499.762 221.68V214.68H479.442V221.68V228.68H499.762V221.68ZM479.442 221.68H472.442V250H479.442H486.442V221.68H479.442ZM479.442 250V257H499.762V250V243H479.442V250ZM499.762 250V257C505.139 257 511.372 256.336 516.376 253.01C521.988 249.28 524.682 243.202 524.682 235.6H517.682H510.682C510.682 239.678 509.455 240.8 508.627 241.35C507.192 242.304 504.465 243 499.762 243V250ZM609.046 202.32L615.574 199.795C614.531 197.098 611.937 195.32 609.046 195.32V202.32ZM652.246 314V321C654.554 321 656.714 319.862 658.02 317.957C659.325 316.053 659.607 313.628 658.774 311.475L652.246 314ZM630.486 314L623.917 316.418C624.93 319.171 627.552 321 630.486 321V314ZM619.766 284.88L626.335 282.462C625.321 279.709 622.699 277.88 619.766 277.88V284.88ZM580.406 284.88V277.88C577.46 277.88 574.829 279.724 573.825 282.494L580.406 284.88ZM569.846 314V321C572.791 321 575.422 319.156 576.426 316.386L569.846 314ZM548.086 314L541.551 311.491C540.724 313.643 541.011 316.065 542.317 317.965C543.622 319.865 545.78 321 548.086 321V314ZM590.966 202.32V195.32C588.068 195.32 585.469 197.106 584.431 199.811L590.966 202.32ZM586.966 267.28L580.389 264.883C579.607 267.029 579.921 269.422 581.231 271.294C582.541 273.165 584.681 274.28 586.966 274.28V267.28ZM613.366 267.28V274.28C615.655 274.28 617.799 273.161 619.108 271.283C620.417 269.405 620.725 267.005 619.933 264.857L613.366 267.28ZM600.086 231.28L606.653 228.857C605.637 226.102 603.009 224.274 600.072 224.28C597.135 224.286 594.514 226.124 593.509 228.883L600.086 231.28ZM609.046 202.32L602.517 204.845L645.717 316.525L652.246 314L658.774 311.475L615.574 199.795L609.046 202.32ZM652.246 314V307H630.486V314V321H652.246V314ZM630.486 314L637.055 311.582L626.335 282.462L619.766 284.88L613.197 287.298L623.917 316.418L630.486 314ZM619.766 284.88V277.88H580.406V284.88V291.88H619.766V284.88ZM580.406 284.88L573.825 282.494L563.265 311.614L569.846 314L576.426 316.386L586.986 287.266L580.406 284.88ZM569.846 314V307H548.086V314V321H569.846V314ZM548.086 314L554.62 316.509L597.5 204.829L590.966 202.32L584.431 199.811L541.551 311.491L548.086 314ZM590.966 202.32V209.32H609.046V202.32V195.32H590.966V202.32ZM586.966 267.28V274.28H613.366V267.28V260.28H586.966V267.28ZM613.366 267.28L619.933 264.857L606.653 228.857L600.086 231.28L593.518 233.703L606.798 269.703L613.366 267.28ZM600.086 231.28L593.509 228.883L580.389 264.883L586.966 267.28L593.542 269.677L606.662 233.677L600.086 231.28ZM663.969 314H656.969C656.969 317.866 660.103 321 663.969 321V314ZM663.969 202.32V195.32C660.103 195.32 656.969 198.454 656.969 202.32H663.969ZM724.129 230.16L730.132 226.559C730.127 226.551 730.123 226.543 730.118 226.535L724.129 230.16ZM684.129 222.16V215.16C680.263 215.16 677.129 218.294 677.129 222.16H684.129ZM684.129 294.16H677.129C677.129 298.026 680.263 301.16 684.129 301.16V294.16ZM724.289 285.84L730.319 289.396C730.339 289.361 730.36 289.326 730.38 289.291L724.289 285.84ZM747.809 258.16H740.809C740.809 278.91 738.436 290.345 732.684 296.971C727.195 303.292 716.956 307 695.489 307V314V321C717.543 321 733.463 317.428 743.255 306.149C752.783 295.175 754.809 278.69 754.809 258.16H747.809ZM695.489 314V307H663.969V314V321H695.489V314ZM663.969 314H670.969V202.32H663.969H656.969V314H663.969ZM663.969 202.32V209.32H695.489V202.32V195.32H663.969V202.32ZM695.489 202.32V209.32C716.973 209.32 727.206 212.994 732.689 219.295C738.434 225.897 740.809 237.322 740.809 258.16H747.809H754.809C754.809 237.558 752.785 221.063 743.25 210.105C733.453 198.846 717.526 195.32 695.489 195.32V202.32ZM727.649 258.32H734.649C734.649 250.619 734.493 244.431 733.924 239.48C733.357 234.559 732.321 230.208 730.132 226.559L724.129 230.16L718.127 233.761C718.818 234.912 719.541 236.961 720.015 241.08C720.486 245.169 720.649 250.661 720.649 258.32H727.649ZM724.129 230.16L730.118 226.535C724.24 216.824 713.092 215.16 699.969 215.16V222.16V229.16C713.406 229.16 716.659 231.336 718.141 233.785L724.129 230.16ZM699.969 222.16V215.16H684.129V222.16V229.16H699.969V222.16ZM684.129 222.16H677.129V294.16H684.129H691.129V222.16H684.129ZM684.129 294.16V301.16H699.969V294.16V287.16H684.129V294.16ZM699.969 294.16V301.16C713.373 301.16 724.485 299.288 730.319 289.396L724.289 285.84L718.26 282.284C716.734 284.872 713.446 287.16 699.969 287.16V294.16ZM724.289 285.84L730.38 289.291C732.38 285.762 733.386 281.774 733.943 276.965C734.494 272.208 734.649 266.174 734.649 258.32H727.649H720.649C720.649 266.146 720.485 271.472 720.036 275.355C719.592 279.186 718.919 281.118 718.199 282.389L724.289 285.84ZM855.087 258.16H848.087C848.087 272.122 845.082 284.822 838.821 293.823C832.805 302.469 823.42 308.28 808.847 308.28V315.28V322.28C827.874 322.28 841.608 314.331 850.313 301.817C858.772 289.658 862.087 273.798 862.087 258.16H855.087ZM808.847 315.28V308.28C794.274 308.28 784.888 302.469 778.873 293.823C772.612 284.822 769.607 272.122 769.607 258.16H762.607H755.607C755.607 273.798 758.922 289.658 767.381 301.817C776.085 314.331 789.82 322.28 808.847 322.28V315.28ZM762.607 258.16H769.607C769.607 244.198 772.612 231.498 778.873 222.497C784.888 213.851 794.274 208.04 808.847 208.04V201.04V194.04C789.82 194.04 776.085 201.989 767.381 214.503C758.922 226.662 755.607 242.522 755.607 258.16H762.607ZM808.847 201.04V208.04C823.435 208.04 832.817 213.823 838.824 222.443C845.079 231.418 848.087 244.112 848.087 258.16H855.087H862.087C862.087 242.448 858.774 226.582 850.31 214.437C841.597 201.937 827.859 194.04 808.847 194.04V201.04ZM834.767 258.16H841.767C841.767 249.183 840.826 238.443 836.295 229.746C833.963 225.27 830.613 221.203 825.881 218.291C821.141 215.374 815.445 213.88 808.847 213.88V220.88V227.88C813.288 227.88 816.352 228.866 818.543 230.214C820.741 231.567 822.491 233.55 823.879 236.214C826.787 241.797 827.767 249.697 827.767 258.16H834.767ZM808.847 220.88V213.88C802.278 213.88 796.598 215.379 791.861 218.288C787.135 221.19 783.764 225.24 781.4 229.705C776.799 238.396 775.767 249.13 775.767 258.16H782.767H789.767C789.767 249.75 790.814 241.844 793.773 236.255C795.19 233.58 796.969 231.58 799.188 230.217C801.396 228.861 804.456 227.88 808.847 227.88V220.88ZM782.767 258.16H775.767C775.767 267.19 776.799 277.924 781.4 286.615C783.764 291.08 787.135 295.13 791.861 298.033C796.598 300.941 802.278 302.44 808.847 302.44V295.44V288.44C804.456 288.44 801.396 287.459 799.188 286.103C796.969 284.74 795.19 282.74 793.773 280.065C790.814 274.476 789.767 266.57 789.767 258.16H782.767ZM808.847 295.44V302.44C815.415 302.44 821.091 300.941 825.819 298.025C830.537 295.116 833.887 291.056 836.228 286.588C840.78 277.897 841.767 267.164 841.767 258.16H834.767H827.767C827.767 266.596 826.754 274.503 823.826 280.092C822.426 282.764 820.667 284.754 818.47 286.11C816.282 287.459 813.238 288.44 808.847 288.44V295.44Z" fill="white" mask="url(#path-3-outside-2_14_101)"/>
</g>
<defs>
<filter id="filter0_d_14_101" x="0.767871" y="0.240039" width="909.119" height="374.16" filterUnits="userSpaceOnUse" color-interpolation-filters="sRGB">
<feFlood flood-opacity="0" result="BackgroundImageFix"/>
<feColorMatrix in="SourceAlpha" type="matrix" values="0 0 0 0 0 0 0 0 0 0 0 0 0 0 0 0 0 0 127 0" result="hardAlpha"/>
<feOffset dy="4"/>
<feGaussianBlur stdDeviation="2.9"/>
<feComposite in2="hardAlpha" operator="out"/>
<feColorMatrix type="matrix" values="0 0 0 0 0 0 0 0 0 0 0 0 0 0 0 0 0 0 0.07 0"/>
<feBlend mode="normal" in2="BackgroundImageFix" result="effect1_dropShadow_14_101"/>
<feBlend mode="normal" in="SourceGraphic" in2="effect1_dropShadow_14_101" result="shape"/>
</filter>
<filter id="filter1_d_14_101" x="44.5681" y="44.04" width="821.519" height="286.56" filterUnits="userSpaceOnUse" color-interpolation-filters="sRGB">
<feFlood flood-opacity="0" result="BackgroundImageFix"/>
<feColorMatrix in="SourceAlpha" type="matrix" values="0 0 0 0 0 0 0 0 0 0 0 0 0 0 0 0 0 0 127 0" result="hardAlpha"/>
<feOffset dy="4"/>
<feGaussianBlur stdDeviation="2"/>
<feComposite in2="hardAlpha" operator="out"/>
<feColorMatrix type="matrix" values="0 0 0 0 0 0 0 0 0 0 0 0 0 0 0 0 0 0 0.25 0"/>
<feBlend mode="normal" in2="BackgroundImageFix" result="effect1_dropShadow_14_101"/>
<feBlend mode="normal" in="SourceGraphic" in2="effect1_dropShadow_14_101" result="shape"/>
</filter>
</defs>
</svg>
